<svg xmlns="http://www.w3.org/2000/svg" xmlns:rdkit="http://www.rdkit.org/xml" xmlns:xlink="http://www.w3.org/1999/xlink" version="1.1" baseProfile="full" xml:space="preserve" width="750px" height="750px" viewBox="0 0 750 750">
<!-- END OF HEADER -->
<rect style="opacity:1.0;fill:#FFFFFF;stroke:none" width="750.0" height="750.0" x="0.0" y="0.0"> </rect>
<path class="bond-0 atom-0 atom-1" d="M 36.4,112.1 L 63.2,125.8" style="fill:none;fill-rule:evenodd;stroke:#000000;stroke-width:2.0px;stroke-linecap:butt;stroke-linejoin:miter;stroke-opacity:1"/>
<path class="bond-1 atom-1 atom-2" d="M 76.0,124.9 L 107.9,104.3" style="fill:none;fill-rule:evenodd;stroke:#000000;stroke-width:2.0px;stroke-linecap:butt;stroke-linejoin:miter;stroke-opacity:1"/>
<path class="bond-2 atom-2 atom-3" d="M 107.9,104.3 L 142.8,122.2" style="fill:none;fill-rule:evenodd;stroke:#000000;stroke-width:2.0px;stroke-linecap:butt;stroke-linejoin:miter;stroke-opacity:1"/>
<path class="bond-3 atom-3 atom-4" d="M 157.7,119.1 L 186.8,100.3" style="fill:none;fill-rule:evenodd;stroke:#000000;stroke-width:2.0px;stroke-linecap:butt;stroke-linejoin:miter;stroke-opacity:1"/>
<path class="bond-4 atom-4 atom-5" d="M 186.8,100.3 L 219.9,117.2" style="fill:none;fill-rule:evenodd;stroke:#000000;stroke-width:2.0px;stroke-linecap:butt;stroke-linejoin:miter;stroke-opacity:1"/>
<path class="atom-0" d="M 11.4 101.9 L 13.1 101.9 L 13.1 107.4 L 19.7 107.4 L 19.7 101.9 L 21.5 101.9 L 21.5 114.8 L 19.7 114.8 L 19.7 108.9 L 13.1 108.9 L 13.1 114.8 L 11.4 114.8 L 11.4 101.9 " fill="#000000"/>
<path class="atom-0" d="M 23.0 108.3 Q 23.0 105.2, 24.6 103.5 Q 26.1 101.8, 29.0 101.8 Q 31.8 101.8, 33.4 103.5 Q 34.9 105.2, 34.9 108.3 Q 34.9 111.5, 33.3 113.3 Q 31.8 115.0, 29.0 115.0 Q 26.1 115.0, 24.6 113.3 Q 23.0 111.5, 23.0 108.3 M 29.0 113.6 Q 30.9 113.6, 32.0 112.2 Q 33.1 110.9, 33.1 108.3 Q 33.1 105.8, 32.0 104.5 Q 30.9 103.2, 29.0 103.2 Q 27.0 103.2, 25.9 104.5 Q 24.8 105.8, 24.8 108.3 Q 24.8 110.9, 25.9 112.2 Q 27.0 113.6, 29.0 113.6 " fill="#000000"/>
<path class="atom-1" d="M 66.7 122.6 L 70.9 129.4 Q 71.4 130.1, 72.0 131.3 Q 72.7 132.6, 72.7 132.6 L 72.7 122.6 L 74.5 122.6 L 74.5 135.5 L 72.7 135.5 L 68.1 128.0 Q 67.6 127.2, 67.1 126.2 Q 66.5 125.2, 66.3 124.8 L 66.3 135.5 L 64.7 135.5 L 64.7 122.6 L 66.7 122.6 " fill="#000000"/>
<path class="atom-1" d="M 64.5 136.8 L 66.3 136.8 L 66.3 142.3 L 72.9 142.3 L 72.9 136.8 L 74.6 136.8 L 74.6 149.7 L 72.9 149.7 L 72.9 143.8 L 66.3 143.8 L 66.3 149.7 L 64.5 149.7 L 64.5 136.8 " fill="#000000"/>
<path class="atom-3" d="M 144.8 129.5 Q 145.0 129.5, 145.6 129.8 Q 146.2 130.1, 146.8 130.2 Q 147.5 130.4, 148.2 130.4 Q 149.4 130.4, 150.1 129.8 Q 150.8 129.2, 150.8 128.1 Q 150.8 127.4, 150.4 127.0 Q 150.1 126.5, 149.5 126.3 Q 149.0 126.1, 148.1 125.8 Q 146.9 125.5, 146.2 125.1 Q 145.6 124.8, 145.1 124.1 Q 144.6 123.4, 144.6 122.2 Q 144.6 120.6, 145.7 119.6 Q 146.8 118.6, 149.0 118.6 Q 150.5 118.6, 152.2 119.3 L 151.8 120.7 Q 150.2 120.1, 149.1 120.1 Q 147.8 120.1, 147.1 120.6 Q 146.4 121.1, 146.4 122.0 Q 146.4 122.7, 146.8 123.1 Q 147.1 123.6, 147.6 123.8 Q 148.2 124.0, 149.1 124.3 Q 150.2 124.7, 150.9 125.0 Q 151.6 125.4, 152.1 126.1 Q 152.6 126.9, 152.6 128.1 Q 152.6 129.9, 151.4 130.9 Q 150.2 131.8, 148.2 131.8 Q 147.1 131.8, 146.2 131.6 Q 145.3 131.3, 144.3 130.9 L 144.8 129.5 " fill="#000000"/>
<path class="atom-3" d="M 153.5 120.6 L 157.9 120.6 L 157.9 121.5 L 153.5 121.5 L 153.5 120.6 " fill="#000000"/>
<path class="atom-5" d="M 221.4 121.1 Q 221.4 118.0, 223.0 116.2 Q 224.5 114.5, 227.4 114.5 Q 230.2 114.5, 231.8 116.2 Q 233.3 118.0, 233.3 121.1 Q 233.3 124.2, 231.8 126.0 Q 230.2 127.8, 227.4 127.8 Q 224.5 127.8, 223.0 126.0 Q 221.4 124.2, 221.4 121.1 M 227.4 126.3 Q 229.3 126.3, 230.4 125.0 Q 231.5 123.7, 231.5 121.1 Q 231.5 118.5, 230.4 117.3 Q 229.3 116.0, 227.4 116.0 Q 225.4 116.0, 224.3 117.2 Q 223.3 118.5, 223.3 121.1 Q 223.3 123.7, 224.3 125.0 Q 225.4 126.3, 227.4 126.3 " fill="#000000"/>
<path class="atom-5" d="M 234.2 116.6 L 238.6 116.6 L 238.6 117.6 L 234.2 117.6 L 234.2 116.6 " fill="#000000"/>
<path class="atom-3" d="M 161.5,125.1 L 161.5,125.1 L 161.5,125.2 L 161.5,125.3 L 161.5,125.4 L 161.5,125.4 L 161.4,125.5 L 161.4,125.6 L 161.3,125.6 L 161.3,125.7 L 161.2,125.7 L 161.2,125.8 L 161.1,125.8 L 161.0,125.9 L 161.0,125.9 L 160.9,125.9 L 160.8,125.9 L 160.7,126.0 L 160.6,126.0 L 160.6,126.0 L 160.5,126.0 L 160.4,125.9 L 160.3,125.9 L 160.3,125.9 L 160.2,125.9 L 160.1,125.8 L 160.1,125.8 L 160.0,125.7 L 159.9,125.7 L 159.9,125.6 L 159.9,125.5 L 159.8,125.5 L 159.8,125.4 L 159.8,125.3 L 159.7,125.2 L 159.7,125.2 L 159.7,125.1 L 159.7,125.0 L 159.7,124.9 L 159.7,124.9 L 159.8,124.8 L 159.8,124.7 L 159.8,124.6 L 159.9,124.6 L 159.9,124.5 L 159.9,124.4 L 160.0,124.4 L 160.1,124.3 L 160.1,124.3 L 160.2,124.2 L 160.3,124.2 L 160.3,124.2 L 160.4,124.2 L 160.5,124.2 L 160.6,124.1 L 160.6,124.1 L 160.7,124.1 L 160.8,124.2 L 160.9,124.2 L 161.0,124.2 L 161.0,124.2 L 161.1,124.3 L 161.2,124.3 L 161.2,124.4 L 161.3,124.4 L 161.3,124.5 L 161.4,124.5 L 161.4,124.6 L 161.5,124.7 L 161.5,124.7 L 161.5,124.8 L 161.5,124.9 L 161.5,125.0 L 161.5,125.1 L 160.6,125.1 Z" style="fill:#000000;fill-rule:evenodd;fill-opacity:1;stroke:#000000;stroke-width:0.0px;stroke-linecap:butt;stroke-linejoin:miter;stroke-opacity:1;"/>
<path class="bond-0 atom-0 atom-1" d="M 287.1,104.3 L 409.0,104.3" style="fill:none;fill-rule:evenodd;stroke:#000000;stroke-width:2.0px;stroke-linecap:butt;stroke-linejoin:miter;stroke-opacity:1"/>
<path class="bond-0 atom-0 atom-1" d="M 287.1,131.7 L 409.0,131.7" style="fill:none;fill-rule:evenodd;stroke:#000000;stroke-width:2.0px;stroke-linecap:butt;stroke-linejoin:miter;stroke-opacity:1"/>
<path class="atom-1" d="M 418.0 103.8 L 427.2 118.8 Q 428.2 120.3, 429.6 123.0 Q 431.1 125.7, 431.2 125.8 L 431.2 103.8 L 435.0 103.8 L 435.0 132.2 L 431.1 132.2 L 421.1 115.8 Q 420.0 113.8, 418.7 111.6 Q 417.5 109.4, 417.2 108.8 L 417.2 132.2 L 413.5 132.2 L 413.5 103.8 L 418.0 103.8 " fill="#000000"/>
<path class="atom-1" d="M 438.3 103.8 L 442.1 103.8 L 442.1 115.9 L 456.6 115.9 L 456.6 103.8 L 460.4 103.8 L 460.4 132.2 L 456.6 132.2 L 456.6 119.1 L 442.1 119.1 L 442.1 132.2 L 438.3 132.2 L 438.3 103.8 " fill="#000000"/>
<path class="atom-1" d="M 463.9 131.2 Q 464.6 129.4, 466.2 128.4 Q 467.9 127.4, 470.1 127.4 Q 472.9 127.4, 474.5 128.9 Q 476.1 130.5, 476.1 133.2 Q 476.1 136.0, 474.1 138.6 Q 472.0 141.1, 467.8 144.2 L 476.4 144.2 L 476.4 146.3 L 463.8 146.3 L 463.8 144.5 Q 467.3 142.1, 469.4 140.2 Q 471.5 138.4, 472.5 136.7 Q 473.5 135.0, 473.5 133.3 Q 473.5 131.5, 472.6 130.5 Q 471.7 129.5, 470.1 129.5 Q 468.6 129.5, 467.6 130.1 Q 466.6 130.7, 465.9 132.1 L 463.9 131.2 " fill="#000000"/>
<path class="atom-1" d="M 464.0 108.9 L 469.0 108.9 L 469.0 103.7 L 471.2 103.7 L 471.2 108.9 L 476.3 108.9 L 476.3 110.8 L 471.2 110.8 L 471.2 116.1 L 469.0 116.1 L 469.0 110.8 L 464.0 110.8 L 464.0 108.9 " fill="#000000"/>
<path class="atom-0" d="M 277.1,118.0 L 277.1,118.2 L 277.0,118.3 L 277.0,118.5 L 277.0,118.7 L 276.9,118.8 L 276.8,119.0 L 276.7,119.1 L 276.6,119.3 L 276.5,119.4 L 276.4,119.5 L 276.2,119.6 L 276.1,119.7 L 275.9,119.8 L 275.8,119.9 L 275.6,119.9 L 275.5,120.0 L 275.3,120.0 L 275.1,120.0 L 274.9,120.0 L 274.8,120.0 L 274.6,119.9 L 274.4,119.9 L 274.3,119.8 L 274.1,119.8 L 274.0,119.7 L 273.8,119.6 L 273.7,119.5 L 273.6,119.3 L 273.5,119.2 L 273.4,119.1 L 273.3,118.9 L 273.2,118.7 L 273.2,118.6 L 273.1,118.4 L 273.1,118.3 L 273.1,118.1 L 273.1,117.9 L 273.1,117.7 L 273.1,117.6 L 273.2,117.4 L 273.2,117.2 L 273.3,117.1 L 273.4,116.9 L 273.5,116.8 L 273.6,116.7 L 273.7,116.5 L 273.8,116.4 L 274.0,116.3 L 274.1,116.2 L 274.3,116.2 L 274.4,116.1 L 274.6,116.1 L 274.8,116.0 L 274.9,116.0 L 275.1,116.0 L 275.3,116.0 L 275.5,116.0 L 275.6,116.1 L 275.8,116.1 L 275.9,116.2 L 276.1,116.3 L 276.2,116.4 L 276.4,116.5 L 276.5,116.6 L 276.6,116.7 L 276.7,116.9 L 276.8,117.0 L 276.9,117.2 L 277.0,117.3 L 277.0,117.5 L 277.0,117.7 L 277.1,117.8 L 277.1,118.0 L 275.1,118.0 Z" style="fill:#000000;fill-rule:evenodd;fill-opacity:1;stroke:#000000;stroke-width:0.0px;stroke-linecap:butt;stroke-linejoin:miter;stroke-opacity:1;"/>
<path class="bond-0 atom-0 atom-1" d="M 558.0,149.9 L 624.2,111.6" style="fill:none;fill-rule:evenodd;stroke:#000000;stroke-width:2.0px;stroke-linecap:butt;stroke-linejoin:miter;stroke-opacity:1"/>
<path class="bond-0 atom-0 atom-1" d="M 568.8,168.5 L 635.0,130.2" style="fill:none;fill-rule:evenodd;stroke:#000000;stroke-width:2.0px;stroke-linecap:butt;stroke-linejoin:miter;stroke-opacity:1"/>
<path class="bond-1 atom-1 atom-2" d="M 654.8,120.9 L 729.9,164.3" style="fill:none;fill-rule:evenodd;stroke:#000000;stroke-width:2.0px;stroke-linecap:butt;stroke-linejoin:miter;stroke-opacity:1"/>
<path class="atom-0" d="M 512.8 153.3 L 516.6 153.3 L 516.6 165.3 L 531.1 165.3 L 531.1 153.3 L 535.0 153.3 L 535.0 181.6 L 531.1 181.6 L 531.1 168.5 L 516.6 168.5 L 516.6 181.6 L 512.8 181.6 L 512.8 153.3 " fill="#000000"/>
<path class="atom-0" d="M 542.8 153.3 L 552.1 168.3 Q 553.0 169.7, 554.5 172.4 Q 556.0 175.1, 556.1 175.3 L 556.1 153.3 L 559.8 153.3 L 559.8 181.6 L 556.0 181.6 L 546.0 165.2 Q 544.8 163.3, 543.6 161.1 Q 542.4 158.9, 542.0 158.2 L 542.0 181.6 L 538.4 181.6 L 538.4 153.3 L 542.8 153.3 " fill="#000000"/>
<path class="atom-1" d="M 641.5 99.5 Q 646.4 99.5, 648.8 101.7 Q 651.2 103.9, 651.2 107.8 Q 651.2 111.7, 648.7 114.0 Q 646.2 116.2, 641.5 116.2 L 637.0 116.2 L 637.0 127.8 L 633.2 127.8 L 633.2 99.5 L 641.5 99.5 M 641.5 113.0 Q 644.3 113.0, 645.8 111.7 Q 647.2 110.3, 647.2 107.8 Q 647.2 105.3, 645.8 104.0 Q 644.3 102.7, 641.5 102.7 L 637.0 102.7 L 637.0 113.0 L 641.5 113.0 " fill="#000000"/>
<path class="atom-1" d="M 631.1 68.4 L 635.0 68.4 L 635.0 80.4 L 649.4 80.4 L 649.4 68.4 L 653.3 68.4 L 653.3 96.7 L 649.4 96.7 L 649.4 83.6 L 635.0 83.6 L 635.0 96.7 L 631.1 96.7 L 631.1 68.4 " fill="#000000"/>
<path class="atom-1" d="M 656.7 95.7 Q 657.4 93.9, 659.1 92.9 Q 660.7 91.9, 663.0 91.9 Q 665.8 91.9, 667.4 93.5 Q 669.0 95.0, 669.0 97.7 Q 669.0 100.5, 666.9 103.1 Q 664.9 105.7, 660.6 108.7 L 669.3 108.7 L 669.3 110.8 L 656.7 110.8 L 656.7 109.1 Q 660.2 106.6, 662.2 104.7 Q 664.3 102.9, 665.3 101.2 Q 666.3 99.6, 666.3 97.8 Q 666.3 96.1, 665.4 95.1 Q 664.5 94.0, 663.0 94.0 Q 661.5 94.0, 660.5 94.7 Q 659.5 95.3, 658.7 96.6 L 656.7 95.7 " fill="#000000"/>
<path class="atom-2" d="M 733.4 153.2 L 737.2 153.2 L 737.2 181.6 L 733.4 181.6 L 733.4 153.2 " fill="#000000"/>
<path class="bond-0 atom-0 atom-1" d="M 236.6,367.8 L 219.5,376.7" style="fill:none;fill-rule:evenodd;stroke:#000000;stroke-width:2.0px;stroke-linecap:butt;stroke-linejoin:miter;stroke-opacity:1"/>
<path class="bond-0 atom-0 atom-1" d="M 238.6,371.7 L 224.1,379.3" style="fill:none;fill-rule:evenodd;stroke:#000000;stroke-width:2.0px;stroke-linecap:butt;stroke-linejoin:miter;stroke-opacity:1"/>
<path class="bond-0 atom-0 atom-1" d="M 234.5,363.8 L 220.0,371.4" style="fill:none;fill-rule:evenodd;stroke:#000000;stroke-width:2.0px;stroke-linecap:butt;stroke-linejoin:miter;stroke-opacity:1"/>
<path class="bond-1 atom-1 atom-2" d="M 213.9,376.4 L 200.5,367.9" style="fill:none;fill-rule:evenodd;stroke:#000000;stroke-width:2.0px;stroke-linecap:butt;stroke-linejoin:miter;stroke-opacity:1"/>
<path class="bond-2 atom-2 atom-3" d="M 195.0,367.6 L 177.9,376.5" style="fill:none;fill-rule:evenodd;stroke:#000000;stroke-width:2.0px;stroke-linecap:butt;stroke-linejoin:miter;stroke-opacity:1"/>
<path class="bond-2 atom-2 atom-3" d="M 194.5,372.9 L 182.5,379.1" style="fill:none;fill-rule:evenodd;stroke:#000000;stroke-width:2.0px;stroke-linecap:butt;stroke-linejoin:miter;stroke-opacity:1"/>
<path class="bond-3 atom-3 atom-4" d="M 177.9,376.5 L 159.0,364.5" style="fill:none;fill-rule:evenodd;stroke:#000000;stroke-width:2.0px;stroke-linecap:butt;stroke-linejoin:miter;stroke-opacity:1"/>
<path class="bond-4 atom-4 atom-5" d="M 159.0,364.5 L 142.7,373.0" style="fill:none;fill-rule:evenodd;stroke:#000000;stroke-width:2.0px;stroke-linecap:butt;stroke-linejoin:miter;stroke-opacity:1"/>
<path class="bond-5 atom-5 atom-6" d="M 135.4,372.6 L 123.3,364.9" style="fill:none;fill-rule:evenodd;stroke:#000000;stroke-width:2.0px;stroke-linecap:butt;stroke-linejoin:miter;stroke-opacity:1"/>
<path class="bond-6 atom-6 atom-7" d="M 117.0,364.5 L 100.3,373.2" style="fill:none;fill-rule:evenodd;stroke:#000000;stroke-width:2.0px;stroke-linecap:butt;stroke-linejoin:miter;stroke-opacity:1"/>
<path class="bond-6 atom-6 atom-7" d="M 116.6,369.8 L 104.9,375.9" style="fill:none;fill-rule:evenodd;stroke:#000000;stroke-width:2.0px;stroke-linecap:butt;stroke-linejoin:miter;stroke-opacity:1"/>
<path class="bond-7 atom-7 atom-8" d="M 100.3,373.2 L 84.1,363.0" style="fill:none;fill-rule:evenodd;stroke:#000000;stroke-width:2.0px;stroke-linecap:butt;stroke-linejoin:miter;stroke-opacity:1"/>
<path class="bond-8 atom-8 atom-9" d="M 78.6,362.7 L 61.5,371.6" style="fill:none;fill-rule:evenodd;stroke:#000000;stroke-width:2.0px;stroke-linecap:butt;stroke-linejoin:miter;stroke-opacity:1"/>
<path class="bond-9 atom-9 atom-10" d="M 63.7,371.7 L 62.9,390.2" style="fill:none;fill-rule:evenodd;stroke:#000000;stroke-width:2.0px;stroke-linecap:butt;stroke-linejoin:miter;stroke-opacity:1"/>
<path class="bond-9 atom-9 atom-10" d="M 59.2,371.5 L 58.5,390.0" style="fill:none;fill-rule:evenodd;stroke:#000000;stroke-width:2.0px;stroke-linecap:butt;stroke-linejoin:miter;stroke-opacity:1"/>
<path class="bond-10 atom-9 atom-11" d="M 61.5,371.6 L 45.7,361.6" style="fill:none;fill-rule:evenodd;stroke:#000000;stroke-width:2.0px;stroke-linecap:butt;stroke-linejoin:miter;stroke-opacity:1"/>
<path class="bond-11 atom-11 atom-12" d="M 40.4,363.2 L 30.4,368.5" style="fill:none;fill-rule:evenodd;stroke:#000000;stroke-width:2.0px;stroke-linecap:butt;stroke-linejoin:miter;stroke-opacity:1"/>
<path class="bond-11 atom-11 atom-12" d="M 38.4,359.2 L 28.3,364.5" style="fill:none;fill-rule:evenodd;stroke:#000000;stroke-width:2.0px;stroke-linecap:butt;stroke-linejoin:miter;stroke-opacity:1"/>
<path class="atom-1" d="M 214.9 380.3 Q 215.0 380.4, 215.3 380.5 Q 215.6 380.6, 215.9 380.7 Q 216.2 380.8, 216.5 380.8 Q 217.1 380.8, 217.5 380.5 Q 217.8 380.2, 217.8 379.7 Q 217.8 379.3, 217.7 379.1 Q 217.5 378.9, 217.2 378.8 Q 216.9 378.6, 216.5 378.5 Q 215.9 378.3, 215.6 378.2 Q 215.3 378.0, 215.0 377.7 Q 214.8 377.3, 214.8 376.8 Q 214.8 376.0, 215.3 375.5 Q 215.9 375.0, 216.9 375.0 Q 217.7 375.0, 218.5 375.3 L 218.3 376.0 Q 217.5 375.7, 217.0 375.7 Q 216.4 375.7, 216.0 376.0 Q 215.7 376.2, 215.7 376.7 Q 215.7 377.0, 215.9 377.2 Q 216.0 377.4, 216.3 377.5 Q 216.5 377.6, 217.0 377.8 Q 217.5 378.0, 217.9 378.1 Q 218.2 378.3, 218.5 378.7 Q 218.7 379.0, 218.7 379.7 Q 218.7 380.5, 218.1 381.0 Q 217.5 381.5, 216.6 381.5 Q 216.0 381.5, 215.6 381.4 Q 215.2 381.2, 214.7 381.0 L 214.9 380.3 " fill="#000000"/>
<path class="atom-2" d="M 197.6 363.0 Q 198.7 363.0, 199.2 363.4 Q 199.8 363.9, 199.8 364.8 Q 199.8 365.7, 199.2 366.2 Q 198.7 366.7, 197.6 366.7 L 196.6 366.7 L 196.6 369.3 L 195.7 369.3 L 195.7 363.0 L 197.6 363.0 M 197.6 366.0 Q 198.2 366.0, 198.6 365.7 Q 198.9 365.4, 198.9 364.8 Q 198.9 364.3, 198.6 364.0 Q 198.2 363.7, 197.6 363.7 L 196.6 363.7 L 196.6 366.0 L 197.6 366.0 " fill="#000000"/>
<path class="atom-2" d="M 195.3 356.0 L 196.1 356.0 L 196.1 358.7 L 199.4 358.7 L 199.4 356.0 L 200.2 356.0 L 200.2 362.3 L 199.4 362.3 L 199.4 359.4 L 196.1 359.4 L 196.1 362.3 L 195.3 362.3 L 195.3 356.0 " fill="#000000"/>
<path class="atom-5" d="M 136.2 374.9 Q 136.2 373.4, 136.9 372.5 Q 137.7 371.7, 139.1 371.7 Q 140.5 371.7, 141.2 372.5 Q 142.0 373.4, 142.0 374.9 Q 142.0 376.4, 141.2 377.3 Q 140.5 378.2, 139.1 378.2 Q 137.7 378.2, 136.9 377.3 Q 136.2 376.4, 136.2 374.9 M 139.1 377.5 Q 140.1 377.5, 140.6 376.8 Q 141.1 376.2, 141.1 374.9 Q 141.1 373.6, 140.6 373.0 Q 140.1 372.4, 139.1 372.4 Q 138.1 372.4, 137.6 373.0 Q 137.1 373.6, 137.1 374.9 Q 137.1 376.2, 137.6 376.8 Q 138.1 377.5, 139.1 377.5 " fill="#000000"/>
<path class="atom-6" d="M 118.8 359.7 L 120.8 363.0 Q 121.0 363.4, 121.4 364.0 Q 121.7 364.6, 121.7 364.6 L 121.7 359.7 L 122.6 359.7 L 122.6 366.0 L 121.7 366.0 L 119.5 362.4 Q 119.2 361.9, 118.9 361.4 Q 118.7 360.9, 118.6 360.8 L 118.6 366.0 L 117.7 366.0 L 117.7 359.7 L 118.8 359.7 " fill="#000000"/>
<path class="atom-6" d="M 117.7 352.7 L 118.5 352.7 L 118.5 355.4 L 121.8 355.4 L 121.8 352.7 L 122.6 352.7 L 122.6 359.0 L 121.8 359.0 L 121.8 356.1 L 118.5 356.1 L 118.5 359.0 L 117.7 359.0 L 117.7 352.7 " fill="#000000"/>
<path class="atom-6" d="M 123.4 353.8 L 124.5 353.8 L 124.5 352.7 L 125.0 352.7 L 125.0 353.8 L 126.2 353.8 L 126.2 354.3 L 125.0 354.3 L 125.0 355.4 L 124.5 355.4 L 124.5 354.3 L 123.4 354.3 L 123.4 353.8 " fill="#000000"/>
<path class="atom-8" d="M 79.6 363.4 Q 79.6 363.4, 79.9 363.5 Q 80.2 363.7, 80.5 363.8 Q 80.9 363.8, 81.2 363.8 Q 81.8 363.8, 82.2 363.5 Q 82.5 363.2, 82.5 362.7 Q 82.5 362.4, 82.3 362.2 Q 82.2 362.0, 81.9 361.8 Q 81.6 361.7, 81.2 361.6 Q 80.6 361.4, 80.3 361.3 Q 79.9 361.1, 79.7 360.8 Q 79.5 360.4, 79.5 359.8 Q 79.5 359.0, 80.0 358.5 Q 80.5 358.1, 81.6 358.1 Q 82.4 358.1, 83.2 358.4 L 83.0 359.1 Q 82.2 358.8, 81.6 358.8 Q 81.0 358.8, 80.7 359.0 Q 80.3 359.3, 80.4 359.7 Q 80.4 360.1, 80.5 360.3 Q 80.7 360.5, 81.0 360.6 Q 81.2 360.7, 81.6 360.9 Q 82.2 361.0, 82.6 361.2 Q 82.9 361.4, 83.1 361.8 Q 83.4 362.1, 83.4 362.7 Q 83.4 363.6, 82.8 364.1 Q 82.2 364.6, 81.2 364.6 Q 80.7 364.6, 80.2 364.4 Q 79.8 364.3, 79.3 364.1 L 79.6 363.4 " fill="#000000"/>
<path class="atom-10" d="M 58.7 396.2 Q 58.8 396.2, 59.1 396.3 Q 59.4 396.5, 59.7 396.5 Q 60.1 396.6, 60.4 396.6 Q 61.0 396.6, 61.3 396.3 Q 61.7 396.0, 61.7 395.5 Q 61.7 395.2, 61.5 395.0 Q 61.3 394.7, 61.1 394.6 Q 60.8 394.5, 60.3 394.4 Q 59.8 394.2, 59.4 394.0 Q 59.1 393.9, 58.9 393.5 Q 58.6 393.2, 58.6 392.6 Q 58.6 391.8, 59.2 391.3 Q 59.7 390.8, 60.8 390.8 Q 61.5 390.8, 62.4 391.2 L 62.2 391.9 Q 61.4 391.6, 60.8 391.6 Q 60.2 391.6, 59.9 391.8 Q 59.5 392.1, 59.5 392.5 Q 59.5 392.9, 59.7 393.1 Q 59.9 393.3, 60.1 393.4 Q 60.4 393.5, 60.8 393.6 Q 61.4 393.8, 61.7 394.0 Q 62.1 394.2, 62.3 394.5 Q 62.6 394.9, 62.6 395.5 Q 62.6 396.4, 62.0 396.9 Q 61.4 397.3, 60.4 397.3 Q 59.9 397.3, 59.4 397.2 Q 59.0 397.1, 58.5 396.9 L 58.7 396.2 " fill="#000000"/>
<path class="atom-11" d="M 41.2 356.4 L 43.2 359.8 Q 43.4 360.1, 43.8 360.7 Q 44.1 361.3, 44.1 361.3 L 44.1 356.4 L 45.0 356.4 L 45.0 362.8 L 44.1 362.8 L 41.9 359.1 Q 41.6 358.6, 41.3 358.2 Q 41.1 357.7, 41.0 357.5 L 41.0 362.8 L 40.1 362.8 L 40.1 356.4 L 41.2 356.4 " fill="#000000"/>
<path class="atom-12" d="M 11.4 366.8 L 12.2 366.8 L 12.2 369.5 L 15.5 369.5 L 15.5 366.8 L 16.3 366.8 L 16.3 373.1 L 15.5 373.1 L 15.5 370.2 L 12.2 370.2 L 12.2 373.1 L 11.4 373.1 L 11.4 366.8 " fill="#000000"/>
<path class="atom-12" d="M 17.1 372.9 Q 17.3 372.5, 17.6 372.3 Q 18.0 372.1, 18.5 372.1 Q 19.1 372.1, 19.5 372.4 Q 19.8 372.8, 19.8 373.4 Q 19.8 374.0, 19.4 374.6 Q 18.9 375.2, 18.0 375.8 L 19.9 375.8 L 19.9 376.3 L 17.1 376.3 L 17.1 375.9 Q 17.9 375.4, 18.3 374.9 Q 18.8 374.5, 19.0 374.2 Q 19.3 373.8, 19.3 373.4 Q 19.3 373.0, 19.1 372.8 Q 18.9 372.5, 18.5 372.5 Q 18.2 372.5, 17.9 372.7 Q 17.7 372.8, 17.6 373.1 L 17.1 372.9 " fill="#000000"/>
<path class="atom-12" d="M 21.3 366.8 L 23.4 370.2 Q 23.6 370.5, 23.9 371.1 Q 24.2 371.7, 24.2 371.7 L 24.2 366.8 L 25.1 366.8 L 25.1 373.1 L 24.2 373.1 L 22.0 369.5 Q 21.7 369.0, 21.4 368.5 Q 21.2 368.0, 21.1 367.9 L 21.1 373.1 L 20.3 373.1 L 20.3 366.8 L 21.3 366.8 " fill="#000000"/>
<path class="atom-12" d="M 25.8 367.9 L 27.0 367.9 L 27.0 366.8 L 27.4 366.8 L 27.4 367.9 L 28.6 367.9 L 28.6 368.4 L 27.4 368.4 L 27.4 369.5 L 27.0 369.5 L 27.0 368.4 L 25.8 368.4 L 25.8 367.9 " fill="#000000"/>
<path class="atom-2" d="M 202.0,366.1 L 202.0,366.2 L 202.0,366.2 L 202.0,366.2 L 202.0,366.3 L 202.0,366.3 L 202.0,366.3 L 202.0,366.4 L 201.9,366.4 L 201.9,366.4 L 201.9,366.5 L 201.9,366.5 L 201.8,366.5 L 201.8,366.5 L 201.7,366.5 L 201.7,366.6 L 201.7,366.6 L 201.6,366.6 L 201.6,366.6 L 201.6,366.6 L 201.5,366.6 L 201.5,366.6 L 201.4,366.6 L 201.4,366.5 L 201.4,366.5 L 201.3,366.5 L 201.3,366.5 L 201.3,366.5 L 201.3,366.4 L 201.2,366.4 L 201.2,366.4 L 201.2,366.3 L 201.2,366.3 L 201.2,366.3 L 201.2,366.2 L 201.1,366.2 L 201.1,366.1 L 201.1,366.1 L 201.1,366.1 L 201.2,366.0 L 201.2,366.0 L 201.2,366.0 L 201.2,365.9 L 201.2,365.9 L 201.2,365.9 L 201.3,365.8 L 201.3,365.8 L 201.3,365.8 L 201.3,365.8 L 201.4,365.7 L 201.4,365.7 L 201.4,365.7 L 201.5,365.7 L 201.5,365.7 L 201.6,365.7 L 201.6,365.7 L 201.6,365.7 L 201.7,365.7 L 201.7,365.7 L 201.7,365.7 L 201.8,365.7 L 201.8,365.7 L 201.9,365.8 L 201.9,365.8 L 201.9,365.8 L 201.9,365.8 L 202.0,365.9 L 202.0,365.9 L 202.0,365.9 L 202.0,366.0 L 202.0,366.0 L 202.0,366.0 L 202.0,366.1 L 202.0,366.1 L 201.6,366.1 Z" style="fill:#000000;fill-rule:evenodd;fill-opacity:1;stroke:#000000;stroke-width:0.0px;stroke-linecap:butt;stroke-linejoin:miter;stroke-opacity:1;"/>
<path class="atom-4" d="M 159.4,362.5 L 159.4,362.5 L 159.4,362.5 L 159.4,362.6 L 159.4,362.6 L 159.4,362.7 L 159.3,362.7 L 159.3,362.7 L 159.3,362.8 L 159.3,362.8 L 159.2,362.8 L 159.2,362.8 L 159.2,362.9 L 159.2,362.9 L 159.1,362.9 L 159.1,362.9 L 159.0,362.9 L 159.0,362.9 L 159.0,362.9 L 158.9,362.9 L 158.9,362.9 L 158.9,362.9 L 158.8,362.9 L 158.8,362.9 L 158.7,362.9 L 158.7,362.8 L 158.7,362.8 L 158.7,362.8 L 158.6,362.8 L 158.6,362.7 L 158.6,362.7 L 158.6,362.7 L 158.5,362.6 L 158.5,362.6 L 158.5,362.6 L 158.5,362.5 L 158.5,362.5 L 158.5,362.5 L 158.5,362.4 L 158.5,362.4 L 158.5,362.3 L 158.5,362.3 L 158.6,362.3 L 158.6,362.2 L 158.6,362.2 L 158.6,362.2 L 158.7,362.1 L 158.7,362.1 L 158.7,362.1 L 158.7,362.1 L 158.8,362.1 L 158.8,362.0 L 158.9,362.0 L 158.9,362.0 L 158.9,362.0 L 159.0,362.0 L 159.0,362.0 L 159.0,362.0 L 159.1,362.0 L 159.1,362.1 L 159.2,362.1 L 159.2,362.1 L 159.2,362.1 L 159.2,362.1 L 159.3,362.2 L 159.3,362.2 L 159.3,362.2 L 159.3,362.3 L 159.4,362.3 L 159.4,362.3 L 159.4,362.4 L 159.4,362.4 L 159.4,362.4 L 159.4,362.5 L 159.0,362.5 Z" style="fill:#000000;fill-rule:evenodd;fill-opacity:1;stroke:#000000;stroke-width:0.0px;stroke-linecap:butt;stroke-linejoin:miter;stroke-opacity:1;"/>
<path class="bond-0 atom-0 atom-1" d="M 457.5,361.5 L 410.7,381.4" style="fill:none;fill-rule:evenodd;stroke:#000000;stroke-width:2.0px;stroke-linecap:butt;stroke-linejoin:miter;stroke-opacity:1"/>
<path class="bond-1 atom-1 atom-2" d="M 389.4,378.0 L 348.9,347.4" style="fill:none;fill-rule:evenodd;stroke:#000000;stroke-width:2.0px;stroke-linecap:butt;stroke-linejoin:miter;stroke-opacity:1"/>
<path class="bond-2 atom-2 atom-3" d="M 330.1,344.4 L 289.0,361.8" style="fill:none;fill-rule:evenodd;stroke:#000000;stroke-width:2.0px;stroke-linecap:butt;stroke-linejoin:miter;stroke-opacity:1"/>
<path class="atom-0" d="M 460.0 356.3 Q 460.0 351.2, 462.6 348.3 Q 465.1 345.4, 469.9 345.4 Q 474.7 345.4, 477.2 348.3 Q 479.8 351.2, 479.8 356.3 Q 479.8 361.5, 477.2 364.5 Q 474.6 367.5, 469.9 367.5 Q 465.2 367.5, 462.6 364.5 Q 460.0 361.6, 460.0 356.3 M 469.9 365.0 Q 473.2 365.0, 474.9 362.8 Q 476.7 360.6, 476.7 356.3 Q 476.7 352.1, 474.9 350.0 Q 473.2 347.8, 469.9 347.8 Q 466.6 347.8, 464.8 350.0 Q 463.1 352.1, 463.1 356.3 Q 463.1 360.7, 464.8 362.8 Q 466.6 365.0, 469.9 365.0 " fill="#000000"/>
<path class="atom-0" d="M 481.3 348.9 L 488.6 348.9 L 488.6 350.5 L 481.3 350.5 L 481.3 348.9 " fill="#000000"/>
<path class="atom-1" d="M 395.3 375.2 L 402.4 386.6 Q 403.1 387.7, 404.2 389.8 Q 405.3 391.8, 405.4 391.9 L 405.4 375.2 L 408.2 375.2 L 408.2 396.7 L 405.3 396.7 L 397.7 384.3 Q 396.9 382.8, 395.9 381.1 Q 395.0 379.5, 394.7 379.0 L 394.7 396.7 L 391.9 396.7 L 391.9 375.2 L 395.3 375.2 " fill="#000000"/>
<path class="atom-1" d="M 391.7 398.9 L 394.6 398.9 L 394.6 408.0 L 405.6 408.0 L 405.6 398.9 L 408.5 398.9 L 408.5 420.3 L 405.6 420.3 L 405.6 410.4 L 394.6 410.4 L 394.6 420.3 L 391.7 420.3 L 391.7 398.9 " fill="#000000"/>
<path class="atom-2" d="M 333.4 347.7 Q 333.6 347.8, 334.6 348.3 Q 335.6 348.7, 336.7 349.0 Q 337.9 349.2, 338.9 349.2 Q 341.0 349.2, 342.2 348.2 Q 343.3 347.2, 343.3 345.5 Q 343.3 344.3, 342.7 343.6 Q 342.2 342.9, 341.3 342.5 Q 340.3 342.1, 338.8 341.6 Q 336.9 341.0, 335.8 340.5 Q 334.6 339.9, 333.8 338.8 Q 333.0 337.6, 333.0 335.7 Q 333.0 333.0, 334.8 331.3 Q 336.7 329.7, 340.3 329.7 Q 342.8 329.7, 345.7 330.8 L 345.0 333.2 Q 342.4 332.1, 340.4 332.1 Q 338.3 332.1, 337.2 333.0 Q 336.0 333.8, 336.1 335.3 Q 336.1 336.5, 336.6 337.2 Q 337.2 337.9, 338.1 338.3 Q 339.0 338.7, 340.4 339.1 Q 342.4 339.7, 343.5 340.3 Q 344.7 340.9, 345.5 342.2 Q 346.3 343.4, 346.3 345.5 Q 346.3 348.5, 344.3 350.1 Q 342.4 351.7, 339.1 351.7 Q 337.2 351.7, 335.7 351.2 Q 334.3 350.8, 332.6 350.1 L 333.4 347.7 " fill="#000000"/>
<path class="atom-3" d="M 261.4 370.2 Q 261.4 364.8, 263.9 362.0 Q 266.4 359.2, 271.1 359.2 Q 275.6 359.2, 277.9 362.3 L 275.9 364.0 Q 274.2 361.7, 271.1 361.7 Q 267.9 361.7, 266.2 363.9 Q 264.5 366.0, 264.5 370.2 Q 264.5 374.4, 266.2 376.6 Q 268.0 378.8, 271.5 378.8 Q 273.8 378.8, 276.6 377.4 L 277.4 379.6 Q 276.3 380.4, 274.6 380.8 Q 272.9 381.2, 271.0 381.2 Q 266.4 381.2, 263.9 378.4 Q 261.4 375.5, 261.4 370.2 " fill="#000000"/>
<path class="atom-3" d="M 279.1 362.7 L 286.5 362.7 L 286.5 364.3 L 279.1 364.3 L 279.1 362.7 " fill="#000000"/>
<path class="bond-0 atom-0 atom-1" d="M 519.1,374.8 L 697.3,374.8" style="fill:none;fill-rule:evenodd;stroke:#000000;stroke-width:2.0px;stroke-linecap:butt;stroke-linejoin:miter;stroke-opacity:1"/>
<path class="atom-1" d="M 703.8 375.8 Q 703.8 368.8, 707.1 365.1 Q 710.4 361.4, 716.7 361.4 Q 722.5 361.4, 725.6 365.5 L 723.0 367.6 Q 720.7 364.6, 716.7 364.6 Q 712.4 364.6, 710.1 367.5 Q 707.9 370.4, 707.9 375.8 Q 707.9 381.4, 710.2 384.3 Q 712.5 387.2, 717.1 387.2 Q 720.2 387.2, 723.9 385.3 L 725.0 388.3 Q 723.5 389.2, 721.3 389.8 Q 719.0 390.4, 716.5 390.4 Q 710.4 390.4, 707.1 386.6 Q 703.8 382.8, 703.8 375.8 " fill="#000000"/>
<path class="atom-1" d="M 727.2 359.6 L 730.9 359.6 L 730.9 390.0 L 727.2 390.0 L 727.2 359.6 " fill="#000000"/>
<path class="bond-0 atom-0 atom-1" d="M 104.8,618.3 L 194.9,618.3" style="fill:none;fill-rule:evenodd;stroke:#000000;stroke-width:2.0px;stroke-linecap:butt;stroke-linejoin:miter;stroke-opacity:1"/>
<path class="atom-0" d="M 23.5 604.1 L 27.3 604.1 L 27.3 616.2 L 41.8 616.2 L 41.8 604.1 L 45.6 604.1 L 45.6 632.5 L 41.8 632.5 L 41.8 619.4 L 27.3 619.4 L 27.3 632.5 L 23.5 632.5 L 23.5 604.1 " fill="#000000"/>
<path class="atom-0" d="M 58.0 636.8 Q 59.8 637.3, 60.7 638.5 Q 61.6 639.6, 61.6 641.5 Q 61.6 643.1, 60.8 644.3 Q 60.0 645.5, 58.6 646.2 Q 57.1 646.9, 55.2 646.9 Q 53.2 646.9, 51.7 646.2 Q 50.2 645.5, 49.0 644.1 L 50.6 642.5 Q 51.7 643.8, 52.7 644.3 Q 53.7 644.8, 55.2 644.8 Q 56.9 644.8, 57.9 643.9 Q 59.0 642.9, 59.0 641.5 Q 59.0 639.6, 57.9 638.7 Q 56.8 637.9, 54.5 637.9 L 53.2 637.9 L 53.2 636.0 L 54.4 636.0 Q 56.4 635.9, 57.5 635.1 Q 58.6 634.2, 58.6 632.5 Q 58.6 631.3, 57.7 630.6 Q 56.8 629.8, 55.3 629.8 Q 53.7 629.8, 52.7 630.4 Q 51.8 630.9, 51.0 632.3 L 49.2 631.4 Q 49.9 629.8, 51.5 628.8 Q 53.0 627.7, 55.3 627.7 Q 58.0 627.7, 59.6 629.0 Q 61.2 630.3, 61.2 632.5 Q 61.2 634.0, 60.4 635.1 Q 59.6 636.2, 58.0 636.8 " fill="#000000"/>
<path class="atom-0" d="M 67.7 604.1 L 76.9 619.1 Q 77.9 620.6, 79.3 623.3 Q 80.8 626.0, 80.9 626.1 L 80.9 604.1 L 84.7 604.1 L 84.7 632.5 L 80.8 632.5 L 70.8 616.1 Q 69.7 614.1, 68.4 611.9 Q 67.2 609.7, 66.9 609.1 L 66.9 632.5 L 63.2 632.5 L 63.2 604.1 L 67.7 604.1 " fill="#000000"/>
<path class="atom-0" d="M 88.0 609.2 L 93.0 609.2 L 93.0 604.0 L 95.2 604.0 L 95.2 609.2 L 100.3 609.2 L 100.3 611.1 L 95.2 611.1 L 95.2 616.4 L 93.0 616.4 L 93.0 611.1 L 88.0 611.1 L 88.0 609.2 " fill="#000000"/>
<path class="atom-1" d="M 199.4 619.3 Q 199.4 612.2, 202.7 608.6 Q 206.0 604.8, 212.3 604.8 Q 218.1 604.8, 221.2 609.0 L 218.6 611.1 Q 216.3 608.1, 212.3 608.1 Q 208.0 608.1, 205.7 611.0 Q 203.5 613.8, 203.5 619.3 Q 203.5 624.9, 205.8 627.8 Q 208.2 630.6, 212.7 630.6 Q 215.8 630.6, 219.5 628.8 L 220.6 631.8 Q 219.1 632.7, 216.9 633.3 Q 214.6 633.8, 212.2 633.8 Q 206.0 633.8, 202.7 630.1 Q 199.4 626.3, 199.4 619.3 " fill="#000000"/>
<path class="atom-1" d="M 222.8 603.1 L 226.5 603.1 L 226.5 633.5 L 222.8 633.5 L 222.8 603.1 " fill="#000000"/>
<path class="atom-0" d="M 360.3 624.9 Q 360.3 617.9, 363.6 614.2 Q 366.9 610.5, 373.2 610.5 Q 379.0 610.5, 382.2 614.6 L 379.5 616.8 Q 377.2 613.8, 373.2 613.8 Q 368.9 613.8, 366.6 616.7 Q 364.4 619.5, 364.4 624.9 Q 364.4 630.5, 366.7 633.4 Q 369.1 636.3, 373.6 636.3 Q 376.8 636.3, 380.4 634.4 L 381.5 637.4 Q 380.0 638.4, 377.8 638.9 Q 375.6 639.5, 373.1 639.5 Q 366.9 639.5, 363.6 635.7 Q 360.3 632.0, 360.3 624.9 " fill="#000000"/>
<path class="atom-0" d="M 390.2,636.8 L 390.2,637.0 L 390.1,637.2 L 390.1,637.3 L 390.1,637.5 L 390.0,637.7 L 389.9,637.8 L 389.8,638.0 L 389.7,638.1 L 389.6,638.2 L 389.5,638.3 L 389.3,638.4 L 389.2,638.5 L 389.0,638.6 L 388.9,638.7 L 388.7,638.7 L 388.6,638.8 L 388.4,638.8 L 388.2,638.8 L 388.0,638.8 L 387.9,638.8 L 387.7,638.8 L 387.5,638.7 L 387.4,638.7 L 387.2,638.6 L 387.1,638.5 L 386.9,638.4 L 386.8,638.3 L 386.7,638.2 L 386.6,638.0 L 386.5,637.9 L 386.4,637.7 L 386.3,637.6 L 386.3,637.4 L 386.2,637.2 L 386.2,637.1 L 386.2,636.9 L 386.2,636.7 L 386.2,636.6 L 386.2,636.4 L 386.3,636.2 L 386.3,636.1 L 386.4,635.9 L 386.5,635.8 L 386.6,635.6 L 386.7,635.5 L 386.8,635.4 L 386.9,635.2 L 387.1,635.1 L 387.2,635.1 L 387.4,635.0 L 387.5,634.9 L 387.7,634.9 L 387.9,634.8 L 388.0,634.8 L 388.2,634.8 L 388.4,634.8 L 388.6,634.9 L 388.7,634.9 L 388.9,635.0 L 389.0,635.0 L 389.2,635.1 L 389.3,635.2 L 389.5,635.3 L 389.6,635.4 L 389.7,635.5 L 389.8,635.7 L 389.9,635.8 L 390.0,636.0 L 390.1,636.1 L 390.1,636.3 L 390.1,636.5 L 390.2,636.6 L 390.2,636.8 L 388.2,636.8 Z" style="fill:#000000;fill-rule:evenodd;fill-opacity:1;stroke:#000000;stroke-width:0.0px;stroke-linecap:butt;stroke-linejoin:miter;stroke-opacity:1;"/>
<path class="atom-0" d="M 390.2,612.8 L 390.2,613.0 L 390.1,613.2 L 390.1,613.3 L 390.1,613.5 L 390.0,613.7 L 389.9,613.8 L 389.8,614.0 L 389.7,614.1 L 389.6,614.2 L 389.5,614.3 L 389.3,614.4 L 389.2,614.5 L 389.0,614.6 L 388.9,614.7 L 388.7,614.7 L 388.6,614.8 L 388.4,614.8 L 388.2,614.8 L 388.0,614.8 L 387.9,614.8 L 387.7,614.8 L 387.5,614.7 L 387.4,614.7 L 387.2,614.6 L 387.1,614.5 L 386.9,614.4 L 386.8,614.3 L 386.7,614.2 L 386.6,614.0 L 386.5,613.9 L 386.4,613.7 L 386.3,613.6 L 386.3,613.4 L 386.2,613.2 L 386.2,613.1 L 386.2,612.9 L 386.2,612.7 L 386.2,612.6 L 386.2,612.4 L 386.3,612.2 L 386.3,612.1 L 386.4,611.9 L 386.5,611.8 L 386.6,611.6 L 386.7,611.5 L 386.8,611.4 L 386.9,611.2 L 387.1,611.1 L 387.2,611.1 L 387.4,611.0 L 387.5,610.9 L 387.7,610.9 L 387.9,610.8 L 388.0,610.8 L 388.2,610.8 L 388.4,610.8 L 388.6,610.9 L 388.7,610.9 L 388.9,611.0 L 389.0,611.0 L 389.2,611.1 L 389.3,611.2 L 389.5,611.3 L 389.6,611.4 L 389.7,611.5 L 389.8,611.7 L 389.9,611.8 L 390.0,612.0 L 390.1,612.1 L 390.1,612.3 L 390.1,612.5 L 390.2,612.6 L 390.2,612.8 L 388.2,612.8 Z" style="fill:#000000;fill-rule:evenodd;fill-opacity:1;stroke:#000000;stroke-width:0.0px;stroke-linecap:butt;stroke-linejoin:miter;stroke-opacity:1;"/>
<path class="atom-0" d="M 390.2,628.8 L 390.2,629.0 L 390.1,629.2 L 390.1,629.3 L 390.1,629.5 L 390.0,629.7 L 389.9,629.8 L 389.8,630.0 L 389.7,630.1 L 389.6,630.2 L 389.5,630.3 L 389.3,630.4 L 389.2,630.5 L 389.0,630.6 L 388.9,630.7 L 388.7,630.7 L 388.6,630.8 L 388.4,630.8 L 388.2,630.8 L 388.0,630.8 L 387.9,630.8 L 387.7,630.8 L 387.5,630.7 L 387.4,630.7 L 387.2,630.6 L 387.1,630.5 L 386.9,630.4 L 386.8,630.3 L 386.7,630.2 L 386.6,630.0 L 386.5,629.9 L 386.4,629.7 L 386.3,629.6 L 386.3,629.4 L 386.2,629.2 L 386.2,629.1 L 386.2,628.9 L 386.2,628.7 L 386.2,628.6 L 386.2,628.4 L 386.3,628.2 L 386.3,628.1 L 386.4,627.9 L 386.5,627.8 L 386.6,627.6 L 386.7,627.5 L 386.8,627.4 L 386.9,627.2 L 387.1,627.1 L 387.2,627.1 L 387.4,627.0 L 387.5,626.9 L 387.7,626.9 L 387.9,626.8 L 388.0,626.8 L 388.2,626.8 L 388.4,626.8 L 388.6,626.9 L 388.7,626.9 L 388.9,627.0 L 389.0,627.0 L 389.2,627.1 L 389.3,627.2 L 389.5,627.3 L 389.6,627.4 L 389.7,627.5 L 389.8,627.7 L 389.9,627.8 L 390.0,628.0 L 390.1,628.1 L 390.1,628.3 L 390.1,628.5 L 390.2,628.6 L 390.2,628.8 L 388.2,628.8 Z" style="fill:#000000;fill-rule:evenodd;fill-opacity:1;stroke:#000000;stroke-width:0.0px;stroke-linecap:butt;stroke-linejoin:miter;stroke-opacity:1;"/>
<path class="atom-0" d="M 390.2,620.8 L 390.2,621.0 L 390.1,621.2 L 390.1,621.3 L 390.1,621.5 L 390.0,621.7 L 389.9,621.8 L 389.8,622.0 L 389.7,622.1 L 389.6,622.2 L 389.5,622.3 L 389.3,622.4 L 389.2,622.5 L 389.0,622.6 L 388.9,622.7 L 388.7,622.7 L 388.6,622.8 L 388.4,622.8 L 388.2,622.8 L 388.0,622.8 L 387.9,622.8 L 387.7,622.8 L 387.5,622.7 L 387.4,622.7 L 387.2,622.6 L 387.1,622.5 L 386.9,622.4 L 386.8,622.3 L 386.7,622.2 L 386.6,622.0 L 386.5,621.9 L 386.4,621.7 L 386.3,621.6 L 386.3,621.4 L 386.2,621.2 L 386.2,621.1 L 386.2,620.9 L 386.2,620.7 L 386.2,620.6 L 386.2,620.4 L 386.3,620.2 L 386.3,620.1 L 386.4,619.9 L 386.5,619.8 L 386.6,619.6 L 386.7,619.5 L 386.8,619.4 L 386.9,619.2 L 387.1,619.1 L 387.2,619.1 L 387.4,619.0 L 387.5,618.9 L 387.7,618.9 L 387.9,618.8 L 388.0,618.8 L 388.2,618.8 L 388.4,618.8 L 388.6,618.9 L 388.7,618.9 L 388.9,619.0 L 389.0,619.0 L 389.2,619.1 L 389.3,619.2 L 389.5,619.3 L 389.6,619.4 L 389.7,619.5 L 389.8,619.7 L 389.9,619.8 L 390.0,620.0 L 390.1,620.1 L 390.1,620.3 L 390.1,620.5 L 390.2,620.6 L 390.2,620.8 L 388.2,620.8 Z" style="fill:#000000;fill-rule:evenodd;fill-opacity:1;stroke:#000000;stroke-width:0.0px;stroke-linecap:butt;stroke-linejoin:miter;stroke-opacity:1;"/>
<path class="bond-0 atom-0 atom-1" d="M 526.6,668.0 L 609.2,620.3" style="fill:none;fill-rule:evenodd;stroke:#000000;stroke-width:2.0px;stroke-linecap:butt;stroke-linejoin:miter;stroke-opacity:1"/>
<path class="bond-1 atom-1 atom-2" d="M 638.1,620.3 L 706.0,659.5" style="fill:none;fill-rule:evenodd;stroke:#000000;stroke-width:2.0px;stroke-linecap:butt;stroke-linejoin:miter;stroke-opacity:1"/>
<path class="atom-1" d="M 617.4 597.8 L 626.7 612.8 Q 627.6 614.3, 629.1 617.0 Q 630.6 619.6, 630.6 619.8 L 630.6 597.8 L 634.4 597.8 L 634.4 626.1 L 630.5 626.1 L 620.6 609.7 Q 619.4 607.8, 618.1 605.6 Q 617.0 603.4, 616.6 602.7 L 616.6 626.1 L 612.9 626.1 L 612.9 597.8 L 617.4 597.8 " fill="#000000"/>
<path class="atom-1" d="M 612.6 566.6 L 616.4 566.6 L 616.4 578.7 L 630.9 578.7 L 630.9 566.6 L 634.7 566.6 L 634.7 595.0 L 630.9 595.0 L 630.9 581.9 L 616.4 581.9 L 616.4 595.0 L 612.6 595.0 L 612.6 566.6 " fill="#000000"/>
<path class="atom-1" d="M 638.2 594.0 Q 638.9 592.2, 640.5 591.2 Q 642.1 590.2, 644.4 590.2 Q 647.2 590.2, 648.8 591.8 Q 650.4 593.3, 650.4 596.0 Q 650.4 598.8, 648.3 601.4 Q 646.3 604.0, 642.1 607.0 L 650.7 607.0 L 650.7 609.1 L 638.1 609.1 L 638.1 607.4 Q 641.6 604.9, 643.7 603.0 Q 645.8 601.2, 646.8 599.5 Q 647.8 597.9, 647.8 596.1 Q 647.8 594.3, 646.9 593.3 Q 646.0 592.3, 644.4 592.3 Q 642.9 592.3, 641.9 592.9 Q 640.9 593.6, 640.2 594.9 L 638.2 594.0 " fill="#000000"/>
<path class="atom-1" d="M 638.3 571.8 L 643.3 571.8 L 643.3 566.5 L 645.5 566.5 L 645.5 571.8 L 650.6 571.8 L 650.6 573.7 L 645.5 573.7 L 645.5 578.9 L 643.3 578.9 L 643.3 573.7 L 638.3 573.7 L 638.3 571.8 " fill="#000000"/>
<path class="atom-2" d="M 709.7 668.9 Q 709.7 661.9, 713.0 658.2 Q 716.3 654.5, 722.6 654.5 Q 728.5 654.5, 731.6 658.6 L 728.9 660.8 Q 726.7 657.8, 722.6 657.8 Q 718.3 657.8, 716.1 660.7 Q 713.8 663.5, 713.8 668.9 Q 713.8 674.5, 716.1 677.4 Q 718.5 680.3, 723.1 680.3 Q 726.2 680.3, 729.8 678.4 L 730.9 681.4 Q 729.5 682.4, 727.2 682.9 Q 725.0 683.5, 722.5 683.5 Q 716.3 683.5, 713.0 679.7 Q 709.7 676.0, 709.7 668.9 " fill="#000000"/>
<path class="atom-2" d="M 733.2 652.8 L 736.9 652.8 L 736.9 683.1 L 733.2 683.1 L 733.2 652.8 " fill="#000000"/>
<path class="atom-0" d="M 516.6,672.0 L 516.6,672.1 L 516.6,672.3 L 516.6,672.5 L 516.5,672.6 L 516.5,672.8 L 516.4,673.0 L 516.3,673.1 L 516.2,673.2 L 516.1,673.4 L 516.0,673.5 L 515.8,673.6 L 515.7,673.7 L 515.5,673.8 L 515.4,673.8 L 515.2,673.9 L 515.0,673.9 L 514.9,674.0 L 514.7,674.0 L 514.5,674.0 L 514.3,673.9 L 514.2,673.9 L 514.0,673.9 L 513.9,673.8 L 513.7,673.7 L 513.5,673.6 L 513.4,673.5 L 513.3,673.4 L 513.2,673.3 L 513.0,673.2 L 513.0,673.0 L 512.9,672.9 L 512.8,672.7 L 512.7,672.6 L 512.7,672.4 L 512.7,672.2 L 512.6,672.0 L 512.6,671.9 L 512.7,671.7 L 512.7,671.5 L 512.7,671.4 L 512.8,671.2 L 512.9,671.1 L 513.0,670.9 L 513.0,670.8 L 513.2,670.6 L 513.3,670.5 L 513.4,670.4 L 513.5,670.3 L 513.7,670.2 L 513.9,670.1 L 514.0,670.1 L 514.2,670.0 L 514.3,670.0 L 514.5,670.0 L 514.7,670.0 L 514.9,670.0 L 515.0,670.0 L 515.2,670.0 L 515.4,670.1 L 515.5,670.2 L 515.7,670.2 L 515.8,670.3 L 516.0,670.4 L 516.1,670.6 L 516.2,670.7 L 516.3,670.8 L 516.4,671.0 L 516.5,671.1 L 516.5,671.3 L 516.6,671.5 L 516.6,671.6 L 516.6,671.8 L 516.6,672.0 L 514.6,672.0 Z" style="fill:#000000;fill-rule:evenodd;fill-opacity:1;stroke:#000000;stroke-width:0.0px;stroke-linecap:butt;stroke-linejoin:miter;stroke-opacity:1;"/>
<path class="atom-0" d="M 516.6,664.0 L 516.6,664.1 L 516.6,664.3 L 516.6,664.5 L 516.5,664.6 L 516.5,664.8 L 516.4,665.0 L 516.3,665.1 L 516.2,665.2 L 516.1,665.4 L 516.0,665.5 L 515.8,665.6 L 515.7,665.7 L 515.5,665.8 L 515.4,665.8 L 515.2,665.9 L 515.0,665.9 L 514.9,666.0 L 514.7,666.0 L 514.5,666.0 L 514.3,665.9 L 514.2,665.9 L 514.0,665.9 L 513.9,665.8 L 513.7,665.7 L 513.5,665.6 L 513.4,665.5 L 513.3,665.4 L 513.2,665.3 L 513.0,665.2 L 513.0,665.0 L 512.9,664.9 L 512.8,664.7 L 512.7,664.6 L 512.7,664.4 L 512.7,664.2 L 512.6,664.0 L 512.6,663.9 L 512.7,663.7 L 512.7,663.5 L 512.7,663.4 L 512.8,663.2 L 512.9,663.1 L 513.0,662.9 L 513.0,662.8 L 513.2,662.6 L 513.3,662.5 L 513.4,662.4 L 513.5,662.3 L 513.7,662.2 L 513.9,662.1 L 514.0,662.1 L 514.2,662.0 L 514.3,662.0 L 514.5,662.0 L 514.7,662.0 L 514.9,662.0 L 515.0,662.0 L 515.2,662.0 L 515.4,662.1 L 515.5,662.2 L 515.7,662.2 L 515.8,662.3 L 516.0,662.4 L 516.1,662.6 L 516.2,662.7 L 516.3,662.8 L 516.4,663.0 L 516.5,663.1 L 516.5,663.3 L 516.6,663.5 L 516.6,663.6 L 516.6,663.8 L 516.6,664.0 L 514.6,664.0 Z" style="fill:#000000;fill-rule:evenodd;fill-opacity:1;stroke:#000000;stroke-width:0.0px;stroke-linecap:butt;stroke-linejoin:miter;stroke-opacity:1;"/>
</svg>