<svg xmlns="http://www.w3.org/2000/svg" xmlns:rdkit="http://www.rdkit.org/xml" xmlns:xlink="http://www.w3.org/1999/xlink" version="1.1" baseProfile="full" xml:space="preserve" width="750px" height="750px" viewBox="0 0 750 750">
<!-- END OF HEADER -->
<rect style="opacity:1.0;fill:#FFFFFF;stroke:none" width="750.0" height="750.0" x="0.0" y="0.0"> </rect>
<path class="bond-0 atom-0 atom-1" d="M 162.2,136.3 L 181.2,143.1" style="fill:none;fill-rule:evenodd;stroke:#000000;stroke-width:2.0px;stroke-linecap:butt;stroke-linejoin:miter;stroke-opacity:1"/>
<path class="bond-1 atom-1 atom-2" d="M 181.2,143.1 L 199.0,128.1" style="fill:none;fill-rule:evenodd;stroke:#000000;stroke-width:2.0px;stroke-linecap:butt;stroke-linejoin:miter;stroke-opacity:1"/>
<path class="bond-2 atom-2 atom-3" d="M 199.0,128.1 L 220.9,136.0" style="fill:none;fill-rule:evenodd;stroke:#000000;stroke-width:2.0px;stroke-linecap:butt;stroke-linejoin:miter;stroke-opacity:1"/>
<path class="bond-2 atom-2 atom-3" d="M 203.8,124.9 L 219.2,130.4" style="fill:none;fill-rule:evenodd;stroke:#000000;stroke-width:2.0px;stroke-linecap:butt;stroke-linejoin:miter;stroke-opacity:1"/>
<path class="bond-3 atom-3 atom-4" d="M 220.9,136.0 L 238.6,121.0" style="fill:none;fill-rule:evenodd;stroke:#000000;stroke-width:2.0px;stroke-linecap:butt;stroke-linejoin:miter;stroke-opacity:1"/>
<path class="bond-4 atom-4 atom-5" d="M 238.6,121.0 L 234.5,98.1" style="fill:none;fill-rule:evenodd;stroke:#000000;stroke-width:2.0px;stroke-linecap:butt;stroke-linejoin:miter;stroke-opacity:1"/>
<path class="bond-4 atom-4 atom-5" d="M 233.4,118.4 L 230.6,102.3" style="fill:none;fill-rule:evenodd;stroke:#000000;stroke-width:2.0px;stroke-linecap:butt;stroke-linejoin:miter;stroke-opacity:1"/>
<path class="bond-5 atom-5 atom-6" d="M 234.5,98.1 L 212.6,90.2" style="fill:none;fill-rule:evenodd;stroke:#000000;stroke-width:2.0px;stroke-linecap:butt;stroke-linejoin:miter;stroke-opacity:1"/>
<path class="bond-6 atom-6 atom-7" d="M 212.6,90.2 L 194.9,105.2" style="fill:none;fill-rule:evenodd;stroke:#000000;stroke-width:2.0px;stroke-linecap:butt;stroke-linejoin:miter;stroke-opacity:1"/>
<path class="bond-6 atom-6 atom-7" d="M 213.0,96.0 L 200.5,106.5" style="fill:none;fill-rule:evenodd;stroke:#000000;stroke-width:2.0px;stroke-linecap:butt;stroke-linejoin:miter;stroke-opacity:1"/>
<path class="bond-7 atom-7 atom-8" d="M 194.9,105.2 L 175.7,98.3" style="fill:none;fill-rule:evenodd;stroke:#000000;stroke-width:2.0px;stroke-linecap:butt;stroke-linejoin:miter;stroke-opacity:1"/>
<path class="bond-8 atom-0 atom-9" d="M 156.4,137.7 L 141.6,150.3" style="fill:none;fill-rule:evenodd;stroke:#000000;stroke-width:2.0px;stroke-linecap:butt;stroke-linejoin:miter;stroke-opacity:1"/>
<path class="bond-9 atom-9 atom-10" d="M 141.6,150.3 L 133.7,172.2" style="fill:none;fill-rule:evenodd;stroke:#000000;stroke-width:2.0px;stroke-linecap:butt;stroke-linejoin:miter;stroke-opacity:1"/>
<path class="bond-10 atom-10 atom-11" d="M 133.7,172.2 L 118.7,154.4" style="fill:none;fill-rule:evenodd;stroke:#000000;stroke-width:2.0px;stroke-linecap:butt;stroke-linejoin:miter;stroke-opacity:1"/>
<path class="bond-11 atom-11 atom-12" d="M 118.7,154.4 L 96.8,146.5" style="fill:none;fill-rule:evenodd;stroke:#000000;stroke-width:2.0px;stroke-linecap:butt;stroke-linejoin:miter;stroke-opacity:1"/>
<path class="bond-11 atom-11 atom-12" d="M 113.8,157.6 L 98.5,152.1" style="fill:none;fill-rule:evenodd;stroke:#000000;stroke-width:2.0px;stroke-linecap:butt;stroke-linejoin:miter;stroke-opacity:1"/>
<path class="bond-12 atom-12 atom-13" d="M 96.8,146.5 L 92.6,123.6" style="fill:none;fill-rule:evenodd;stroke:#000000;stroke-width:2.0px;stroke-linecap:butt;stroke-linejoin:miter;stroke-opacity:1"/>
<path class="bond-13 atom-13 atom-14" d="M 92.6,123.6 L 110.4,108.6" style="fill:none;fill-rule:evenodd;stroke:#000000;stroke-width:2.0px;stroke-linecap:butt;stroke-linejoin:miter;stroke-opacity:1"/>
<path class="bond-13 atom-13 atom-14" d="M 92.3,117.8 L 104.7,107.3" style="fill:none;fill-rule:evenodd;stroke:#000000;stroke-width:2.0px;stroke-linecap:butt;stroke-linejoin:miter;stroke-opacity:1"/>
<path class="bond-14 atom-14 atom-15" d="M 110.4,108.6 L 106.3,85.7" style="fill:none;fill-rule:evenodd;stroke:#000000;stroke-width:2.0px;stroke-linecap:butt;stroke-linejoin:miter;stroke-opacity:1"/>
<path class="bond-15 atom-15 atom-16" d="M 106.3,85.7 L 84.4,77.8" style="fill:none;fill-rule:evenodd;stroke:#000000;stroke-width:2.0px;stroke-linecap:butt;stroke-linejoin:miter;stroke-opacity:1"/>
<path class="bond-15 atom-15 atom-16" d="M 101.4,88.9 L 86.1,83.4" style="fill:none;fill-rule:evenodd;stroke:#000000;stroke-width:2.0px;stroke-linecap:butt;stroke-linejoin:miter;stroke-opacity:1"/>
<path class="bond-16 atom-16 atom-17" d="M 84.4,77.8 L 66.6,92.9" style="fill:none;fill-rule:evenodd;stroke:#000000;stroke-width:2.0px;stroke-linecap:butt;stroke-linejoin:miter;stroke-opacity:1"/>
<path class="bond-17 atom-17 atom-18" d="M 66.6,92.9 L 70.7,115.8" style="fill:none;fill-rule:evenodd;stroke:#000000;stroke-width:2.0px;stroke-linecap:butt;stroke-linejoin:miter;stroke-opacity:1"/>
<path class="bond-17 atom-17 atom-18" d="M 71.8,95.5 L 74.7,111.5" style="fill:none;fill-rule:evenodd;stroke:#000000;stroke-width:2.0px;stroke-linecap:butt;stroke-linejoin:miter;stroke-opacity:1"/>
<path class="bond-18 atom-18 atom-19" d="M 70.7,115.8 L 56.8,127.6" style="fill:none;fill-rule:evenodd;stroke:#000000;stroke-width:2.0px;stroke-linecap:butt;stroke-linejoin:miter;stroke-opacity:1"/>
<path class="bond-19 atom-19 atom-20" d="M 49.2,129.4 L 31.1,122.9" style="fill:none;fill-rule:evenodd;stroke:#000000;stroke-width:2.0px;stroke-linecap:butt;stroke-linejoin:miter;stroke-opacity:1"/>
<path class="bond-20 atom-20 atom-21" d="M 31.1,122.9 L 16.0,135.6" style="fill:none;fill-rule:evenodd;stroke:#000000;stroke-width:2.0px;stroke-linecap:butt;stroke-linejoin:miter;stroke-opacity:1"/>
<path class="bond-21 atom-20 atom-22" d="M 31.1,122.9 L 27.7,104.1" style="fill:none;fill-rule:evenodd;stroke:#000000;stroke-width:2.0px;stroke-linecap:butt;stroke-linejoin:miter;stroke-opacity:1"/>
<path class="bond-22 atom-7 atom-2" d="M 194.9,105.2 L 199.0,128.1" style="fill:none;fill-rule:evenodd;stroke:#000000;stroke-width:2.0px;stroke-linecap:butt;stroke-linejoin:miter;stroke-opacity:1"/>
<path class="bond-23 atom-11 atom-9" d="M 118.7,154.4 L 141.6,150.3" style="fill:none;fill-rule:evenodd;stroke:#000000;stroke-width:2.0px;stroke-linecap:butt;stroke-linejoin:miter;stroke-opacity:1"/>
<path class="bond-24 atom-18 atom-13" d="M 70.7,115.8 L 92.6,123.6" style="fill:none;fill-rule:evenodd;stroke:#000000;stroke-width:2.0px;stroke-linecap:butt;stroke-linejoin:miter;stroke-opacity:1"/>
<path class="atom-0" d="M 157.5 137.5 Q 157.5 137.5, 157.8 137.7 Q 158.1 137.8, 158.5 137.9 Q 158.8 138.0, 159.2 138.0 Q 159.8 138.0, 160.1 137.7 Q 160.5 137.4, 160.5 136.8 Q 160.5 136.5, 160.3 136.2 Q 160.1 136.0, 159.9 135.9 Q 159.6 135.8, 159.1 135.6 Q 158.5 135.5, 158.2 135.3 Q 157.8 135.1, 157.6 134.8 Q 157.3 134.4, 157.3 133.8 Q 157.3 133.0, 157.9 132.5 Q 158.5 132.0, 159.6 132.0 Q 160.4 132.0, 161.2 132.3 L 161.0 133.0 Q 160.2 132.7, 159.6 132.7 Q 159.0 132.7, 158.6 133.0 Q 158.3 133.3, 158.3 133.7 Q 158.3 134.1, 158.5 134.3 Q 158.6 134.5, 158.9 134.6 Q 159.2 134.7, 159.6 134.9 Q 160.2 135.1, 160.6 135.2 Q 160.9 135.4, 161.2 135.8 Q 161.4 136.2, 161.4 136.8 Q 161.4 137.7, 160.8 138.2 Q 160.2 138.7, 159.2 138.7 Q 158.6 138.7, 158.2 138.6 Q 157.7 138.5, 157.2 138.3 L 157.5 137.5 " fill="#000000"/>
<path class="atom-8" d="M 171.0 94.0 L 174.9 94.0 L 174.9 94.8 L 171.9 94.8 L 171.9 96.8 L 174.6 96.8 L 174.6 97.6 L 171.9 97.6 L 171.9 100.6 L 171.0 100.6 L 171.0 94.0 " fill="#000000"/>
<path class="atom-19" d="M 50.0 130.8 Q 50.0 129.2, 50.7 128.3 Q 51.5 127.4, 53.0 127.4 Q 54.4 127.4, 55.2 128.3 Q 56.0 129.2, 56.0 130.8 Q 56.0 132.4, 55.2 133.3 Q 54.4 134.2, 53.0 134.2 Q 51.5 134.2, 50.7 133.3 Q 50.0 132.4, 50.0 130.8 M 53.0 133.5 Q 54.0 133.5, 54.5 132.8 Q 55.1 132.1, 55.1 130.8 Q 55.1 129.5, 54.5 128.8 Q 54.0 128.2, 53.0 128.2 Q 52.0 128.2, 51.4 128.8 Q 50.9 129.5, 50.9 130.8 Q 50.9 132.1, 51.4 132.8 Q 52.0 133.5, 53.0 133.5 " fill="#000000"/>
<path class="atom-21" d="M 11.4 134.6 L 15.3 134.6 L 15.3 135.4 L 12.2 135.4 L 12.2 137.4 L 14.9 137.4 L 14.9 138.1 L 12.2 138.1 L 12.2 141.2 L 11.4 141.2 L 11.4 134.6 " fill="#000000"/>
<path class="atom-22" d="M 25.0 96.7 L 28.9 96.7 L 28.9 97.5 L 25.9 97.5 L 25.9 99.5 L 28.6 99.5 L 28.6 100.2 L 25.9 100.2 L 25.9 103.3 L 25.0 103.3 L 25.0 96.7 " fill="#000000"/>
<path class="atom-0" d="M 345.7 110.8 L 355.0 125.8 Q 355.9 127.3, 357.4 130.0 Q 358.9 132.7, 358.9 132.8 L 358.9 110.8 L 362.7 110.8 L 362.7 139.2 L 358.8 139.2 L 348.9 122.8 Q 347.7 120.8, 346.5 118.6 Q 345.3 116.4, 344.9 115.8 L 344.9 139.2 L 341.2 139.2 L 341.2 110.8 L 345.7 110.8 " fill="#000000"/>
<path class="atom-0" d="M 366.0 110.8 L 369.9 110.8 L 369.9 122.9 L 384.3 122.9 L 384.3 110.8 L 388.2 110.8 L 388.2 139.2 L 384.3 139.2 L 384.3 126.1 L 369.9 126.1 L 369.9 139.2 L 366.0 139.2 L 366.0 110.8 " fill="#000000"/>
<path class="atom-0" d="M 391.6 115.5 L 401.3 115.5 L 401.3 117.6 L 391.6 117.6 L 391.6 115.5 " fill="#000000"/>
<path class="atom-0" d="M 409.3,125.0 L 409.3,125.2 L 409.2,125.3 L 409.2,125.5 L 409.2,125.7 L 409.1,125.8 L 409.0,126.0 L 408.9,126.1 L 408.8,126.3 L 408.7,126.4 L 408.6,126.5 L 408.4,126.6 L 408.3,126.7 L 408.1,126.8 L 408.0,126.9 L 407.8,126.9 L 407.7,127.0 L 407.5,127.0 L 407.3,127.0 L 407.1,127.0 L 407.0,127.0 L 406.8,126.9 L 406.6,126.9 L 406.5,126.8 L 406.3,126.8 L 406.2,126.7 L 406.0,126.6 L 405.9,126.5 L 405.8,126.3 L 405.7,126.2 L 405.6,126.1 L 405.5,125.9 L 405.4,125.8 L 405.4,125.6 L 405.3,125.4 L 405.3,125.3 L 405.3,125.1 L 405.3,124.9 L 405.3,124.7 L 405.3,124.6 L 405.4,124.4 L 405.4,124.2 L 405.5,124.1 L 405.6,123.9 L 405.7,123.8 L 405.8,123.7 L 405.9,123.5 L 406.0,123.4 L 406.2,123.3 L 406.3,123.2 L 406.5,123.2 L 406.6,123.1 L 406.8,123.1 L 407.0,123.0 L 407.1,123.0 L 407.3,123.0 L 407.5,123.0 L 407.7,123.0 L 407.8,123.1 L 408.0,123.1 L 408.1,123.2 L 408.3,123.3 L 408.4,123.4 L 408.6,123.5 L 408.7,123.6 L 408.8,123.7 L 408.9,123.9 L 409.0,124.0 L 409.1,124.2 L 409.2,124.3 L 409.2,124.5 L 409.2,124.7 L 409.3,124.8 L 409.3,125.0 L 407.3,125.0 Z" style="fill:#000000;fill-rule:evenodd;fill-opacity:1;stroke:#000000;stroke-width:0.0px;stroke-linecap:butt;stroke-linejoin:miter;stroke-opacity:1;"/>
<path class="bond-0 atom-0 atom-1" d="M 544.1,104.6 L 611.1,143.3" style="fill:none;fill-rule:evenodd;stroke:#000000;stroke-width:2.0px;stroke-linecap:butt;stroke-linejoin:miter;stroke-opacity:1"/>
<path class="bond-0 atom-0 atom-1" d="M 534.5,121.1 L 601.5,159.8" style="fill:none;fill-rule:evenodd;stroke:#000000;stroke-width:2.0px;stroke-linecap:butt;stroke-linejoin:miter;stroke-opacity:1"/>
<path class="bond-1 atom-1 atom-2" d="M 606.3,151.5 L 675.5,111.6" style="fill:none;fill-rule:evenodd;stroke:#000000;stroke-width:2.0px;stroke-linecap:butt;stroke-linejoin:miter;stroke-opacity:1"/>
<path class="atom-0" d="M 511.4 103.9 Q 511.4 97.5, 514.6 93.8 Q 517.8 90.2, 523.8 90.2 Q 529.7 90.2, 532.9 93.8 Q 536.1 97.5, 536.1 103.9 Q 536.1 110.5, 532.9 114.2 Q 529.7 117.9, 523.8 117.9 Q 517.8 117.9, 514.6 114.2 Q 511.4 110.5, 511.4 103.9 M 523.8 114.9 Q 527.9 114.9, 530.1 112.1 Q 532.3 109.4, 532.3 103.9 Q 532.3 98.6, 530.1 96.0 Q 527.9 93.3, 523.8 93.3 Q 519.6 93.3, 517.4 95.9 Q 515.2 98.6, 515.2 103.9 Q 515.2 109.4, 517.4 112.1 Q 519.6 114.9, 523.8 114.9 " fill="#000000"/>
<path class="atom-2" d="M 682.9 90.4 L 691.7 104.7 Q 692.6 106.1, 694.0 108.6 Q 695.4 111.2, 695.5 111.3 L 695.5 90.4 L 699.1 90.4 L 699.1 117.4 L 695.4 117.4 L 685.9 101.7 Q 684.8 99.9, 683.6 97.8 Q 682.5 95.7, 682.1 95.1 L 682.1 117.4 L 678.6 117.4 L 678.6 90.4 L 682.9 90.4 " fill="#000000"/>
<path class="atom-2" d="M 702.3 90.4 L 705.9 90.4 L 705.9 101.8 L 719.7 101.8 L 719.7 90.4 L 723.4 90.4 L 723.4 117.4 L 719.7 117.4 L 719.7 104.9 L 705.9 104.9 L 705.9 117.4 L 702.3 117.4 L 702.3 90.4 " fill="#000000"/>
<path class="atom-2" d="M 726.7 116.4 Q 727.3 114.7, 728.9 113.8 Q 730.5 112.8, 732.6 112.8 Q 735.3 112.8, 736.8 114.3 Q 738.3 115.8, 738.3 118.4 Q 738.3 121.0, 736.4 123.5 Q 734.4 125.9, 730.4 128.8 L 738.6 128.8 L 738.6 130.9 L 726.6 130.9 L 726.6 129.2 Q 730.0 126.8, 731.9 125.0 Q 733.9 123.3, 734.9 121.7 Q 735.8 120.1, 735.8 118.5 Q 735.8 116.8, 735.0 115.8 Q 734.1 114.9, 732.6 114.9 Q 731.2 114.9, 730.2 115.4 Q 729.3 116.0, 728.6 117.3 L 726.7 116.4 " fill="#000000"/>
<path class="bond-0 atom-0 atom-1" d="M 140.0,430.7 L 156.5,410.7" style="fill:none;fill-rule:evenodd;stroke:#000000;stroke-width:2.0px;stroke-linecap:butt;stroke-linejoin:miter;stroke-opacity:1"/>
<path class="bond-1 atom-1 atom-2" d="M 156.5,401.7 L 117.2,395.1" style="fill:none;fill-rule:evenodd;stroke:#000000;stroke-width:2.0px;stroke-linecap:butt;stroke-linejoin:miter;stroke-opacity:1"/>
<path class="bond-1 atom-1 atom-2" d="M 149.1,409.8 L 121.6,405.3" style="fill:none;fill-rule:evenodd;stroke:#000000;stroke-width:2.0px;stroke-linecap:butt;stroke-linejoin:miter;stroke-opacity:1"/>
<path class="bond-2 atom-3 atom-2" d="M 86.8,371.1 L 87.8,369.9" style="fill:none;fill-rule:evenodd;stroke:#000000;stroke-width:1.0px;stroke-linecap:butt;stroke-linejoin:miter;stroke-opacity:1"/>
<path class="bond-2 atom-3 atom-2" d="M 92.3,376.6 L 94.3,374.3" style="fill:none;fill-rule:evenodd;stroke:#000000;stroke-width:1.0px;stroke-linecap:butt;stroke-linejoin:miter;stroke-opacity:1"/>
<path class="bond-2 atom-3 atom-2" d="M 97.8,382.2 L 100.7,378.6" style="fill:none;fill-rule:evenodd;stroke:#000000;stroke-width:1.0px;stroke-linecap:butt;stroke-linejoin:miter;stroke-opacity:1"/>
<path class="bond-2 atom-3 atom-2" d="M 103.3,387.7 L 107.2,382.9" style="fill:none;fill-rule:evenodd;stroke:#000000;stroke-width:1.0px;stroke-linecap:butt;stroke-linejoin:miter;stroke-opacity:1"/>
<path class="bond-2 atom-3 atom-2" d="M 108.8,393.2 L 113.7,387.2" style="fill:none;fill-rule:evenodd;stroke:#000000;stroke-width:1.0px;stroke-linecap:butt;stroke-linejoin:miter;stroke-opacity:1"/>
<path class="bond-2 atom-3 atom-2" d="M 114.3,398.7 L 120.2,391.5" style="fill:none;fill-rule:evenodd;stroke:#000000;stroke-width:1.0px;stroke-linecap:butt;stroke-linejoin:miter;stroke-opacity:1"/>
<path class="bond-3 atom-3 atom-4" d="M 81.3,365.6 L 36.4,377.3" style="fill:none;fill-rule:evenodd;stroke:#000000;stroke-width:2.0px;stroke-linecap:butt;stroke-linejoin:miter;stroke-opacity:1"/>
<path class="bond-4 atom-4 atom-5" d="M 36.4,377.3 L 11.4,338.1" style="fill:none;fill-rule:evenodd;stroke:#000000;stroke-width:2.0px;stroke-linecap:butt;stroke-linejoin:miter;stroke-opacity:1"/>
<path class="bond-5 atom-5 atom-6" d="M 11.4,338.1 L 40.9,302.3" style="fill:none;fill-rule:evenodd;stroke:#000000;stroke-width:2.0px;stroke-linecap:butt;stroke-linejoin:miter;stroke-opacity:1"/>
<path class="bond-6 atom-6 atom-7" d="M 40.9,302.3 L 84.1,319.2" style="fill:none;fill-rule:evenodd;stroke:#000000;stroke-width:2.0px;stroke-linecap:butt;stroke-linejoin:miter;stroke-opacity:1"/>
<path class="bond-7 atom-7 atom-8" d="M 91.1,315.7 L 90.2,314.4" style="fill:none;fill-rule:evenodd;stroke:#000000;stroke-width:1.0px;stroke-linecap:butt;stroke-linejoin:miter;stroke-opacity:1"/>
<path class="bond-7 atom-7 atom-8" d="M 98.0,312.2 L 96.3,309.6" style="fill:none;fill-rule:evenodd;stroke:#000000;stroke-width:1.0px;stroke-linecap:butt;stroke-linejoin:miter;stroke-opacity:1"/>
<path class="bond-7 atom-7 atom-8" d="M 104.9,308.7 L 102.4,304.8" style="fill:none;fill-rule:evenodd;stroke:#000000;stroke-width:1.0px;stroke-linecap:butt;stroke-linejoin:miter;stroke-opacity:1"/>
<path class="bond-7 atom-7 atom-8" d="M 111.9,305.2 L 108.5,300.0" style="fill:none;fill-rule:evenodd;stroke:#000000;stroke-width:1.0px;stroke-linecap:butt;stroke-linejoin:miter;stroke-opacity:1"/>
<path class="bond-7 atom-7 atom-8" d="M 118.8,301.7 L 114.7,295.2" style="fill:none;fill-rule:evenodd;stroke:#000000;stroke-width:1.0px;stroke-linecap:butt;stroke-linejoin:miter;stroke-opacity:1"/>
<path class="bond-7 atom-7 atom-8" d="M 125.8,298.2 L 120.8,290.3" style="fill:none;fill-rule:evenodd;stroke:#000000;stroke-width:1.0px;stroke-linecap:butt;stroke-linejoin:miter;stroke-opacity:1"/>
<path class="bond-8 atom-8 atom-9" d="M 123.3,294.2 L 164.5,315.7" style="fill:none;fill-rule:evenodd;stroke:#000000;stroke-width:2.0px;stroke-linecap:butt;stroke-linejoin:miter;stroke-opacity:1"/>
<path class="bond-9 atom-9 atom-10" d="M 164.5,315.7 L 206.0,294.9" style="fill:none;fill-rule:evenodd;stroke:#000000;stroke-width:2.0px;stroke-linecap:butt;stroke-linejoin:miter;stroke-opacity:1"/>
<path class="bond-9 atom-9 atom-10" d="M 174.9,320.8 L 204.0,306.3" style="fill:none;fill-rule:evenodd;stroke:#000000;stroke-width:2.0px;stroke-linecap:butt;stroke-linejoin:miter;stroke-opacity:1"/>
<path class="bond-10 atom-10 atom-11" d="M 206.0,294.9 L 238.6,328.0" style="fill:none;fill-rule:evenodd;stroke:#000000;stroke-width:2.0px;stroke-linecap:butt;stroke-linejoin:miter;stroke-opacity:1"/>
<path class="bond-11 atom-11 atom-12" d="M 238.6,328.0 L 217.2,369.2" style="fill:none;fill-rule:evenodd;stroke:#000000;stroke-width:2.0px;stroke-linecap:butt;stroke-linejoin:miter;stroke-opacity:1"/>
<path class="bond-11 atom-11 atom-12" d="M 227.2,329.9 L 212.2,358.7" style="fill:none;fill-rule:evenodd;stroke:#000000;stroke-width:2.0px;stroke-linecap:butt;stroke-linejoin:miter;stroke-opacity:1"/>
<path class="bond-12 atom-12 atom-13" d="M 217.2,369.2 L 179.0,362.8" style="fill:none;fill-rule:evenodd;stroke:#000000;stroke-width:2.0px;stroke-linecap:butt;stroke-linejoin:miter;stroke-opacity:1"/>
<path class="bond-13 atom-2 atom-0" d="M 117.2,395.1 L 130.5,430.5" style="fill:none;fill-rule:evenodd;stroke:#000000;stroke-width:2.0px;stroke-linecap:butt;stroke-linejoin:miter;stroke-opacity:1"/>
<path class="bond-14 atom-7 atom-3" d="M 84.1,319.2 L 81.3,365.6" style="fill:none;fill-rule:evenodd;stroke:#000000;stroke-width:2.0px;stroke-linecap:butt;stroke-linejoin:miter;stroke-opacity:1"/>
<path class="bond-15 atom-13 atom-9" d="M 170.2,353.4 L 164.5,315.7" style="fill:none;fill-rule:evenodd;stroke:#000000;stroke-width:2.0px;stroke-linecap:butt;stroke-linejoin:miter;stroke-opacity:1"/>
<path class="atom-0" d="M 130.6 432.0 L 134.9 439.0 Q 135.3 439.7, 136.0 440.9 Q 136.7 442.2, 136.8 442.3 L 136.8 432.0 L 138.5 432.0 L 138.5 445.2 L 136.7 445.2 L 132.1 437.6 Q 131.5 436.7, 131.0 435.7 Q 130.4 434.6, 130.2 434.3 L 130.2 445.2 L 128.5 445.2 L 128.5 432.0 L 130.6 432.0 " fill="#000000"/>
<path class="atom-0" d="M 128.4 446.5 L 130.2 446.5 L 130.2 452.1 L 136.9 452.1 L 136.9 446.5 L 138.7 446.5 L 138.7 459.7 L 136.9 459.7 L 136.9 453.6 L 130.2 453.6 L 130.2 459.7 L 128.4 459.7 L 128.4 446.5 " fill="#000000"/>
<path class="atom-1" d="M 160.1 396.2 L 164.4 403.1 Q 164.9 403.8, 165.5 405.1 Q 166.2 406.3, 166.3 406.4 L 166.3 396.2 L 168.0 396.2 L 168.0 409.3 L 166.2 409.3 L 161.6 401.7 Q 161.0 400.8, 160.5 399.8 Q 159.9 398.8, 159.7 398.5 L 159.7 409.3 L 158.0 409.3 L 158.0 396.2 L 160.1 396.2 " fill="#000000"/>
<path class="atom-13" d="M 165.4 361.6 Q 165.4 358.5, 166.9 356.7 Q 168.5 354.9, 171.4 354.9 Q 174.3 354.9, 175.9 356.7 Q 177.4 358.5, 177.4 361.6 Q 177.4 364.8, 175.9 366.6 Q 174.3 368.4, 171.4 368.4 Q 168.5 368.4, 166.9 366.6 Q 165.4 364.8, 165.4 361.6 M 171.4 367.0 Q 173.4 367.0, 174.5 365.6 Q 175.6 364.3, 175.6 361.6 Q 175.6 359.0, 174.5 357.7 Q 173.4 356.4, 171.4 356.4 Q 169.4 356.4, 168.3 357.7 Q 167.2 359.0, 167.2 361.6 Q 167.2 364.3, 168.3 365.6 Q 169.4 367.0, 171.4 367.0 " fill="#000000"/>
<path class="bond-0 atom-0 atom-1" d="M 323.2,382.7 L 339.4,408.5" style="fill:none;fill-rule:evenodd;stroke:#000000;stroke-width:2.0px;stroke-linecap:butt;stroke-linejoin:miter;stroke-opacity:1"/>
<path class="bond-1 atom-1 atom-2" d="M 353.5,425.2 L 364.5,455.3" style="fill:none;fill-rule:evenodd;stroke:#000000;stroke-width:2.0px;stroke-linecap:butt;stroke-linejoin:miter;stroke-opacity:1"/>
<path class="bond-1 atom-1 atom-2" d="M 343.7,428.8 L 354.8,458.9" style="fill:none;fill-rule:evenodd;stroke:#000000;stroke-width:2.0px;stroke-linecap:butt;stroke-linejoin:miter;stroke-opacity:1"/>
<path class="bond-2 atom-1 atom-3" d="M 341.0,425.4 L 309.3,440.9" style="fill:none;fill-rule:evenodd;stroke:#000000;stroke-width:2.0px;stroke-linecap:butt;stroke-linejoin:miter;stroke-opacity:1"/>
<path class="bond-2 atom-1 atom-3" d="M 336.4,416.0 L 304.7,431.6" style="fill:none;fill-rule:evenodd;stroke:#000000;stroke-width:2.0px;stroke-linecap:butt;stroke-linejoin:miter;stroke-opacity:1"/>
<path class="bond-3 atom-1 atom-4" d="M 351.6,415.9 L 395.5,404.9" style="fill:none;fill-rule:evenodd;stroke:#000000;stroke-width:2.0px;stroke-linecap:butt;stroke-linejoin:miter;stroke-opacity:1"/>
<path class="bond-4 atom-4 atom-5" d="M 395.5,404.9 L 438.6,433.8" style="fill:none;fill-rule:evenodd;stroke:#000000;stroke-width:2.0px;stroke-linecap:butt;stroke-linejoin:miter;stroke-opacity:1"/>
<path class="bond-4 atom-4 atom-5" d="M 407.7,400.6 L 437.9,420.8" style="fill:none;fill-rule:evenodd;stroke:#000000;stroke-width:2.0px;stroke-linecap:butt;stroke-linejoin:miter;stroke-opacity:1"/>
<path class="bond-5 atom-5 atom-6" d="M 438.6,433.8 L 485.1,410.9" style="fill:none;fill-rule:evenodd;stroke:#000000;stroke-width:2.0px;stroke-linecap:butt;stroke-linejoin:miter;stroke-opacity:1"/>
<path class="bond-6 atom-6 atom-7" d="M 485.1,410.9 L 488.6,359.1" style="fill:none;fill-rule:evenodd;stroke:#000000;stroke-width:2.0px;stroke-linecap:butt;stroke-linejoin:miter;stroke-opacity:1"/>
<path class="bond-6 atom-6 atom-7" d="M 475.3,402.4 L 477.8,366.2" style="fill:none;fill-rule:evenodd;stroke:#000000;stroke-width:2.0px;stroke-linecap:butt;stroke-linejoin:miter;stroke-opacity:1"/>
<path class="bond-7 atom-7 atom-8" d="M 488.6,359.1 L 445.5,330.2" style="fill:none;fill-rule:evenodd;stroke:#000000;stroke-width:2.0px;stroke-linecap:butt;stroke-linejoin:miter;stroke-opacity:1"/>
<path class="bond-8 atom-8 atom-9" d="M 445.5,330.2 L 398.9,353.1" style="fill:none;fill-rule:evenodd;stroke:#000000;stroke-width:2.0px;stroke-linecap:butt;stroke-linejoin:miter;stroke-opacity:1"/>
<path class="bond-8 atom-8 atom-9" d="M 443.1,343.0 L 410.5,359.0" style="fill:none;fill-rule:evenodd;stroke:#000000;stroke-width:2.0px;stroke-linecap:butt;stroke-linejoin:miter;stroke-opacity:1"/>
<path class="bond-9 atom-9 atom-10" d="M 398.9,353.1 L 350.8,333.8" style="fill:none;fill-rule:evenodd;stroke:#000000;stroke-width:2.0px;stroke-linecap:butt;stroke-linejoin:miter;stroke-opacity:1"/>
<path class="bond-10 atom-10 atom-11" d="M 350.0,326.9 L 348.3,327.4" style="fill:none;fill-rule:evenodd;stroke:#000000;stroke-width:1.0px;stroke-linecap:butt;stroke-linejoin:miter;stroke-opacity:1"/>
<path class="bond-10 atom-10 atom-11" d="M 349.1,320.1 L 345.8,321.0" style="fill:none;fill-rule:evenodd;stroke:#000000;stroke-width:1.0px;stroke-linecap:butt;stroke-linejoin:miter;stroke-opacity:1"/>
<path class="bond-10 atom-10 atom-11" d="M 348.3,313.3 L 343.3,314.6" style="fill:none;fill-rule:evenodd;stroke:#000000;stroke-width:1.0px;stroke-linecap:butt;stroke-linejoin:miter;stroke-opacity:1"/>
<path class="bond-10 atom-10 atom-11" d="M 347.5,306.5 L 340.8,308.2" style="fill:none;fill-rule:evenodd;stroke:#000000;stroke-width:1.0px;stroke-linecap:butt;stroke-linejoin:miter;stroke-opacity:1"/>
<path class="bond-10 atom-10 atom-11" d="M 346.7,299.7 L 338.3,301.8" style="fill:none;fill-rule:evenodd;stroke:#000000;stroke-width:1.0px;stroke-linecap:butt;stroke-linejoin:miter;stroke-opacity:1"/>
<path class="bond-10 atom-10 atom-11" d="M 345.8,292.9 L 335.8,295.5" style="fill:none;fill-rule:evenodd;stroke:#000000;stroke-width:1.0px;stroke-linecap:butt;stroke-linejoin:miter;stroke-opacity:1"/>
<path class="bond-11 atom-0 atom-12" d="M 311.1,373.2 L 271.8,370.5" style="fill:none;fill-rule:evenodd;stroke:#000000;stroke-width:2.0px;stroke-linecap:butt;stroke-linejoin:miter;stroke-opacity:1"/>
<path class="bond-12 atom-10 atom-0" d="M 350.8,333.8 L 323.9,365.9" style="fill:none;fill-rule:evenodd;stroke:#000000;stroke-width:2.0px;stroke-linecap:butt;stroke-linejoin:miter;stroke-opacity:1"/>
<path class="bond-13 atom-9 atom-4" d="M 398.9,353.1 L 395.5,404.9" style="fill:none;fill-rule:evenodd;stroke:#000000;stroke-width:2.0px;stroke-linecap:butt;stroke-linejoin:miter;stroke-opacity:1"/>
<path class="atom-0" d="M 317.2 366.2 Q 319.7 366.2, 320.9 367.4 Q 322.2 368.5, 322.2 370.6 Q 322.2 372.6, 320.9 373.8 Q 319.6 374.9, 317.2 374.9 L 314.8 374.9 L 314.8 380.9 L 312.8 380.9 L 312.8 366.2 L 317.2 366.2 M 317.2 373.2 Q 318.6 373.2, 319.4 372.6 Q 320.1 371.9, 320.1 370.6 Q 320.1 369.3, 319.4 368.6 Q 318.6 367.9, 317.2 367.9 L 314.8 367.9 L 314.8 373.2 L 317.2 373.2 " fill="#000000"/>
<path class="atom-1" d="M 341.0 422.6 Q 341.1 422.6, 341.8 422.9 Q 342.5 423.2, 343.3 423.4 Q 344.0 423.6, 344.8 423.6 Q 346.2 423.6, 347.0 422.9 Q 347.8 422.2, 347.8 421.0 Q 347.8 420.2, 347.4 419.7 Q 347.0 419.2, 346.4 419.0 Q 345.7 418.7, 344.7 418.4 Q 343.4 418.0, 342.6 417.6 Q 341.8 417.2, 341.3 416.5 Q 340.7 415.7, 340.7 414.3 Q 340.7 412.5, 342.0 411.4 Q 343.2 410.2, 345.7 410.2 Q 347.4 410.2, 349.4 411.0 L 348.9 412.6 Q 347.1 411.9, 345.8 411.9 Q 344.4 411.9, 343.6 412.5 Q 342.8 413.1, 342.8 414.1 Q 342.8 414.9, 343.2 415.4 Q 343.6 415.8, 344.2 416.1 Q 344.8 416.4, 345.8 416.7 Q 347.1 417.1, 347.9 417.5 Q 348.7 417.9, 349.3 418.8 Q 349.8 419.6, 349.8 421.0 Q 349.8 423.1, 348.5 424.2 Q 347.1 425.3, 344.9 425.3 Q 343.5 425.3, 342.6 425.0 Q 341.6 424.7, 340.4 424.2 L 341.0 422.6 " fill="#000000"/>
<path class="atom-2" d="M 356.3 466.3 Q 356.3 462.8, 358.0 460.8 Q 359.7 458.8, 363.0 458.8 Q 366.3 458.8, 368.0 460.8 Q 369.7 462.8, 369.7 466.3 Q 369.7 469.9, 368.0 471.9 Q 366.2 473.9, 363.0 473.9 Q 359.8 473.9, 358.0 471.9 Q 356.3 469.9, 356.3 466.3 M 363.0 472.3 Q 365.2 472.3, 366.4 470.8 Q 367.7 469.3, 367.7 466.3 Q 367.7 463.4, 366.4 462.0 Q 365.2 460.5, 363.0 460.5 Q 360.8 460.5, 359.5 461.9 Q 358.3 463.4, 358.3 466.3 Q 358.3 469.3, 359.5 470.8 Q 360.8 472.3, 363.0 472.3 " fill="#000000"/>
<path class="atom-3" d="M 291.8 440.4 Q 291.8 436.9, 293.5 434.9 Q 295.3 433.0, 298.5 433.0 Q 301.8 433.0, 303.5 434.9 Q 305.3 436.9, 305.3 440.4 Q 305.3 444.0, 303.5 446.1 Q 301.8 448.1, 298.5 448.1 Q 295.3 448.1, 293.5 446.1 Q 291.8 444.0, 291.8 440.4 M 298.5 446.4 Q 300.8 446.4, 302.0 444.9 Q 303.2 443.4, 303.2 440.4 Q 303.2 437.6, 302.0 436.1 Q 300.8 434.6, 298.5 434.6 Q 296.3 434.6, 295.1 436.1 Q 293.9 437.5, 293.9 440.4 Q 293.9 443.4, 295.1 444.9 Q 296.3 446.4, 298.5 446.4 " fill="#000000"/>
<path class="atom-11" d="M 337.7 276.1 Q 340.3 276.1, 341.5 277.2 Q 342.8 278.3, 342.8 280.4 Q 342.8 282.4, 341.5 283.6 Q 340.2 284.7, 337.7 284.7 L 335.4 284.7 L 335.4 290.8 L 333.4 290.8 L 333.4 276.1 L 337.7 276.1 M 337.7 283.1 Q 339.2 283.1, 339.9 282.4 Q 340.7 281.7, 340.7 280.4 Q 340.7 279.1, 339.9 278.4 Q 339.2 277.7, 337.7 277.7 L 335.4 277.7 L 335.4 283.1 L 337.7 283.1 " fill="#000000"/>
<path class="atom-11" d="M 343.8 276.1 L 345.8 276.1 L 345.8 282.3 L 353.3 282.3 L 353.3 276.1 L 355.3 276.1 L 355.3 290.8 L 353.3 290.8 L 353.3 284.0 L 345.8 284.0 L 345.8 290.8 L 343.8 290.8 L 343.8 276.1 " fill="#000000"/>
<path class="atom-11" d="M 357.1 290.3 Q 357.4 289.3, 358.3 288.8 Q 359.1 288.3, 360.3 288.3 Q 361.8 288.3, 362.6 289.1 Q 363.4 289.9, 363.4 291.3 Q 363.4 292.8, 362.3 294.1 Q 361.3 295.4, 359.1 297.0 L 363.6 297.0 L 363.6 298.1 L 357.0 298.1 L 357.0 297.2 Q 358.8 295.9, 359.9 295.0 Q 361.0 294.0, 361.5 293.1 Q 362.0 292.3, 362.0 291.4 Q 362.0 290.5, 361.6 289.9 Q 361.1 289.4, 360.3 289.4 Q 359.5 289.4, 359.0 289.7 Q 358.5 290.0, 358.1 290.7 L 357.1 290.3 " fill="#000000"/>
<path class="atom-12" d="M 261.4 362.8 L 270.1 362.8 L 270.1 364.4 L 263.3 364.4 L 263.3 368.9 L 269.4 368.9 L 269.4 370.6 L 263.3 370.6 L 263.3 377.4 L 261.4 377.4 L 261.4 362.8 " fill="#000000"/>
<path class="bond-0 atom-0 atom-1" d="M 702.1,408.5 L 702.1,341.5" style="fill:none;fill-rule:evenodd;stroke:#000000;stroke-width:2.0px;stroke-linecap:butt;stroke-linejoin:miter;stroke-opacity:1"/>
<path class="bond-1 atom-1 atom-2" d="M 687.9,332.1 L 613.7,375.0" style="fill:none;fill-rule:evenodd;stroke:#000000;stroke-width:2.0px;stroke-linecap:butt;stroke-linejoin:miter;stroke-opacity:1"/>
<path class="bond-1 atom-1 atom-2" d="M 687.0,356.2 L 635.1,386.2" style="fill:none;fill-rule:evenodd;stroke:#000000;stroke-width:2.0px;stroke-linecap:butt;stroke-linejoin:miter;stroke-opacity:1"/>
<path class="bond-2 atom-2 atom-3" d="M 613.7,375.0 L 511.7,375.0" style="fill:none;fill-rule:evenodd;stroke:#000000;stroke-width:2.0px;stroke-linecap:butt;stroke-linejoin:miter;stroke-opacity:1"/>
<path class="bond-3 atom-2 atom-0" d="M 613.7,375.0 L 687.9,417.9" style="fill:none;fill-rule:evenodd;stroke:#000000;stroke-width:2.0px;stroke-linecap:butt;stroke-linejoin:miter;stroke-opacity:1"/>
<path class="atom-0" d="M 695.8 411.8 L 705.1 426.8 Q 706.0 428.3, 707.5 431.0 Q 709.0 433.7, 709.0 433.8 L 709.0 411.8 L 712.8 411.8 L 712.8 440.2 L 708.9 440.2 L 699.0 423.8 Q 697.8 421.8, 696.6 419.6 Q 695.4 417.4, 695.0 416.8 L 695.0 440.2 L 691.3 440.2 L 691.3 411.8 L 695.8 411.8 " fill="#000000"/>
<path class="atom-0" d="M 716.1 411.8 L 720.0 411.8 L 720.0 423.9 L 734.4 423.9 L 734.4 411.8 L 738.3 411.8 L 738.3 440.2 L 734.4 440.2 L 734.4 427.1 L 720.0 427.1 L 720.0 440.2 L 716.1 440.2 L 716.1 411.8 " fill="#000000"/>
<path class="atom-1" d="M 695.8 309.8 L 705.1 324.8 Q 706.0 326.3, 707.5 329.0 Q 709.0 331.7, 709.0 331.8 L 709.0 309.8 L 712.8 309.8 L 712.8 338.2 L 708.9 338.2 L 699.0 321.8 Q 697.8 319.8, 696.6 317.6 Q 695.4 315.4, 695.0 314.8 L 695.0 338.2 L 691.3 338.2 L 691.3 309.8 L 695.8 309.8 " fill="#000000"/>
<path class="bond-0 atom-0 atom-1" d="M 127.6,729.0 L 126.1,704.0" style="fill:none;fill-rule:evenodd;stroke:#000000;stroke-width:2.0px;stroke-linecap:butt;stroke-linejoin:miter;stroke-opacity:1"/>
<path class="bond-0 atom-0 atom-1" d="M 133.7,728.6 L 132.2,703.7" style="fill:none;fill-rule:evenodd;stroke:#000000;stroke-width:2.0px;stroke-linecap:butt;stroke-linejoin:miter;stroke-opacity:1"/>
<path class="bond-1 atom-1 atom-2" d="M 129.2,703.8 L 158.3,695.4" style="fill:none;fill-rule:evenodd;stroke:#000000;stroke-width:2.0px;stroke-linecap:butt;stroke-linejoin:miter;stroke-opacity:1"/>
<path class="bond-2 atom-2 atom-3" d="M 158.3,695.4 L 176.7,678.9" style="fill:none;fill-rule:evenodd;stroke:#000000;stroke-width:2.0px;stroke-linecap:butt;stroke-linejoin:miter;stroke-opacity:1"/>
<path class="bond-3 atom-3 atom-4" d="M 183.1,669.8 L 192.5,647.0" style="fill:none;fill-rule:evenodd;stroke:#000000;stroke-width:2.0px;stroke-linecap:butt;stroke-linejoin:miter;stroke-opacity:1"/>
<path class="bond-4 atom-4 atom-5" d="M 193.0,644.0 L 218.0,648.2" style="fill:none;fill-rule:evenodd;stroke:#000000;stroke-width:2.0px;stroke-linecap:butt;stroke-linejoin:miter;stroke-opacity:1"/>
<path class="bond-4 atom-4 atom-5" d="M 192.0,650.0 L 217.0,654.2" style="fill:none;fill-rule:evenodd;stroke:#000000;stroke-width:2.0px;stroke-linecap:butt;stroke-linejoin:miter;stroke-opacity:1"/>
<path class="bond-5 atom-4 atom-6" d="M 192.5,647.0 L 190.8,616.7" style="fill:none;fill-rule:evenodd;stroke:#000000;stroke-width:2.0px;stroke-linecap:butt;stroke-linejoin:miter;stroke-opacity:1"/>
<path class="bond-6 atom-6 atom-7" d="M 190.8,616.7 L 221.2,617.2" style="fill:none;fill-rule:evenodd;stroke:#000000;stroke-width:2.0px;stroke-linecap:butt;stroke-linejoin:miter;stroke-opacity:1"/>
<path class="bond-6 atom-6 atom-7" d="M 195.5,610.7 L 216.7,611.1" style="fill:none;fill-rule:evenodd;stroke:#000000;stroke-width:2.0px;stroke-linecap:butt;stroke-linejoin:miter;stroke-opacity:1"/>
<path class="bond-7 atom-7 atom-8" d="M 221.2,617.2 L 236.8,591.2" style="fill:none;fill-rule:evenodd;stroke:#000000;stroke-width:2.0px;stroke-linecap:butt;stroke-linejoin:miter;stroke-opacity:1"/>
<path class="bond-8 atom-8 atom-9" d="M 236.8,591.2 L 222.1,564.6" style="fill:none;fill-rule:evenodd;stroke:#000000;stroke-width:2.0px;stroke-linecap:butt;stroke-linejoin:miter;stroke-opacity:1"/>
<path class="bond-8 atom-8 atom-9" d="M 229.3,590.2 L 219.0,571.6" style="fill:none;fill-rule:evenodd;stroke:#000000;stroke-width:2.0px;stroke-linecap:butt;stroke-linejoin:miter;stroke-opacity:1"/>
<path class="bond-9 atom-9 atom-10" d="M 222.1,564.6 L 191.7,564.1" style="fill:none;fill-rule:evenodd;stroke:#000000;stroke-width:2.0px;stroke-linecap:butt;stroke-linejoin:miter;stroke-opacity:1"/>
<path class="bond-10 atom-10 atom-11" d="M 191.7,564.1 L 176.1,590.2" style="fill:none;fill-rule:evenodd;stroke:#000000;stroke-width:2.0px;stroke-linecap:butt;stroke-linejoin:miter;stroke-opacity:1"/>
<path class="bond-10 atom-10 atom-11" d="M 194.6,571.2 L 183.6,589.4" style="fill:none;fill-rule:evenodd;stroke:#000000;stroke-width:2.0px;stroke-linecap:butt;stroke-linejoin:miter;stroke-opacity:1"/>
<path class="bond-11 atom-11 atom-12" d="M 176.1,590.2 L 155.5,575.6" style="fill:none;fill-rule:evenodd;stroke:#000000;stroke-width:2.0px;stroke-linecap:butt;stroke-linejoin:miter;stroke-opacity:1"/>
<path class="bond-12 atom-12 atom-13" d="M 155.5,567.5 L 170.6,549.2" style="fill:none;fill-rule:evenodd;stroke:#000000;stroke-width:2.0px;stroke-linecap:butt;stroke-linejoin:miter;stroke-opacity:1"/>
<path class="bond-13 atom-13 atom-14" d="M 170.6,549.2 L 160.0,520.8" style="fill:none;fill-rule:evenodd;stroke:#000000;stroke-width:2.0px;stroke-linecap:butt;stroke-linejoin:miter;stroke-opacity:1"/>
<path class="bond-14 atom-14 atom-15" d="M 160.0,520.8 L 135.0,516.5" style="fill:none;fill-rule:evenodd;stroke:#000000;stroke-width:2.0px;stroke-linecap:butt;stroke-linejoin:miter;stroke-opacity:1"/>
<path class="bond-15 atom-15 atom-16" d="M 125.5,521.2 L 110.7,539.1" style="fill:none;fill-rule:evenodd;stroke:#000000;stroke-width:2.0px;stroke-linecap:butt;stroke-linejoin:miter;stroke-opacity:1"/>
<path class="bond-16 atom-16 atom-17" d="M 110.7,539.1 L 121.3,567.6" style="fill:none;fill-rule:evenodd;stroke:#000000;stroke-width:2.0px;stroke-linecap:butt;stroke-linejoin:miter;stroke-opacity:1"/>
<path class="bond-17 atom-17 atom-18" d="M 121.3,567.6 L 92.1,576.0" style="fill:none;fill-rule:evenodd;stroke:#000000;stroke-width:2.0px;stroke-linecap:butt;stroke-linejoin:miter;stroke-opacity:1"/>
<path class="bond-18 atom-1 atom-19" d="M 129.2,703.8 L 99.2,698.8" style="fill:none;fill-rule:evenodd;stroke:#000000;stroke-width:2.0px;stroke-linecap:butt;stroke-linejoin:miter;stroke-opacity:1"/>
<path class="bond-19 atom-19 atom-20" d="M 99.2,698.8 L 74.4,681.3" style="fill:none;fill-rule:evenodd;stroke:#000000;stroke-width:2.0px;stroke-linecap:butt;stroke-linejoin:miter;stroke-opacity:1"/>
<path class="bond-20 atom-20 atom-21" d="M 74.4,681.3 L 59.7,654.7" style="fill:none;fill-rule:evenodd;stroke:#000000;stroke-width:2.0px;stroke-linecap:butt;stroke-linejoin:miter;stroke-opacity:1"/>
<path class="bond-20 atom-20 atom-21" d="M 77.5,674.3 L 67.2,655.7" style="fill:none;fill-rule:evenodd;stroke:#000000;stroke-width:2.0px;stroke-linecap:butt;stroke-linejoin:miter;stroke-opacity:1"/>
<path class="bond-21 atom-21 atom-22" d="M 59.7,654.7 L 58.0,624.4" style="fill:none;fill-rule:evenodd;stroke:#000000;stroke-width:2.0px;stroke-linecap:butt;stroke-linejoin:miter;stroke-opacity:1"/>
<path class="bond-22 atom-22 atom-23" d="M 58.0,624.4 L 69.5,596.3" style="fill:none;fill-rule:evenodd;stroke:#000000;stroke-width:2.0px;stroke-linecap:butt;stroke-linejoin:miter;stroke-opacity:1"/>
<path class="bond-22 atom-22 atom-23" d="M 65.3,622.5 L 73.4,602.8" style="fill:none;fill-rule:evenodd;stroke:#000000;stroke-width:2.0px;stroke-linecap:butt;stroke-linejoin:miter;stroke-opacity:1"/>
<path class="bond-23 atom-23 atom-24" d="M 69.5,596.3 L 44.7,578.8" style="fill:none;fill-rule:evenodd;stroke:#000000;stroke-width:2.0px;stroke-linecap:butt;stroke-linejoin:miter;stroke-opacity:1"/>
<path class="bond-24 atom-24 atom-25" d="M 46.0,581.5 L 23.4,592.0" style="fill:none;fill-rule:evenodd;stroke:#000000;stroke-width:2.0px;stroke-linecap:butt;stroke-linejoin:miter;stroke-opacity:1"/>
<path class="bond-24 atom-24 atom-25" d="M 43.5,576.0 L 20.8,586.4" style="fill:none;fill-rule:evenodd;stroke:#000000;stroke-width:2.0px;stroke-linecap:butt;stroke-linejoin:miter;stroke-opacity:1"/>
<path class="bond-25 atom-24 atom-26" d="M 44.7,578.8 L 47.0,554.0" style="fill:none;fill-rule:evenodd;stroke:#000000;stroke-width:2.0px;stroke-linecap:butt;stroke-linejoin:miter;stroke-opacity:1"/>
<path class="bond-26 atom-11 atom-6" d="M 176.1,590.2 L 190.8,616.7" style="fill:none;fill-rule:evenodd;stroke:#000000;stroke-width:2.0px;stroke-linecap:butt;stroke-linejoin:miter;stroke-opacity:1"/>
<path class="bond-27 atom-17 atom-12" d="M 121.3,567.6 L 147.0,571.9" style="fill:none;fill-rule:evenodd;stroke:#000000;stroke-width:2.0px;stroke-linecap:butt;stroke-linejoin:miter;stroke-opacity:1"/>
<path class="bond-28 atom-23 atom-18" d="M 69.5,596.3 L 92.1,576.0" style="fill:none;fill-rule:evenodd;stroke:#000000;stroke-width:2.0px;stroke-linecap:butt;stroke-linejoin:miter;stroke-opacity:1"/>
<path class="atom-0" d="M 127.0 734.2 Q 127.0 732.1, 128.0 731.0 Q 129.0 729.8, 130.9 729.8 Q 132.8 729.8, 133.9 731.0 Q 134.9 732.1, 134.9 734.2 Q 134.9 736.3, 133.8 737.5 Q 132.8 738.6, 130.9 738.6 Q 129.0 738.6, 128.0 737.5 Q 127.0 736.3, 127.0 734.2 M 130.9 737.7 Q 132.2 737.7, 132.9 736.8 Q 133.7 735.9, 133.7 734.2 Q 133.7 732.5, 132.9 731.6 Q 132.2 730.8, 130.9 730.8 Q 129.6 730.8, 128.9 731.6 Q 128.2 732.5, 128.2 734.2 Q 128.2 735.9, 128.9 736.8 Q 129.6 737.7, 130.9 737.7 " fill="#000000"/>
<path class="atom-3" d="M 179.1 670.8 L 181.9 675.4 Q 182.2 675.8, 182.6 676.6 Q 183.1 677.4, 183.1 677.5 L 183.1 670.8 L 184.2 670.8 L 184.2 679.4 L 183.0 679.4 L 180.0 674.4 Q 179.7 673.8, 179.3 673.2 Q 178.9 672.5, 178.8 672.3 L 178.8 679.4 L 177.7 679.4 L 177.7 670.8 L 179.1 670.8 " fill="#000000"/>
<path class="atom-3" d="M 185.2 670.8 L 186.4 670.8 L 186.4 674.5 L 190.8 674.5 L 190.8 670.8 L 192.0 670.8 L 192.0 679.4 L 190.8 679.4 L 190.8 675.4 L 186.4 675.4 L 186.4 679.4 L 185.2 679.4 L 185.2 670.8 " fill="#000000"/>
<path class="atom-5" d="M 218.5 652.1 Q 218.5 650.0, 219.6 648.9 Q 220.6 647.7, 222.5 647.7 Q 224.4 647.7, 225.4 648.9 Q 226.4 650.0, 226.4 652.1 Q 226.4 654.2, 225.4 655.4 Q 224.4 656.6, 222.5 656.6 Q 220.6 656.6, 219.6 655.4 Q 218.5 654.2, 218.5 652.1 M 222.5 655.6 Q 223.8 655.6, 224.5 654.7 Q 225.2 653.8, 225.2 652.1 Q 225.2 650.4, 224.5 649.6 Q 223.8 648.7, 222.5 648.7 Q 221.2 648.7, 220.5 649.6 Q 219.8 650.4, 219.8 652.1 Q 219.8 653.8, 220.5 654.7 Q 221.2 655.6, 222.5 655.6 " fill="#000000"/>
<path class="atom-12" d="M 149.4 568.3 L 152.2 572.9 Q 152.5 573.3, 152.9 574.1 Q 153.4 575.0, 153.4 575.0 L 153.4 568.3 L 154.5 568.3 L 154.5 576.9 L 153.3 576.9 L 150.3 571.9 Q 150.0 571.4, 149.6 570.7 Q 149.2 570.0, 149.1 569.8 L 149.1 576.9 L 148.0 576.9 L 148.0 568.3 L 149.4 568.3 " fill="#000000"/>
<path class="atom-15" d="M 126.1 515.7 Q 126.1 513.7, 127.1 512.5 Q 128.1 511.4, 130.1 511.4 Q 132.0 511.4, 133.0 512.5 Q 134.0 513.7, 134.0 515.7 Q 134.0 517.8, 133.0 519.0 Q 131.9 520.2, 130.1 520.2 Q 128.2 520.2, 127.1 519.0 Q 126.1 517.8, 126.1 515.7 M 130.1 519.2 Q 131.4 519.2, 132.1 518.3 Q 132.8 517.5, 132.8 515.7 Q 132.8 514.0, 132.1 513.2 Q 131.4 512.3, 130.1 512.3 Q 128.7 512.3, 128.0 513.2 Q 127.3 514.0, 127.3 515.7 Q 127.3 517.5, 128.0 518.3 Q 128.7 519.2, 130.1 519.2 " fill="#000000"/>
<path class="atom-25" d="M 13.2 591.5 Q 13.2 589.4, 14.2 588.3 Q 15.2 587.1, 17.2 587.1 Q 19.1 587.1, 20.1 588.3 Q 21.1 589.4, 21.1 591.5 Q 21.1 593.6, 20.1 594.8 Q 19.0 596.0, 17.2 596.0 Q 15.3 596.0, 14.2 594.8 Q 13.2 593.6, 13.2 591.5 M 17.2 595.0 Q 18.5 595.0, 19.2 594.1 Q 19.9 593.2, 19.9 591.5 Q 19.9 589.8, 19.2 589.0 Q 18.5 588.1, 17.2 588.1 Q 15.8 588.1, 15.1 588.9 Q 14.4 589.8, 14.4 591.5 Q 14.4 593.2, 15.1 594.1 Q 15.8 595.0, 17.2 595.0 " fill="#000000"/>
<path class="atom-26" d="M 43.6 548.6 Q 43.6 546.5, 44.6 545.3 Q 45.6 544.2, 47.5 544.2 Q 49.4 544.2, 50.5 545.3 Q 51.5 546.5, 51.5 548.6 Q 51.5 550.6, 50.4 551.8 Q 49.4 553.0, 47.5 553.0 Q 45.6 553.0, 44.6 551.8 Q 43.6 550.7, 43.6 548.6 M 47.5 552.0 Q 48.8 552.0, 49.5 551.2 Q 50.3 550.3, 50.3 548.6 Q 50.3 546.9, 49.5 546.0 Q 48.8 545.2, 47.5 545.2 Q 46.2 545.2, 45.5 546.0 Q 44.8 546.9, 44.8 548.6 Q 44.8 550.3, 45.5 551.2 Q 46.2 552.0, 47.5 552.0 " fill="#000000"/>
<path class="atom-26" d="M 52.1 545.6 L 55.0 545.6 L 55.0 546.2 L 52.1 546.2 L 52.1 545.6 " fill="#000000"/>
<path class="bond-0 atom-0 atom-1" d="M 279.5,618.3 L 311.7,601.7" style="fill:none;fill-rule:evenodd;stroke:#000000;stroke-width:2.0px;stroke-linecap:butt;stroke-linejoin:miter;stroke-opacity:1"/>
<path class="bond-1 atom-1 atom-2" d="M 311.7,601.7 L 347.1,624.4" style="fill:none;fill-rule:evenodd;stroke:#000000;stroke-width:2.0px;stroke-linecap:butt;stroke-linejoin:miter;stroke-opacity:1"/>
<path class="bond-1 atom-1 atom-2" d="M 311.6,613.6 L 336.3,629.5" style="fill:none;fill-rule:evenodd;stroke:#000000;stroke-width:2.0px;stroke-linecap:butt;stroke-linejoin:miter;stroke-opacity:1"/>
<path class="bond-2 atom-2 atom-3" d="M 369.1,621.2 L 399.0,605.8" style="fill:none;fill-rule:evenodd;stroke:#000000;stroke-width:2.0px;stroke-linecap:butt;stroke-linejoin:miter;stroke-opacity:1"/>
<path class="bond-3 atom-3 atom-4" d="M 399.0,605.8 L 401.3,555.4" style="fill:none;fill-rule:evenodd;stroke:#000000;stroke-width:2.0px;stroke-linecap:butt;stroke-linejoin:miter;stroke-opacity:1"/>
<path class="bond-3 atom-3 atom-4" d="M 409.4,598.7 L 411.1,563.4" style="fill:none;fill-rule:evenodd;stroke:#000000;stroke-width:2.0px;stroke-linecap:butt;stroke-linejoin:miter;stroke-opacity:1"/>
<path class="bond-4 atom-4 atom-5" d="M 401.3,555.4 L 446.2,532.2" style="fill:none;fill-rule:evenodd;stroke:#000000;stroke-width:2.0px;stroke-linecap:butt;stroke-linejoin:miter;stroke-opacity:1"/>
<path class="bond-5 atom-5 atom-6" d="M 446.2,532.2 L 488.6,559.4" style="fill:none;fill-rule:evenodd;stroke:#000000;stroke-width:2.0px;stroke-linecap:butt;stroke-linejoin:miter;stroke-opacity:1"/>
<path class="bond-5 atom-5 atom-6" d="M 447.1,544.8 L 476.8,563.9" style="fill:none;fill-rule:evenodd;stroke:#000000;stroke-width:2.0px;stroke-linecap:butt;stroke-linejoin:miter;stroke-opacity:1"/>
<path class="bond-6 atom-6 atom-7" d="M 488.6,559.4 L 486.3,609.8" style="fill:none;fill-rule:evenodd;stroke:#000000;stroke-width:2.0px;stroke-linecap:butt;stroke-linejoin:miter;stroke-opacity:1"/>
<path class="bond-7 atom-7 atom-8" d="M 486.3,609.8 L 441.5,633.0" style="fill:none;fill-rule:evenodd;stroke:#000000;stroke-width:2.0px;stroke-linecap:butt;stroke-linejoin:miter;stroke-opacity:1"/>
<path class="bond-7 atom-7 atom-8" d="M 474.9,604.4 L 443.6,620.6" style="fill:none;fill-rule:evenodd;stroke:#000000;stroke-width:2.0px;stroke-linecap:butt;stroke-linejoin:miter;stroke-opacity:1"/>
<path class="bond-8 atom-8 atom-9" d="M 441.5,633.0 L 439.1,683.4" style="fill:none;fill-rule:evenodd;stroke:#000000;stroke-width:2.0px;stroke-linecap:butt;stroke-linejoin:miter;stroke-opacity:1"/>
<path class="bond-9 atom-9 atom-10" d="M 439.1,683.4 L 400.2,703.5" style="fill:none;fill-rule:evenodd;stroke:#000000;stroke-width:2.0px;stroke-linecap:butt;stroke-linejoin:miter;stroke-opacity:1"/>
<path class="bond-10 atom-9 atom-11" d="M 439.1,683.4 L 475.7,706.9" style="fill:none;fill-rule:evenodd;stroke:#000000;stroke-width:2.0px;stroke-linecap:butt;stroke-linejoin:miter;stroke-opacity:1"/>
<path class="bond-11 atom-8 atom-3" d="M 441.5,633.0 L 399.0,605.8" style="fill:none;fill-rule:evenodd;stroke:#000000;stroke-width:2.0px;stroke-linecap:butt;stroke-linejoin:miter;stroke-opacity:1"/>
<path class="atom-0" d="M 261.4 624.9 Q 261.4 621.4, 263.0 619.5 Q 264.7 617.7, 267.9 617.7 Q 270.8 617.7, 272.4 619.7 L 271.1 620.8 Q 269.9 619.3, 267.9 619.3 Q 265.7 619.3, 264.6 620.8 Q 263.4 622.2, 263.4 624.9 Q 263.4 627.8, 264.6 629.2 Q 265.8 630.7, 268.1 630.7 Q 269.7 630.7, 271.5 629.7 L 272.1 631.2 Q 271.3 631.7, 270.2 632.0 Q 269.1 632.3, 267.8 632.3 Q 264.7 632.3, 263.0 630.4 Q 261.4 628.5, 261.4 624.9 " fill="#000000"/>
<path class="atom-0" d="M 273.2 620.0 L 278.1 620.0 L 278.1 621.1 L 273.2 621.1 L 273.2 620.0 " fill="#000000"/>
<path class="atom-2" d="M 351.0 621.8 L 355.7 629.4 Q 356.2 630.1, 356.9 631.5 Q 357.7 632.8, 357.7 632.9 L 357.7 621.8 L 359.6 621.8 L 359.6 636.1 L 357.6 636.1 L 352.6 627.8 Q 352.0 626.8, 351.4 625.7 Q 350.8 624.6, 350.6 624.3 L 350.6 636.1 L 348.8 636.1 L 348.8 621.8 L 351.0 621.8 " fill="#000000"/>
<path class="atom-2" d="M 361.3 624.4 L 363.8 624.4 L 363.8 621.7 L 364.9 621.7 L 364.9 624.4 L 367.5 624.4 L 367.5 625.3 L 364.9 625.3 L 364.9 628.0 L 363.8 628.0 L 363.8 625.3 L 361.3 625.3 L 361.3 624.4 " fill="#000000"/>
<path class="atom-2" d="M 348.6 637.5 L 350.5 637.5 L 350.5 643.6 L 357.8 643.6 L 357.8 637.5 L 359.8 637.5 L 359.8 651.8 L 357.8 651.8 L 357.8 645.2 L 350.5 645.2 L 350.5 651.8 L 348.6 651.8 L 348.6 637.5 " fill="#000000"/>
<path class="atom-10" d="M 390.0 699.4 L 398.5 699.4 L 398.5 701.1 L 392.0 701.1 L 392.0 705.4 L 397.8 705.4 L 397.8 707.1 L 392.0 707.1 L 392.0 713.7 L 390.0 713.7 L 390.0 699.4 " fill="#000000"/>
<path class="atom-11" d="M 477.3 703.5 L 485.8 703.5 L 485.8 705.1 L 479.3 705.1 L 479.3 709.5 L 485.1 709.5 L 485.1 711.1 L 479.3 711.1 L 479.3 717.8 L 477.3 717.8 L 477.3 703.5 " fill="#000000"/>
<path class="bond-0 atom-0 atom-1" d="M 690.4,553.3 L 705.5,565.4" style="fill:none;fill-rule:evenodd;stroke:#000000;stroke-width:2.0px;stroke-linecap:butt;stroke-linejoin:miter;stroke-opacity:1"/>
<path class="bond-1 atom-1 atom-2" d="M 705.5,565.4 L 723.5,558.3" style="fill:none;fill-rule:evenodd;stroke:#000000;stroke-width:2.0px;stroke-linecap:butt;stroke-linejoin:miter;stroke-opacity:1"/>
<path class="bond-1 atom-1 atom-2" d="M 709.6,567.9 L 722.2,563.0" style="fill:none;fill-rule:evenodd;stroke:#000000;stroke-width:2.0px;stroke-linecap:butt;stroke-linejoin:miter;stroke-opacity:1"/>
<path class="bond-2 atom-2 atom-3" d="M 723.5,558.3 L 738.6,570.4" style="fill:none;fill-rule:evenodd;stroke:#000000;stroke-width:2.0px;stroke-linecap:butt;stroke-linejoin:miter;stroke-opacity:1"/>
<path class="bond-3 atom-3 atom-4" d="M 738.6,570.4 L 735.7,589.6" style="fill:none;fill-rule:evenodd;stroke:#000000;stroke-width:2.0px;stroke-linecap:butt;stroke-linejoin:miter;stroke-opacity:1"/>
<path class="bond-3 atom-3 atom-4" d="M 734.4,572.7 L 732.3,586.1" style="fill:none;fill-rule:evenodd;stroke:#000000;stroke-width:2.0px;stroke-linecap:butt;stroke-linejoin:miter;stroke-opacity:1"/>
<path class="bond-4 atom-4 atom-5" d="M 735.7,589.6 L 717.7,596.6" style="fill:none;fill-rule:evenodd;stroke:#000000;stroke-width:2.0px;stroke-linecap:butt;stroke-linejoin:miter;stroke-opacity:1"/>
<path class="bond-5 atom-5 atom-6" d="M 717.7,596.6 L 702.6,584.5" style="fill:none;fill-rule:evenodd;stroke:#000000;stroke-width:2.0px;stroke-linecap:butt;stroke-linejoin:miter;stroke-opacity:1"/>
<path class="bond-5 atom-5 atom-6" d="M 717.9,591.8 L 707.3,583.3" style="fill:none;fill-rule:evenodd;stroke:#000000;stroke-width:2.0px;stroke-linecap:butt;stroke-linejoin:miter;stroke-opacity:1"/>
<path class="bond-6 atom-6 atom-7" d="M 702.6,584.5 L 687.7,590.3" style="fill:none;fill-rule:evenodd;stroke:#000000;stroke-width:2.0px;stroke-linecap:butt;stroke-linejoin:miter;stroke-opacity:1"/>
<path class="bond-7 atom-7 atom-8" d="M 684.1,595.0 L 681.7,610.7" style="fill:none;fill-rule:evenodd;stroke:#000000;stroke-width:2.0px;stroke-linecap:butt;stroke-linejoin:miter;stroke-opacity:1"/>
<path class="bond-8 atom-8 atom-9" d="M 681.7,610.7 L 663.7,617.7" style="fill:none;fill-rule:evenodd;stroke:#000000;stroke-width:2.0px;stroke-linecap:butt;stroke-linejoin:miter;stroke-opacity:1"/>
<path class="bond-9 atom-9 atom-10" d="M 662.4,619.2 L 650.5,609.7" style="fill:none;fill-rule:evenodd;stroke:#000000;stroke-width:2.0px;stroke-linecap:butt;stroke-linejoin:miter;stroke-opacity:1"/>
<path class="bond-9 atom-9 atom-10" d="M 664.9,616.2 L 652.9,606.6" style="fill:none;fill-rule:evenodd;stroke:#000000;stroke-width:2.0px;stroke-linecap:butt;stroke-linejoin:miter;stroke-opacity:1"/>
<path class="bond-10 atom-9 atom-11" d="M 663.7,617.7 L 661.3,633.5" style="fill:none;fill-rule:evenodd;stroke:#000000;stroke-width:2.0px;stroke-linecap:butt;stroke-linejoin:miter;stroke-opacity:1"/>
<path class="bond-11 atom-11 atom-12" d="M 663.5,639.5 L 674.5,650.4" style="fill:none;fill-rule:evenodd;stroke:#000000;stroke-width:2.0px;stroke-linecap:butt;stroke-linejoin:miter;stroke-opacity:1"/>
<path class="bond-12 atom-12 atom-13" d="M 674.5,650.4 L 665.8,667.7" style="fill:none;fill-rule:evenodd;stroke:#000000;stroke-width:2.0px;stroke-linecap:butt;stroke-linejoin:miter;stroke-opacity:1"/>
<path class="bond-13 atom-13 atom-14" d="M 665.8,667.7 L 646.7,664.8" style="fill:none;fill-rule:evenodd;stroke:#000000;stroke-width:2.0px;stroke-linecap:butt;stroke-linejoin:miter;stroke-opacity:1"/>
<path class="bond-14 atom-14 atom-15" d="M 646.7,664.8 L 643.6,645.7" style="fill:none;fill-rule:evenodd;stroke:#000000;stroke-width:2.0px;stroke-linecap:butt;stroke-linejoin:miter;stroke-opacity:1"/>
<path class="bond-15 atom-15 atom-16" d="M 643.6,645.7 L 628.7,638.2" style="fill:none;fill-rule:evenodd;stroke:#000000;stroke-width:2.0px;stroke-linecap:butt;stroke-linejoin:miter;stroke-opacity:1"/>
<path class="bond-15 atom-15 atom-16" d="M 639.6,648.1 L 629.2,642.8" style="fill:none;fill-rule:evenodd;stroke:#000000;stroke-width:2.0px;stroke-linecap:butt;stroke-linejoin:miter;stroke-opacity:1"/>
<path class="bond-16 atom-16 atom-17" d="M 626.1,633.7 L 625.3,621.2" style="fill:none;fill-rule:evenodd;stroke:#000000;stroke-width:2.0px;stroke-linecap:butt;stroke-linejoin:miter;stroke-opacity:1"/>
<path class="bond-17 atom-16 atom-18" d="M 623.9,638.6 L 612.8,645.9" style="fill:none;fill-rule:evenodd;stroke:#000000;stroke-width:2.0px;stroke-linecap:butt;stroke-linejoin:miter;stroke-opacity:1"/>
<path class="bond-18 atom-18 atom-19" d="M 610.6,651.0 L 612.7,666.8" style="fill:none;fill-rule:evenodd;stroke:#000000;stroke-width:2.0px;stroke-linecap:butt;stroke-linejoin:miter;stroke-opacity:1"/>
<path class="bond-19 atom-19 atom-20" d="M 612.7,666.8 L 599.3,680.8" style="fill:none;fill-rule:evenodd;stroke:#000000;stroke-width:2.0px;stroke-linecap:butt;stroke-linejoin:miter;stroke-opacity:1"/>
<path class="bond-20 atom-20 atom-21" d="M 599.3,680.8 L 580.0,679.0" style="fill:none;fill-rule:evenodd;stroke:#000000;stroke-width:2.0px;stroke-linecap:butt;stroke-linejoin:miter;stroke-opacity:1"/>
<path class="bond-20 atom-20 atom-21" d="M 596.0,684.4 L 582.6,683.2" style="fill:none;fill-rule:evenodd;stroke:#000000;stroke-width:2.0px;stroke-linecap:butt;stroke-linejoin:miter;stroke-opacity:1"/>
<path class="bond-21 atom-21 atom-22" d="M 580.0,679.0 L 572.4,696.8" style="fill:none;fill-rule:evenodd;stroke:#000000;stroke-width:2.0px;stroke-linecap:butt;stroke-linejoin:miter;stroke-opacity:1"/>
<path class="bond-22 atom-22 atom-23" d="M 572.4,696.8 L 586.9,709.6" style="fill:none;fill-rule:evenodd;stroke:#000000;stroke-width:2.0px;stroke-linecap:butt;stroke-linejoin:miter;stroke-opacity:1"/>
<path class="bond-22 atom-22 atom-23" d="M 577.1,695.8 L 587.3,704.7" style="fill:none;fill-rule:evenodd;stroke:#000000;stroke-width:2.0px;stroke-linecap:butt;stroke-linejoin:miter;stroke-opacity:1"/>
<path class="bond-23 atom-23 atom-24" d="M 586.9,709.6 L 601.2,701.1" style="fill:none;fill-rule:evenodd;stroke:#000000;stroke-width:2.0px;stroke-linecap:butt;stroke-linejoin:miter;stroke-opacity:1"/>
<path class="bond-24 atom-18 atom-25" d="M 607.4,646.0 L 593.5,637.7" style="fill:none;fill-rule:evenodd;stroke:#000000;stroke-width:2.0px;stroke-linecap:butt;stroke-linejoin:miter;stroke-opacity:1"/>
<path class="bond-25 atom-25 atom-26" d="M 593.5,637.7 L 604.2,621.6" style="fill:none;fill-rule:evenodd;stroke:#000000;stroke-width:2.0px;stroke-linecap:butt;stroke-linejoin:miter;stroke-opacity:1"/>
<path class="bond-26 atom-26 atom-27" d="M 604.2,621.6 L 603.5,605.8" style="fill:none;fill-rule:evenodd;stroke:#000000;stroke-width:2.0px;stroke-linecap:butt;stroke-linejoin:miter;stroke-opacity:1"/>
<path class="bond-26 atom-26 atom-27" d="M 600.2,619.4 L 599.8,608.3" style="fill:none;fill-rule:evenodd;stroke:#000000;stroke-width:2.0px;stroke-linecap:butt;stroke-linejoin:miter;stroke-opacity:1"/>
<path class="bond-27 atom-27 atom-28" d="M 600.7,598.9 L 591.3,587.1" style="fill:none;fill-rule:evenodd;stroke:#000000;stroke-width:2.0px;stroke-linecap:butt;stroke-linejoin:miter;stroke-opacity:1"/>
<path class="bond-28 atom-28 atom-29" d="M 591.3,587.1 L 605.1,573.6" style="fill:none;fill-rule:evenodd;stroke:#000000;stroke-width:2.0px;stroke-linecap:butt;stroke-linejoin:miter;stroke-opacity:1"/>
<path class="bond-28 atom-28 atom-29" d="M 590.7,582.3 L 600.3,572.8" style="fill:none;fill-rule:evenodd;stroke:#000000;stroke-width:2.0px;stroke-linecap:butt;stroke-linejoin:miter;stroke-opacity:1"/>
<path class="bond-29 atom-29 atom-30" d="M 605.1,573.6 L 600.3,554.8" style="fill:none;fill-rule:evenodd;stroke:#000000;stroke-width:2.0px;stroke-linecap:butt;stroke-linejoin:miter;stroke-opacity:1"/>
<path class="bond-30 atom-30 atom-31" d="M 600.3,554.8 L 581.7,549.7" style="fill:none;fill-rule:evenodd;stroke:#000000;stroke-width:2.0px;stroke-linecap:butt;stroke-linejoin:miter;stroke-opacity:1"/>
<path class="bond-30 atom-30 atom-31" d="M 596.5,557.8 L 583.4,554.2" style="fill:none;fill-rule:evenodd;stroke:#000000;stroke-width:2.0px;stroke-linecap:butt;stroke-linejoin:miter;stroke-opacity:1"/>
<path class="bond-31 atom-31 atom-32" d="M 581.7,549.7 L 567.9,563.2" style="fill:none;fill-rule:evenodd;stroke:#000000;stroke-width:2.0px;stroke-linecap:butt;stroke-linejoin:miter;stroke-opacity:1"/>
<path class="bond-32 atom-32 atom-33" d="M 567.9,563.2 L 572.7,582.0" style="fill:none;fill-rule:evenodd;stroke:#000000;stroke-width:2.0px;stroke-linecap:butt;stroke-linejoin:miter;stroke-opacity:1"/>
<path class="bond-32 atom-32 atom-33" d="M 572.3,565.1 L 575.7,578.2" style="fill:none;fill-rule:evenodd;stroke:#000000;stroke-width:2.0px;stroke-linecap:butt;stroke-linejoin:miter;stroke-opacity:1"/>
<path class="bond-33 atom-33 atom-34" d="M 572.7,582.0 L 557.0,587.8" style="fill:none;fill-rule:evenodd;stroke:#000000;stroke-width:2.0px;stroke-linecap:butt;stroke-linejoin:miter;stroke-opacity:1"/>
<path class="bond-34 atom-34 atom-35" d="M 552.2,585.7 L 542.5,573.6" style="fill:none;fill-rule:evenodd;stroke:#000000;stroke-width:2.0px;stroke-linecap:butt;stroke-linejoin:miter;stroke-opacity:1"/>
<path class="bond-35 atom-35 atom-36" d="M 542.5,573.6 L 549.6,555.6" style="fill:none;fill-rule:evenodd;stroke:#000000;stroke-width:2.0px;stroke-linecap:butt;stroke-linejoin:miter;stroke-opacity:1"/>
<path class="bond-35 atom-35 atom-36" d="M 540.0,569.5 L 545.0,556.9" style="fill:none;fill-rule:evenodd;stroke:#000000;stroke-width:2.0px;stroke-linecap:butt;stroke-linejoin:miter;stroke-opacity:1"/>
<path class="bond-36 atom-36 atom-37" d="M 549.6,555.6 L 537.6,540.4" style="fill:none;fill-rule:evenodd;stroke:#000000;stroke-width:2.0px;stroke-linecap:butt;stroke-linejoin:miter;stroke-opacity:1"/>
<path class="bond-37 atom-37 atom-38" d="M 537.6,540.4 L 518.5,543.3" style="fill:none;fill-rule:evenodd;stroke:#000000;stroke-width:2.0px;stroke-linecap:butt;stroke-linejoin:miter;stroke-opacity:1"/>
<path class="bond-37 atom-37 atom-38" d="M 535.3,544.7 L 521.9,546.7" style="fill:none;fill-rule:evenodd;stroke:#000000;stroke-width:2.0px;stroke-linecap:butt;stroke-linejoin:miter;stroke-opacity:1"/>
<path class="bond-38 atom-38 atom-39" d="M 518.5,543.3 L 511.4,561.3" style="fill:none;fill-rule:evenodd;stroke:#000000;stroke-width:2.0px;stroke-linecap:butt;stroke-linejoin:miter;stroke-opacity:1"/>
<path class="bond-39 atom-39 atom-40" d="M 511.4,561.3 L 523.4,576.4" style="fill:none;fill-rule:evenodd;stroke:#000000;stroke-width:2.0px;stroke-linecap:butt;stroke-linejoin:miter;stroke-opacity:1"/>
<path class="bond-39 atom-39 atom-40" d="M 516.2,561.2 L 524.6,571.8" style="fill:none;fill-rule:evenodd;stroke:#000000;stroke-width:2.0px;stroke-linecap:butt;stroke-linejoin:miter;stroke-opacity:1"/>
<path class="bond-40 atom-34 atom-41" d="M 552.2,592.2 L 543.9,604.8" style="fill:none;fill-rule:evenodd;stroke:#000000;stroke-width:2.0px;stroke-linecap:butt;stroke-linejoin:miter;stroke-opacity:1"/>
<path class="bond-41 atom-41 atom-42" d="M 543.9,604.8 L 527.6,615.2" style="fill:none;fill-rule:evenodd;stroke:#000000;stroke-width:2.0px;stroke-linecap:butt;stroke-linejoin:miter;stroke-opacity:1"/>
<path class="bond-42 atom-42 atom-43" d="M 527.6,615.2 L 544.7,624.2" style="fill:none;fill-rule:evenodd;stroke:#000000;stroke-width:2.0px;stroke-linecap:butt;stroke-linejoin:miter;stroke-opacity:1"/>
<path class="bond-43 atom-43 atom-44" d="M 544.7,624.2 L 554.4,636.3" style="fill:none;fill-rule:evenodd;stroke:#000000;stroke-width:2.0px;stroke-linecap:butt;stroke-linejoin:miter;stroke-opacity:1"/>
<path class="bond-44 atom-44 atom-45" d="M 559.2,640.0 L 575.4,644.5" style="fill:none;fill-rule:evenodd;stroke:#000000;stroke-width:2.0px;stroke-linecap:butt;stroke-linejoin:miter;stroke-opacity:1"/>
<path class="bond-45 atom-45 atom-46" d="M 575.4,644.5 L 570.5,659.5" style="fill:none;fill-rule:evenodd;stroke:#000000;stroke-width:2.0px;stroke-linecap:butt;stroke-linejoin:miter;stroke-opacity:1"/>
<path class="bond-46 atom-6 atom-1" d="M 702.6,584.5 L 705.5,565.4" style="fill:none;fill-rule:evenodd;stroke:#000000;stroke-width:2.0px;stroke-linecap:butt;stroke-linejoin:miter;stroke-opacity:1"/>
<path class="bond-47 atom-15 atom-11" d="M 643.6,645.7 L 658.0,638.2" style="fill:none;fill-rule:evenodd;stroke:#000000;stroke-width:2.0px;stroke-linecap:butt;stroke-linejoin:miter;stroke-opacity:1"/>
<path class="bond-48 atom-24 atom-20" d="M 602.8,696.3 L 599.3,680.8" style="fill:none;fill-rule:evenodd;stroke:#000000;stroke-width:2.0px;stroke-linecap:butt;stroke-linejoin:miter;stroke-opacity:1"/>
<path class="bond-49 atom-46 atom-21" d="M 571.7,666.4 L 580.0,679.0" style="fill:none;fill-rule:evenodd;stroke:#000000;stroke-width:2.0px;stroke-linecap:butt;stroke-linejoin:miter;stroke-opacity:1"/>
<path class="bond-50 atom-45 atom-25" d="M 575.4,644.5 L 593.5,637.7" style="fill:none;fill-rule:evenodd;stroke:#000000;stroke-width:2.0px;stroke-linecap:butt;stroke-linejoin:miter;stroke-opacity:1"/>
<path class="bond-51 atom-33 atom-28" d="M 572.7,582.0 L 591.3,587.1" style="fill:none;fill-rule:evenodd;stroke:#000000;stroke-width:2.0px;stroke-linecap:butt;stroke-linejoin:miter;stroke-opacity:1"/>
<path class="bond-52 atom-40 atom-35" d="M 523.4,576.4 L 542.5,573.6" style="fill:none;fill-rule:evenodd;stroke:#000000;stroke-width:2.0px;stroke-linecap:butt;stroke-linejoin:miter;stroke-opacity:1"/>
<path class="bond-53 atom-43 atom-41" d="M 544.7,624.2 L 543.9,604.8" style="fill:none;fill-rule:evenodd;stroke:#000000;stroke-width:2.0px;stroke-linecap:butt;stroke-linejoin:miter;stroke-opacity:1"/>
<path class="atom-7" d="M 682.1 591.6 Q 682.1 590.2, 682.7 589.5 Q 683.4 588.8, 684.6 588.8 Q 685.8 588.8, 686.4 589.5 Q 687.1 590.2, 687.1 591.6 Q 687.1 592.9, 686.4 593.7 Q 685.8 594.4, 684.6 594.4 Q 683.4 594.4, 682.7 593.7 Q 682.1 592.9, 682.1 591.6 M 684.6 593.8 Q 685.4 593.8, 685.9 593.2 Q 686.3 592.7, 686.3 591.6 Q 686.3 590.5, 685.9 589.9 Q 685.4 589.4, 684.6 589.4 Q 683.7 589.4, 683.3 589.9 Q 682.8 590.5, 682.8 591.6 Q 682.8 592.7, 683.3 593.2 Q 683.7 593.8, 684.6 593.8 " fill="#000000"/>
<path class="atom-10" d="M 646.0 605.6 Q 646.0 604.3, 646.7 603.6 Q 647.3 602.9, 648.5 602.9 Q 649.8 602.9, 650.4 603.6 Q 651.1 604.3, 651.1 605.6 Q 651.1 607.0, 650.4 607.7 Q 649.7 608.5, 648.5 608.5 Q 647.3 608.5, 646.7 607.7 Q 646.0 607.0, 646.0 605.6 M 648.5 607.9 Q 649.4 607.9, 649.8 607.3 Q 650.3 606.7, 650.3 605.6 Q 650.3 604.6, 649.8 604.0 Q 649.4 603.5, 648.5 603.5 Q 647.7 603.5, 647.3 604.0 Q 646.8 604.6, 646.8 605.6 Q 646.8 606.7, 647.3 607.3 Q 647.7 607.9, 648.5 607.9 " fill="#000000"/>
<path class="atom-11" d="M 659.5 634.1 L 661.3 637.0 Q 661.5 637.3, 661.8 637.8 Q 662.1 638.3, 662.1 638.3 L 662.1 634.1 L 662.8 634.1 L 662.8 639.6 L 662.1 639.6 L 660.1 636.4 Q 659.9 636.0, 659.7 635.6 Q 659.4 635.2, 659.4 635.0 L 659.4 639.6 L 658.7 639.6 L 658.7 634.1 L 659.5 634.1 " fill="#000000"/>
<path class="atom-16" d="M 626.1 634.3 Q 627.1 634.3, 627.5 634.7 Q 628.0 635.1, 628.0 635.9 Q 628.0 636.7, 627.5 637.1 Q 627.1 637.5, 626.1 637.5 L 625.3 637.5 L 625.3 639.8 L 624.5 639.8 L 624.5 634.3 L 626.1 634.3 M 626.1 636.9 Q 626.7 636.9, 627.0 636.6 Q 627.2 636.4, 627.2 635.9 Q 627.2 635.4, 627.0 635.2 Q 626.7 634.9, 626.1 634.9 L 625.3 634.9 L 625.3 636.9 L 626.1 636.9 " fill="#000000"/>
<path class="atom-16" d="M 628.4 635.3 L 629.3 635.3 L 629.3 634.3 L 629.8 634.3 L 629.8 635.3 L 630.8 635.3 L 630.8 635.7 L 629.8 635.7 L 629.8 636.7 L 629.3 636.7 L 629.3 635.7 L 628.4 635.7 L 628.4 635.3 " fill="#000000"/>
<path class="atom-17" d="M 622.6 617.7 Q 622.6 616.4, 623.3 615.7 Q 623.9 615.0, 625.1 615.0 Q 626.4 615.0, 627.0 615.7 Q 627.7 616.4, 627.7 617.7 Q 627.7 619.1, 627.0 619.8 Q 626.3 620.6, 625.1 620.6 Q 623.9 620.6, 623.3 619.8 Q 622.6 619.1, 622.6 617.7 M 625.1 620.0 Q 626.0 620.0, 626.4 619.4 Q 626.9 618.8, 626.9 617.7 Q 626.9 616.7, 626.4 616.1 Q 626.0 615.6, 625.1 615.6 Q 624.3 615.6, 623.9 616.1 Q 623.4 616.7, 623.4 617.7 Q 623.4 618.8, 623.9 619.4 Q 624.3 620.0, 625.1 620.0 " fill="#000000"/>
<path class="atom-17" d="M 628.0 615.8 L 629.9 615.8 L 629.9 616.3 L 628.0 616.3 L 628.0 615.8 " fill="#000000"/>
<path class="atom-18" d="M 608.9 644.9 L 610.7 647.8 Q 610.9 648.1, 611.2 648.6 Q 611.4 649.2, 611.5 649.2 L 611.5 644.9 L 612.2 644.9 L 612.2 650.4 L 611.4 650.4 L 609.5 647.2 Q 609.3 646.9, 609.0 646.4 Q 608.8 646.0, 608.7 645.9 L 608.7 650.4 L 608.0 650.4 L 608.0 644.9 L 608.9 644.9 " fill="#000000"/>
<path class="atom-24" d="M 602.0 701.5 Q 602.1 701.6, 602.3 701.7 Q 602.6 701.8, 602.9 701.9 Q 603.2 701.9, 603.4 701.9 Q 604.0 701.9, 604.3 701.7 Q 604.6 701.4, 604.6 701.0 Q 604.6 700.7, 604.4 700.5 Q 604.3 700.3, 604.0 700.2 Q 603.8 700.1, 603.4 700.0 Q 602.9 699.8, 602.6 699.7 Q 602.3 699.6, 602.1 699.3 Q 601.9 699.0, 601.9 698.5 Q 601.9 697.8, 602.4 697.4 Q 602.9 696.9, 603.8 696.9 Q 604.4 696.9, 605.1 697.2 L 605.0 697.8 Q 604.3 697.6, 603.8 697.6 Q 603.3 697.6, 603.0 697.8 Q 602.7 698.0, 602.7 698.4 Q 602.7 698.7, 602.8 698.9 Q 603.0 699.0, 603.2 699.1 Q 603.4 699.2, 603.8 699.3 Q 604.3 699.5, 604.6 699.7 Q 604.9 699.8, 605.1 700.1 Q 605.3 700.4, 605.3 701.0 Q 605.3 701.7, 604.8 702.1 Q 604.3 702.5, 603.5 702.5 Q 603.0 702.5, 602.6 702.4 Q 602.2 702.3, 601.8 702.2 L 602.0 701.5 " fill="#000000"/>
<path class="atom-27" d="M 600.9 602.3 Q 600.9 601.0, 601.5 600.2 Q 602.2 599.5, 603.4 599.5 Q 604.6 599.5, 605.2 600.2 Q 605.9 601.0, 605.9 602.3 Q 605.9 603.6, 605.2 604.4 Q 604.6 605.1, 603.4 605.1 Q 602.2 605.1, 601.5 604.4 Q 600.9 603.6, 600.9 602.3 M 603.4 604.5 Q 604.2 604.5, 604.6 603.9 Q 605.1 603.4, 605.1 602.3 Q 605.1 601.2, 604.6 600.7 Q 604.2 600.1, 603.4 600.1 Q 602.5 600.1, 602.1 600.7 Q 601.6 601.2, 601.6 602.3 Q 601.6 603.4, 602.1 603.9 Q 602.5 604.5, 603.4 604.5 " fill="#000000"/>
<path class="atom-27" d="M 606.3 600.5 L 607.2 600.5 L 607.2 599.5 L 607.7 599.5 L 607.7 600.5 L 608.7 600.5 L 608.7 600.8 L 607.7 600.8 L 607.7 601.9 L 607.2 601.9 L 607.2 600.8 L 606.3 600.8 L 606.3 600.5 " fill="#000000"/>
<path class="atom-34" d="M 553.0 590.6 Q 553.1 590.6, 553.3 590.7 Q 553.6 590.8, 553.9 590.9 Q 554.2 591.0, 554.4 591.0 Q 555.0 591.0, 555.3 590.7 Q 555.6 590.5, 555.6 590.0 Q 555.6 589.7, 555.4 589.5 Q 555.3 589.4, 555.0 589.3 Q 554.8 589.2, 554.4 589.0 Q 553.9 588.9, 553.6 588.7 Q 553.3 588.6, 553.1 588.3 Q 552.9 588.0, 552.9 587.5 Q 552.9 586.8, 553.4 586.4 Q 553.9 586.0, 554.8 586.0 Q 555.4 586.0, 556.1 586.3 L 556.0 586.9 Q 555.3 586.6, 554.8 586.6 Q 554.3 586.6, 554.0 586.8 Q 553.7 587.1, 553.7 587.4 Q 553.7 587.7, 553.8 587.9 Q 554.0 588.1, 554.2 588.2 Q 554.4 588.3, 554.8 588.4 Q 555.3 588.6, 555.6 588.7 Q 555.9 588.9, 556.1 589.2 Q 556.3 589.5, 556.3 590.0 Q 556.3 590.8, 555.8 591.2 Q 555.3 591.6, 554.5 591.6 Q 554.0 591.6, 553.6 591.5 Q 553.2 591.4, 552.8 591.2 L 553.0 590.6 " fill="#000000"/>
<path class="atom-44" d="M 555.2 641.2 Q 555.3 641.2, 555.5 641.3 Q 555.8 641.4, 556.1 641.5 Q 556.4 641.6, 556.6 641.6 Q 557.1 641.6, 557.5 641.3 Q 557.8 641.1, 557.8 640.6 Q 557.8 640.3, 557.6 640.1 Q 557.5 639.9, 557.2 639.8 Q 557.0 639.7, 556.6 639.6 Q 556.1 639.5, 555.8 639.3 Q 555.5 639.2, 555.3 638.9 Q 555.1 638.6, 555.1 638.1 Q 555.1 637.4, 555.6 637.0 Q 556.1 636.6, 557.0 636.6 Q 557.6 636.6, 558.3 636.9 L 558.2 637.5 Q 557.5 637.2, 557.0 637.2 Q 556.5 637.2, 556.2 637.4 Q 555.9 637.6, 555.9 638.0 Q 555.9 638.3, 556.0 638.5 Q 556.2 638.7, 556.4 638.8 Q 556.6 638.9, 557.0 639.0 Q 557.5 639.2, 557.8 639.3 Q 558.1 639.5, 558.3 639.8 Q 558.5 640.1, 558.5 640.6 Q 558.5 641.4, 558.0 641.8 Q 557.5 642.2, 556.7 642.2 Q 556.2 642.2, 555.8 642.1 Q 555.4 642.0, 555.0 641.8 L 555.2 641.2 " fill="#000000"/>
<path class="atom-46" d="M 566.9 662.9 Q 566.9 661.6, 567.5 660.8 Q 568.2 660.1, 569.4 660.1 Q 570.6 660.1, 571.3 660.8 Q 571.9 661.6, 571.9 662.9 Q 571.9 664.2, 571.3 665.0 Q 570.6 665.7, 569.4 665.7 Q 568.2 665.7, 567.5 665.0 Q 566.9 664.2, 566.9 662.9 M 569.4 665.1 Q 570.2 665.1, 570.7 664.6 Q 571.1 664.0, 571.1 662.9 Q 571.1 661.8, 570.7 661.3 Q 570.2 660.7, 569.4 660.7 Q 568.6 660.7, 568.1 661.3 Q 567.7 661.8, 567.7 662.9 Q 567.7 664.0, 568.1 664.6 Q 568.6 665.1, 569.4 665.1 " fill="#000000"/>
<path class="atom-34" d="M 557.9,588.7 L 557.9,588.8 L 557.9,588.8 L 557.9,588.8 L 557.9,588.8 L 557.8,588.9 L 557.8,588.9 L 557.8,588.9 L 557.8,589.0 L 557.8,589.0 L 557.7,589.0 L 557.7,589.0 L 557.7,589.1 L 557.7,589.1 L 557.6,589.1 L 557.6,589.1 L 557.6,589.1 L 557.5,589.1 L 557.5,589.1 L 557.5,589.1 L 557.4,589.1 L 557.4,589.1 L 557.4,589.1 L 557.3,589.1 L 557.3,589.1 L 557.3,589.0 L 557.2,589.0 L 557.2,589.0 L 557.2,589.0 L 557.2,589.0 L 557.2,588.9 L 557.1,588.9 L 557.1,588.9 L 557.1,588.8 L 557.1,588.8 L 557.1,588.8 L 557.1,588.7 L 557.1,588.7 L 557.1,588.7 L 557.1,588.6 L 557.1,588.6 L 557.1,588.6 L 557.1,588.5 L 557.2,588.5 L 557.2,588.5 L 557.2,588.5 L 557.2,588.4 L 557.2,588.4 L 557.3,588.4 L 557.3,588.4 L 557.3,588.4 L 557.4,588.4 L 557.4,588.3 L 557.4,588.3 L 557.5,588.3 L 557.5,588.3 L 557.5,588.3 L 557.6,588.3 L 557.6,588.3 L 557.6,588.4 L 557.7,588.4 L 557.7,588.4 L 557.7,588.4 L 557.7,588.4 L 557.8,588.4 L 557.8,588.5 L 557.8,588.5 L 557.8,588.5 L 557.8,588.6 L 557.9,588.6 L 557.9,588.6 L 557.9,588.7 L 557.9,588.7 L 557.9,588.7 L 557.5,588.7 Z" style="fill:#000000;fill-rule:evenodd;fill-opacity:1;stroke:#000000;stroke-width:0.0px;stroke-linecap:butt;stroke-linejoin:miter;stroke-opacity:1;"/>
</svg>