<svg xmlns="http://www.w3.org/2000/svg" xmlns:rdkit="http://www.rdkit.org/xml" xmlns:xlink="http://www.w3.org/1999/xlink" version="1.1" baseProfile="full" xml:space="preserve" width="750px" height="750px" viewBox="0 0 750 750">
<!-- END OF HEADER -->
<rect style="opacity:1.0;fill:#FFFFFF;stroke:none" width="750.0" height="750.0" x="0.0" y="0.0"> </rect>
<path class="bond-0 atom-0 atom-1" d="M 164.7,155.0 L 167.2,180.4" style="fill:none;fill-rule:evenodd;stroke:#000000;stroke-width:2.0px;stroke-linecap:butt;stroke-linejoin:miter;stroke-opacity:1"/>
<path class="bond-0 atom-0 atom-1" d="M 156.8,155.7 L 159.3,181.2" style="fill:none;fill-rule:evenodd;stroke:#000000;stroke-width:2.0px;stroke-linecap:butt;stroke-linejoin:miter;stroke-opacity:1"/>
<path class="bond-1 atom-0 atom-2" d="M 162.7,141.3 L 183.7,126.3" style="fill:none;fill-rule:evenodd;stroke:#000000;stroke-width:2.0px;stroke-linecap:butt;stroke-linejoin:miter;stroke-opacity:1"/>
<path class="bond-1 atom-0 atom-2" d="M 167.3,147.8 L 188.4,132.8" style="fill:none;fill-rule:evenodd;stroke:#000000;stroke-width:2.0px;stroke-linecap:butt;stroke-linejoin:miter;stroke-opacity:1"/>
<path class="bond-2 atom-0 atom-3" d="M 155.1,145.8 L 123.7,131.6" style="fill:none;fill-rule:evenodd;stroke:#000000;stroke-width:2.0px;stroke-linecap:butt;stroke-linejoin:miter;stroke-opacity:1"/>
<path class="bond-3 atom-3 atom-4" d="M 123.7,131.6 L 91.3,154.8" style="fill:none;fill-rule:evenodd;stroke:#000000;stroke-width:2.0px;stroke-linecap:butt;stroke-linejoin:miter;stroke-opacity:1"/>
<path class="bond-3 atom-3 atom-4" d="M 114.2,128.5 L 91.5,144.8" style="fill:none;fill-rule:evenodd;stroke:#000000;stroke-width:2.0px;stroke-linecap:butt;stroke-linejoin:miter;stroke-opacity:1"/>
<path class="bond-4 atom-4 atom-5" d="M 91.3,154.8 L 54.9,138.2" style="fill:none;fill-rule:evenodd;stroke:#000000;stroke-width:2.0px;stroke-linecap:butt;stroke-linejoin:miter;stroke-opacity:1"/>
<path class="bond-5 atom-5 atom-6" d="M 54.9,138.2 L 51.1,98.5" style="fill:none;fill-rule:evenodd;stroke:#000000;stroke-width:2.0px;stroke-linecap:butt;stroke-linejoin:miter;stroke-opacity:1"/>
<path class="bond-5 atom-5 atom-6" d="M 62.3,131.5 L 59.6,103.7" style="fill:none;fill-rule:evenodd;stroke:#000000;stroke-width:2.0px;stroke-linecap:butt;stroke-linejoin:miter;stroke-opacity:1"/>
<path class="bond-6 atom-6 atom-7" d="M 51.1,98.5 L 19.4,84.1" style="fill:none;fill-rule:evenodd;stroke:#000000;stroke-width:2.0px;stroke-linecap:butt;stroke-linejoin:miter;stroke-opacity:1"/>
<path class="bond-7 atom-6 atom-8" d="M 51.1,98.5 L 83.5,75.3" style="fill:none;fill-rule:evenodd;stroke:#000000;stroke-width:2.0px;stroke-linecap:butt;stroke-linejoin:miter;stroke-opacity:1"/>
<path class="bond-8 atom-8 atom-9" d="M 83.5,75.3 L 119.9,91.8" style="fill:none;fill-rule:evenodd;stroke:#000000;stroke-width:2.0px;stroke-linecap:butt;stroke-linejoin:miter;stroke-opacity:1"/>
<path class="bond-8 atom-8 atom-9" d="M 85.7,85.0 L 111.1,96.6" style="fill:none;fill-rule:evenodd;stroke:#000000;stroke-width:2.0px;stroke-linecap:butt;stroke-linejoin:miter;stroke-opacity:1"/>
<path class="bond-9 atom-9 atom-10" d="M 119.9,91.8 L 152.4,68.6" style="fill:none;fill-rule:evenodd;stroke:#000000;stroke-width:2.0px;stroke-linecap:butt;stroke-linejoin:miter;stroke-opacity:1"/>
<path class="bond-10 atom-10 atom-11" d="M 152.4,68.6 L 183.1,82.6" style="fill:none;fill-rule:evenodd;stroke:#000000;stroke-width:2.0px;stroke-linecap:butt;stroke-linejoin:miter;stroke-opacity:1"/>
<path class="bond-10 atom-10 atom-11" d="M 153.7,78.0 L 175.2,87.8" style="fill:none;fill-rule:evenodd;stroke:#000000;stroke-width:2.0px;stroke-linecap:butt;stroke-linejoin:miter;stroke-opacity:1"/>
<path class="bond-11 atom-11 atom-12" d="M 194.3,81.1 L 215.6,65.9" style="fill:none;fill-rule:evenodd;stroke:#000000;stroke-width:2.0px;stroke-linecap:butt;stroke-linejoin:miter;stroke-opacity:1"/>
<path class="bond-12 atom-9 atom-3" d="M 119.9,91.8 L 123.7,131.6" style="fill:none;fill-rule:evenodd;stroke:#000000;stroke-width:2.0px;stroke-linecap:butt;stroke-linejoin:miter;stroke-opacity:1"/>
<path class="atom-0" d="M 156.9 152.0 Q 157.0 152.0, 157.5 152.2 Q 158.1 152.5, 158.6 152.6 Q 159.2 152.7, 159.8 152.7 Q 160.9 152.7, 161.5 152.2 Q 162.1 151.7, 162.1 150.8 Q 162.1 150.2, 161.8 149.8 Q 161.5 149.4, 161.0 149.2 Q 160.5 149.0, 159.7 148.7 Q 158.7 148.4, 158.1 148.1 Q 157.5 147.9, 157.1 147.3 Q 156.7 146.6, 156.7 145.6 Q 156.7 144.2, 157.6 143.3 Q 158.6 142.4, 160.5 142.4 Q 161.8 142.4, 163.3 143.1 L 163.0 144.3 Q 161.6 143.7, 160.6 143.7 Q 159.5 143.7, 158.9 144.2 Q 158.3 144.7, 158.3 145.4 Q 158.3 146.0, 158.6 146.4 Q 158.9 146.8, 159.4 147.0 Q 159.8 147.2, 160.6 147.4 Q 161.6 147.7, 162.2 148.1 Q 162.8 148.4, 163.2 149.0 Q 163.7 149.7, 163.7 150.8 Q 163.7 152.3, 162.6 153.2 Q 161.6 154.0, 159.9 154.0 Q 158.9 154.0, 158.1 153.8 Q 157.3 153.6, 156.4 153.2 L 156.9 152.0 " fill="#000000"/>
<path class="atom-0" d="M 155.6 129.7 L 157.2 129.7 L 157.2 134.5 L 163.0 134.5 L 163.0 129.7 L 164.5 129.7 L 164.5 141.0 L 163.0 141.0 L 163.0 135.8 L 157.2 135.8 L 157.2 141.0 L 155.6 141.0 L 155.6 129.7 " fill="#000000"/>
<path class="atom-1" d="M 158.7 187.8 Q 158.7 185.1, 160.1 183.6 Q 161.4 182.1, 163.9 182.1 Q 166.4 182.1, 167.8 183.6 Q 169.1 185.1, 169.1 187.8 Q 169.1 190.6, 167.8 192.2 Q 166.4 193.7, 163.9 193.7 Q 161.4 193.7, 160.1 192.2 Q 158.7 190.6, 158.7 187.8 M 163.9 192.4 Q 165.6 192.4, 166.6 191.3 Q 167.5 190.1, 167.5 187.8 Q 167.5 185.6, 166.6 184.5 Q 165.6 183.4, 163.9 183.4 Q 162.2 183.4, 161.3 184.5 Q 160.3 185.6, 160.3 187.8 Q 160.3 190.1, 161.3 191.3 Q 162.2 192.4, 163.9 192.4 " fill="#000000"/>
<path class="atom-2" d="M 187.4 124.9 Q 187.4 122.2, 188.7 120.7 Q 190.0 119.2, 192.6 119.2 Q 195.1 119.2, 196.4 120.7 Q 197.7 122.2, 197.7 124.9 Q 197.7 127.7, 196.4 129.2 Q 195.0 130.8, 192.6 130.8 Q 190.1 130.8, 188.7 129.2 Q 187.4 127.7, 187.4 124.9 M 192.6 129.5 Q 194.3 129.5, 195.2 128.3 Q 196.1 127.2, 196.1 124.9 Q 196.1 122.7, 195.2 121.6 Q 194.3 120.4, 192.6 120.4 Q 190.8 120.4, 189.9 121.6 Q 189.0 122.7, 189.0 124.9 Q 189.0 127.2, 189.9 128.3 Q 190.8 129.5, 192.6 129.5 " fill="#000000"/>
<path class="atom-7" d="M 11.4 76.3 L 18.1 76.3 L 18.1 77.6 L 12.9 77.6 L 12.9 81.0 L 17.5 81.0 L 17.5 82.3 L 12.9 82.3 L 12.9 87.6 L 11.4 87.6 L 11.4 76.3 " fill="#000000"/>
<path class="atom-11" d="M 186.2 79.5 L 189.9 85.5 Q 190.3 86.1, 190.9 87.1 Q 191.5 88.2, 191.5 88.3 L 191.5 79.5 L 193.0 79.5 L 193.0 90.8 L 191.4 90.8 L 187.5 84.3 Q 187.0 83.5, 186.5 82.6 Q 186.0 81.7, 185.9 81.5 L 185.9 90.8 L 184.4 90.8 L 184.4 79.5 L 186.2 79.5 " fill="#000000"/>
<path class="atom-12" d="M 218.7 56.3 L 222.4 62.3 Q 222.8 62.9, 223.3 63.9 Q 223.9 65.0, 224.0 65.1 L 224.0 56.3 L 225.5 56.3 L 225.5 67.6 L 223.9 67.6 L 219.9 61.0 Q 219.5 60.3, 219.0 59.4 Q 218.5 58.5, 218.4 58.3 L 218.4 67.6 L 216.9 67.6 L 216.9 56.3 L 218.7 56.3 " fill="#000000"/>
<path class="atom-12" d="M 226.8 56.3 L 228.3 56.3 L 228.3 61.1 L 234.1 61.1 L 234.1 56.3 L 235.6 56.3 L 235.6 67.6 L 234.1 67.6 L 234.1 62.4 L 228.3 62.4 L 228.3 67.6 L 226.8 67.6 L 226.8 56.3 " fill="#000000"/>
<path class="atom-12" d="M 238.8,61.9 L 238.8,62.0 L 238.8,62.1 L 238.8,62.1 L 238.8,62.2 L 238.8,62.3 L 238.7,62.3 L 238.7,62.4 L 238.7,62.5 L 238.6,62.5 L 238.6,62.5 L 238.5,62.6 L 238.4,62.6 L 238.4,62.7 L 238.3,62.7 L 238.3,62.7 L 238.2,62.7 L 238.1,62.7 L 238.1,62.7 L 238.0,62.7 L 237.9,62.7 L 237.9,62.7 L 237.8,62.7 L 237.7,62.7 L 237.7,62.6 L 237.6,62.6 L 237.5,62.6 L 237.5,62.5 L 237.4,62.5 L 237.4,62.4 L 237.4,62.4 L 237.3,62.3 L 237.3,62.2 L 237.3,62.2 L 237.3,62.1 L 237.2,62.0 L 237.2,62.0 L 237.2,61.9 L 237.2,61.8 L 237.3,61.8 L 237.3,61.7 L 237.3,61.6 L 237.3,61.6 L 237.4,61.5 L 237.4,61.5 L 237.4,61.4 L 237.5,61.4 L 237.5,61.3 L 237.6,61.3 L 237.7,61.2 L 237.7,61.2 L 237.8,61.2 L 237.9,61.2 L 237.9,61.2 L 238.0,61.1 L 238.1,61.1 L 238.1,61.1 L 238.2,61.2 L 238.3,61.2 L 238.3,61.2 L 238.4,61.2 L 238.4,61.3 L 238.5,61.3 L 238.6,61.3 L 238.6,61.4 L 238.7,61.4 L 238.7,61.5 L 238.7,61.5 L 238.8,61.6 L 238.8,61.7 L 238.8,61.7 L 238.8,61.8 L 238.8,61.9 L 238.8,61.9 L 238.0,61.9 Z" style="fill:#000000;fill-rule:evenodd;fill-opacity:1;stroke:#000000;stroke-width:0.0px;stroke-linecap:butt;stroke-linejoin:miter;stroke-opacity:1;"/>
<path class="bond-0 atom-0 atom-1" d="M 275.2,116.9 L 291.6,119.5" style="fill:none;fill-rule:evenodd;stroke:#000000;stroke-width:2.0px;stroke-linecap:butt;stroke-linejoin:miter;stroke-opacity:1"/>
<path class="bond-1 atom-1 atom-2" d="M 297.9,116.0 L 305.8,106.3" style="fill:none;fill-rule:evenodd;stroke:#000000;stroke-width:2.0px;stroke-linecap:butt;stroke-linejoin:miter;stroke-opacity:1"/>
<path class="bond-1 atom-1 atom-2" d="M 295.6,111.7 L 301.1,104.9" style="fill:none;fill-rule:evenodd;stroke:#000000;stroke-width:2.0px;stroke-linecap:butt;stroke-linejoin:miter;stroke-opacity:1"/>
<path class="bond-2 atom-2 atom-3" d="M 312.1,102.9 L 331.3,105.9" style="fill:none;fill-rule:evenodd;stroke:#000000;stroke-width:2.0px;stroke-linecap:butt;stroke-linejoin:miter;stroke-opacity:1"/>
<path class="bond-3 atom-3 atom-4" d="M 331.3,105.9 L 345.5,88.4" style="fill:none;fill-rule:evenodd;stroke:#000000;stroke-width:2.0px;stroke-linecap:butt;stroke-linejoin:miter;stroke-opacity:1"/>
<path class="bond-4 atom-4 atom-5" d="M 345.5,88.4 L 337.4,67.2" style="fill:none;fill-rule:evenodd;stroke:#000000;stroke-width:2.0px;stroke-linecap:butt;stroke-linejoin:miter;stroke-opacity:1"/>
<path class="bond-4 atom-4 atom-5" d="M 348.5,83.6 L 342.9,68.8" style="fill:none;fill-rule:evenodd;stroke:#000000;stroke-width:2.0px;stroke-linecap:butt;stroke-linejoin:miter;stroke-opacity:1"/>
<path class="bond-5 atom-5 atom-6" d="M 337.4,67.2 L 351.7,49.7" style="fill:none;fill-rule:evenodd;stroke:#000000;stroke-width:2.0px;stroke-linecap:butt;stroke-linejoin:miter;stroke-opacity:1"/>
<path class="bond-6 atom-6 atom-7" d="M 351.7,49.7 L 374.0,53.2" style="fill:none;fill-rule:evenodd;stroke:#000000;stroke-width:2.0px;stroke-linecap:butt;stroke-linejoin:miter;stroke-opacity:1"/>
<path class="bond-6 atom-6 atom-7" d="M 354.3,54.7 L 370.0,57.1" style="fill:none;fill-rule:evenodd;stroke:#000000;stroke-width:2.0px;stroke-linecap:butt;stroke-linejoin:miter;stroke-opacity:1"/>
<path class="bond-7 atom-7 atom-8" d="M 374.0,53.2 L 382.1,74.3" style="fill:none;fill-rule:evenodd;stroke:#000000;stroke-width:2.0px;stroke-linecap:butt;stroke-linejoin:miter;stroke-opacity:1"/>
<path class="bond-8 atom-8 atom-9" d="M 382.1,74.3 L 401.2,77.4" style="fill:none;fill-rule:evenodd;stroke:#000000;stroke-width:2.0px;stroke-linecap:butt;stroke-linejoin:miter;stroke-opacity:1"/>
<path class="bond-9 atom-8 atom-10" d="M 382.1,74.3 L 367.9,91.9" style="fill:none;fill-rule:evenodd;stroke:#000000;stroke-width:2.0px;stroke-linecap:butt;stroke-linejoin:miter;stroke-opacity:1"/>
<path class="bond-9 atom-8 atom-10" d="M 376.5,74.1 L 366.5,86.4" style="fill:none;fill-rule:evenodd;stroke:#000000;stroke-width:2.0px;stroke-linecap:butt;stroke-linejoin:miter;stroke-opacity:1"/>
<path class="bond-10 atom-10 atom-11" d="M 367.9,91.9 L 374.5,109.1" style="fill:none;fill-rule:evenodd;stroke:#000000;stroke-width:2.0px;stroke-linecap:butt;stroke-linejoin:miter;stroke-opacity:1"/>
<path class="bond-11 atom-11 atom-12" d="M 372.8,116.9 L 361.7,130.6" style="fill:none;fill-rule:evenodd;stroke:#000000;stroke-width:2.0px;stroke-linecap:butt;stroke-linejoin:miter;stroke-opacity:1"/>
<path class="bond-12 atom-12 atom-13" d="M 361.7,130.6 L 369.8,151.7" style="fill:none;fill-rule:evenodd;stroke:#000000;stroke-width:2.0px;stroke-linecap:butt;stroke-linejoin:miter;stroke-opacity:1"/>
<path class="bond-13 atom-13 atom-14" d="M 369.8,151.7 L 392.2,155.2" style="fill:none;fill-rule:evenodd;stroke:#000000;stroke-width:2.0px;stroke-linecap:butt;stroke-linejoin:miter;stroke-opacity:1"/>
<path class="bond-14 atom-14 atom-15" d="M 392.2,155.2 L 400.3,176.4" style="fill:none;fill-rule:evenodd;stroke:#000000;stroke-width:2.0px;stroke-linecap:butt;stroke-linejoin:miter;stroke-opacity:1"/>
<path class="bond-15 atom-15 atom-16" d="M 400.3,176.4 L 389.2,190.0" style="fill:none;fill-rule:evenodd;stroke:#000000;stroke-width:2.0px;stroke-linecap:butt;stroke-linejoin:miter;stroke-opacity:1"/>
<path class="bond-16 atom-15 atom-17" d="M 400.6,174.1 L 419.3,177.1" style="fill:none;fill-rule:evenodd;stroke:#000000;stroke-width:2.0px;stroke-linecap:butt;stroke-linejoin:miter;stroke-opacity:1"/>
<path class="bond-16 atom-15 atom-17" d="M 399.9,178.6 L 418.6,181.5" style="fill:none;fill-rule:evenodd;stroke:#000000;stroke-width:2.0px;stroke-linecap:butt;stroke-linejoin:miter;stroke-opacity:1"/>
<path class="bond-17 atom-14 atom-18" d="M 392.2,155.2 L 406.4,137.7" style="fill:none;fill-rule:evenodd;stroke:#000000;stroke-width:2.0px;stroke-linecap:butt;stroke-linejoin:miter;stroke-opacity:1"/>
<path class="bond-18 atom-18 atom-19" d="M 406.4,137.7 L 398.3,116.6" style="fill:none;fill-rule:evenodd;stroke:#000000;stroke-width:2.0px;stroke-linecap:butt;stroke-linejoin:miter;stroke-opacity:1"/>
<path class="bond-19 atom-19 atom-20" d="M 398.3,116.6 L 409.2,103.1" style="fill:none;fill-rule:evenodd;stroke:#000000;stroke-width:2.0px;stroke-linecap:butt;stroke-linejoin:miter;stroke-opacity:1"/>
<path class="bond-20 atom-20 atom-21" d="M 416.2,99.6 L 431.7,102.0" style="fill:none;fill-rule:evenodd;stroke:#000000;stroke-width:2.0px;stroke-linecap:butt;stroke-linejoin:miter;stroke-opacity:1"/>
<path class="bond-21 atom-21 atom-22" d="M 438.1,98.6 L 445.8,89.0" style="fill:none;fill-rule:evenodd;stroke:#000000;stroke-width:2.0px;stroke-linecap:butt;stroke-linejoin:miter;stroke-opacity:1"/>
<path class="bond-22 atom-22 atom-23" d="M 452.8,85.5 L 471.5,88.5" style="fill:none;fill-rule:evenodd;stroke:#000000;stroke-width:2.0px;stroke-linecap:butt;stroke-linejoin:miter;stroke-opacity:1"/>
<path class="bond-23 atom-23 atom-24" d="M 469.7,87.1 L 480.6,73.6" style="fill:none;fill-rule:evenodd;stroke:#000000;stroke-width:2.0px;stroke-linecap:butt;stroke-linejoin:miter;stroke-opacity:1"/>
<path class="bond-23 atom-23 atom-24" d="M 473.2,89.9 L 484.1,76.4" style="fill:none;fill-rule:evenodd;stroke:#000000;stroke-width:2.0px;stroke-linecap:butt;stroke-linejoin:miter;stroke-opacity:1"/>
<path class="bond-24 atom-10 atom-4" d="M 367.9,91.9 L 345.5,88.4" style="fill:none;fill-rule:evenodd;stroke:#000000;stroke-width:2.0px;stroke-linecap:butt;stroke-linejoin:miter;stroke-opacity:1"/>
<path class="bond-25 atom-19 atom-11" d="M 398.3,116.6 L 379.2,113.5" style="fill:none;fill-rule:evenodd;stroke:#000000;stroke-width:2.0px;stroke-linecap:butt;stroke-linejoin:miter;stroke-opacity:1"/>
<path class="atom-0" d="M 261.4 113.2 L 262.2 113.2 L 262.2 115.9 L 265.5 115.9 L 265.5 113.2 L 266.4 113.2 L 266.4 119.6 L 265.5 119.6 L 265.5 116.7 L 262.2 116.7 L 262.2 119.6 L 261.4 119.6 L 261.4 113.2 " fill="#000000"/>
<path class="atom-0" d="M 267.2 119.4 Q 267.3 119.0, 267.7 118.8 Q 268.1 118.5, 268.6 118.5 Q 269.2 118.5, 269.6 118.9 Q 269.9 119.2, 269.9 119.9 Q 269.9 120.5, 269.5 121.1 Q 269.0 121.6, 268.0 122.3 L 270.0 122.3 L 270.0 122.8 L 267.1 122.8 L 267.1 122.4 Q 267.9 121.9, 268.4 121.4 Q 268.9 121.0, 269.1 120.6 Q 269.3 120.3, 269.3 119.9 Q 269.3 119.5, 269.1 119.2 Q 268.9 119.0, 268.6 119.0 Q 268.2 119.0, 268.0 119.2 Q 267.8 119.3, 267.6 119.6 L 267.2 119.4 " fill="#000000"/>
<path class="atom-0" d="M 272.2 113.2 Q 273.3 113.2, 273.9 113.7 Q 274.4 114.2, 274.4 115.1 Q 274.4 116.0, 273.9 116.5 Q 273.3 117.0, 272.2 117.0 L 271.2 117.0 L 271.2 119.6 L 270.4 119.6 L 270.4 113.2 L 272.2 113.2 M 272.2 116.3 Q 272.9 116.3, 273.2 116.0 Q 273.5 115.7, 273.5 115.1 Q 273.5 114.5, 273.2 114.2 Q 272.9 113.9, 272.2 113.9 L 271.2 113.9 L 271.2 116.3 L 272.2 116.3 " fill="#000000"/>
<path class="atom-1" d="M 293.3 116.8 L 295.4 120.1 Q 295.6 120.5, 296.0 121.1 Q 296.3 121.7, 296.3 121.7 L 296.3 116.8 L 297.2 116.8 L 297.2 123.2 L 296.3 123.2 L 294.0 119.5 Q 293.8 119.0, 293.5 118.5 Q 293.2 118.0, 293.1 117.9 L 293.1 123.2 L 292.3 123.2 L 292.3 116.8 L 293.3 116.8 " fill="#000000"/>
<path class="atom-2" d="M 307.6 99.2 L 309.7 102.6 Q 309.9 102.9, 310.2 103.5 Q 310.5 104.1, 310.5 104.2 L 310.5 99.2 L 311.4 99.2 L 311.4 105.6 L 310.5 105.6 L 308.3 101.9 Q 308.0 101.4, 307.7 100.9 Q 307.5 100.4, 307.4 100.3 L 307.4 105.6 L 306.5 105.6 L 306.5 99.2 L 307.6 99.2 " fill="#000000"/>
<path class="atom-9" d="M 402.0 78.1 Q 402.0 76.5, 402.7 75.7 Q 403.5 74.8, 404.9 74.8 Q 406.2 74.8, 406.9 75.8 L 406.3 76.2 Q 405.8 75.6, 404.9 75.6 Q 403.9 75.6, 403.4 76.2 Q 402.9 76.9, 402.9 78.1 Q 402.9 79.4, 403.4 80.0 Q 404.0 80.7, 405.0 80.7 Q 405.7 80.7, 406.5 80.2 L 406.8 80.9 Q 406.4 81.1, 405.9 81.3 Q 405.4 81.4, 404.9 81.4 Q 403.5 81.4, 402.7 80.5 Q 402.0 79.7, 402.0 78.1 " fill="#000000"/>
<path class="atom-9" d="M 407.3 74.4 L 408.1 74.4 L 408.1 81.3 L 407.3 81.3 L 407.3 74.4 " fill="#000000"/>
<path class="atom-11" d="M 374.6 109.8 L 376.7 113.2 Q 376.9 113.5, 377.2 114.1 Q 377.5 114.7, 377.6 114.8 L 377.6 109.8 L 378.4 109.8 L 378.4 116.2 L 377.5 116.2 L 375.3 112.5 Q 375.0 112.1, 374.7 111.6 Q 374.5 111.1, 374.4 110.9 L 374.4 116.2 L 373.5 116.2 L 373.5 109.8 L 374.6 109.8 " fill="#000000"/>
<path class="atom-16" d="M 374.6 190.7 L 375.5 190.7 L 375.5 193.5 L 378.8 193.5 L 378.8 190.7 L 379.6 190.7 L 379.6 197.1 L 378.8 197.1 L 378.8 194.2 L 375.5 194.2 L 375.5 197.1 L 374.6 197.1 L 374.6 190.7 " fill="#000000"/>
<path class="atom-16" d="M 380.4 196.9 Q 380.6 196.5, 380.9 196.3 Q 381.3 196.1, 381.8 196.1 Q 382.5 196.1, 382.8 196.4 Q 383.2 196.8, 383.2 197.4 Q 383.2 198.0, 382.7 198.6 Q 382.3 199.2, 381.3 199.9 L 383.3 199.9 L 383.3 200.3 L 380.4 200.3 L 380.4 199.9 Q 381.2 199.4, 381.7 199.0 Q 382.1 198.5, 382.4 198.2 Q 382.6 197.8, 382.6 197.4 Q 382.6 197.0, 382.4 196.8 Q 382.2 196.5, 381.8 196.5 Q 381.5 196.5, 381.3 196.7 Q 381.0 196.8, 380.9 197.1 L 380.4 196.9 " fill="#000000"/>
<path class="atom-16" d="M 384.6 190.7 L 386.7 194.1 Q 386.9 194.5, 387.3 195.1 Q 387.6 195.7, 387.6 195.7 L 387.6 190.7 L 388.5 190.7 L 388.5 197.1 L 387.6 197.1 L 385.3 193.4 Q 385.1 193.0, 384.8 192.5 Q 384.5 192.0, 384.4 191.8 L 384.4 197.1 L 383.6 197.1 L 383.6 190.7 L 384.6 190.7 " fill="#000000"/>
<path class="atom-17" d="M 419.7 179.9 Q 419.7 178.4, 420.4 177.5 Q 421.2 176.7, 422.6 176.7 Q 424.0 176.7, 424.8 177.5 Q 425.6 178.4, 425.6 179.9 Q 425.6 181.5, 424.8 182.4 Q 424.0 183.2, 422.6 183.2 Q 421.2 183.2, 420.4 182.4 Q 419.7 181.5, 419.7 179.9 M 422.6 182.5 Q 423.6 182.5, 424.1 181.9 Q 424.7 181.2, 424.7 179.9 Q 424.7 178.7, 424.1 178.0 Q 423.6 177.4, 422.6 177.4 Q 421.6 177.4, 421.1 178.0 Q 420.6 178.7, 420.6 179.9 Q 420.6 181.2, 421.1 181.9 Q 421.6 182.5, 422.6 182.5 " fill="#000000"/>
<path class="atom-20" d="M 409.6 99.0 Q 409.6 97.5, 410.4 96.6 Q 411.1 95.7, 412.6 95.7 Q 414.0 95.7, 414.7 96.6 Q 415.5 97.5, 415.5 99.0 Q 415.5 100.6, 414.7 101.4 Q 414.0 102.3, 412.6 102.3 Q 411.1 102.3, 410.4 101.4 Q 409.6 100.6, 409.6 99.0 M 412.6 101.6 Q 413.5 101.6, 414.1 100.9 Q 414.6 100.3, 414.6 99.0 Q 414.6 97.7, 414.1 97.1 Q 413.5 96.5, 412.6 96.5 Q 411.6 96.5, 411.0 97.1 Q 410.5 97.7, 410.5 99.0 Q 410.5 100.3, 411.0 100.9 Q 411.6 101.6, 412.6 101.6 " fill="#000000"/>
<path class="atom-20" d="M 415.9 96.9 L 417.1 96.9 L 417.1 95.7 L 417.6 95.7 L 417.6 96.9 L 418.7 96.9 L 418.7 97.3 L 417.6 97.3 L 417.6 98.5 L 417.1 98.5 L 417.1 97.3 L 415.9 97.3 L 415.9 96.9 " fill="#000000"/>
<path class="atom-21" d="M 433.5 99.3 L 435.6 102.7 Q 435.8 103.0, 436.1 103.7 Q 436.4 104.3, 436.5 104.3 L 436.5 99.3 L 437.3 99.3 L 437.3 105.7 L 436.4 105.7 L 434.2 102.0 Q 433.9 101.6, 433.6 101.1 Q 433.4 100.6, 433.3 100.4 L 433.3 105.7 L 432.5 105.7 L 432.5 99.3 L 433.5 99.3 " fill="#000000"/>
<path class="atom-21" d="M 438.1 100.4 L 440.3 100.4 L 440.3 100.9 L 438.1 100.9 L 438.1 100.4 " fill="#000000"/>
<path class="atom-22" d="M 446.2 85.0 Q 446.2 83.4, 446.9 82.6 Q 447.7 81.7, 449.1 81.7 Q 450.5 81.7, 451.3 82.6 Q 452.1 83.4, 452.1 85.0 Q 452.1 86.5, 451.3 87.4 Q 450.5 88.3, 449.1 88.3 Q 447.7 88.3, 446.9 87.4 Q 446.2 86.5, 446.2 85.0 M 449.1 87.6 Q 450.1 87.6, 450.6 86.9 Q 451.2 86.3, 451.2 85.0 Q 451.2 83.7, 450.6 83.1 Q 450.1 82.4, 449.1 82.4 Q 448.1 82.4, 447.6 83.1 Q 447.1 83.7, 447.1 85.0 Q 447.1 86.3, 447.6 86.9 Q 448.1 87.6, 449.1 87.6 " fill="#000000"/>
<path class="atom-24" d="M 482.8 70.9 Q 482.8 69.4, 483.5 68.5 Q 484.3 67.7, 485.7 67.7 Q 487.1 67.7, 487.9 68.5 Q 488.6 69.4, 488.6 70.9 Q 488.6 72.5, 487.9 73.4 Q 487.1 74.3, 485.7 74.3 Q 484.3 74.3, 483.5 73.4 Q 482.8 72.5, 482.8 70.9 M 485.7 73.5 Q 486.7 73.5, 487.2 72.9 Q 487.7 72.2, 487.7 70.9 Q 487.7 69.7, 487.2 69.0 Q 486.7 68.4, 485.7 68.4 Q 484.7 68.4, 484.2 69.0 Q 483.7 69.7, 483.7 70.9 Q 483.7 72.2, 484.2 72.9 Q 484.7 73.5, 485.7 73.5 " fill="#000000"/>
<path class="atom-20" d="M 408.7,99.0 L 408.7,99.0 L 408.7,99.1 L 408.7,99.1 L 408.7,99.1 L 408.7,99.2 L 408.6,99.2 L 408.6,99.2 L 408.6,99.3 L 408.6,99.3 L 408.5,99.3 L 408.5,99.3 L 408.5,99.4 L 408.5,99.4 L 408.4,99.4 L 408.4,99.4 L 408.3,99.4 L 408.3,99.4 L 408.3,99.4 L 408.2,99.4 L 408.2,99.4 L 408.1,99.4 L 408.1,99.4 L 408.1,99.4 L 408.0,99.4 L 408.0,99.4 L 408.0,99.3 L 407.9,99.3 L 407.9,99.3 L 407.9,99.3 L 407.9,99.2 L 407.9,99.2 L 407.8,99.2 L 407.8,99.1 L 407.8,99.1 L 407.8,99.0 L 407.8,99.0 L 407.8,99.0 L 407.8,98.9 L 407.8,98.9 L 407.8,98.8 L 407.8,98.8 L 407.9,98.8 L 407.9,98.7 L 407.9,98.7 L 407.9,98.7 L 407.9,98.7 L 408.0,98.6 L 408.0,98.6 L 408.0,98.6 L 408.1,98.6 L 408.1,98.6 L 408.1,98.5 L 408.2,98.5 L 408.2,98.5 L 408.3,98.5 L 408.3,98.5 L 408.3,98.5 L 408.4,98.5 L 408.4,98.6 L 408.5,98.6 L 408.5,98.6 L 408.5,98.6 L 408.5,98.6 L 408.6,98.7 L 408.6,98.7 L 408.6,98.7 L 408.6,98.8 L 408.7,98.8 L 408.7,98.8 L 408.7,98.9 L 408.7,98.9 L 408.7,98.9 L 408.7,99.0 L 408.3,99.0 Z" style="fill:#000000;fill-rule:evenodd;fill-opacity:1;stroke:#000000;stroke-width:0.0px;stroke-linecap:butt;stroke-linejoin:miter;stroke-opacity:1;"/>
<path class="bond-0 atom-0 atom-1" d="M 608.8,154.1 L 597.8,165.8" style="fill:none;fill-rule:evenodd;stroke:#000000;stroke-width:2.0px;stroke-linecap:butt;stroke-linejoin:miter;stroke-opacity:1"/>
<path class="bond-1 atom-1 atom-2" d="M 588.9,170.9 L 564.0,171.6" style="fill:none;fill-rule:evenodd;stroke:#000000;stroke-width:2.0px;stroke-linecap:butt;stroke-linejoin:miter;stroke-opacity:1"/>
<path class="bond-2 atom-2 atom-3" d="M 564.0,171.6 L 547.0,155.5" style="fill:none;fill-rule:evenodd;stroke:#000000;stroke-width:2.0px;stroke-linecap:butt;stroke-linejoin:miter;stroke-opacity:1"/>
<path class="bond-3 atom-3 atom-4" d="M 542.8,146.5 L 542.2,122.6" style="fill:none;fill-rule:evenodd;stroke:#000000;stroke-width:2.0px;stroke-linecap:butt;stroke-linejoin:miter;stroke-opacity:1"/>
<path class="bond-4 atom-4 atom-5" d="M 541.2,125.3 L 518.8,116.7" style="fill:none;fill-rule:evenodd;stroke:#000000;stroke-width:2.0px;stroke-linecap:butt;stroke-linejoin:miter;stroke-opacity:1"/>
<path class="bond-4 atom-4 atom-5" d="M 543.2,119.9 L 520.9,111.3" style="fill:none;fill-rule:evenodd;stroke:#000000;stroke-width:2.0px;stroke-linecap:butt;stroke-linejoin:miter;stroke-opacity:1"/>
<path class="bond-5 atom-4 atom-6" d="M 542.2,122.6 L 558.1,105.9" style="fill:none;fill-rule:evenodd;stroke:#000000;stroke-width:2.0px;stroke-linecap:butt;stroke-linejoin:miter;stroke-opacity:1"/>
<path class="bond-6 atom-6 atom-7" d="M 559.9,96.5 L 550.4,75.1" style="fill:none;fill-rule:evenodd;stroke:#000000;stroke-width:2.0px;stroke-linecap:butt;stroke-linejoin:miter;stroke-opacity:1"/>
<path class="bond-7 atom-6 atom-8" d="M 566.3,101.5 L 591.2,100.8" style="fill:none;fill-rule:evenodd;stroke:#000000;stroke-width:2.0px;stroke-linecap:butt;stroke-linejoin:miter;stroke-opacity:1"/>
<path class="bond-8 atom-8 atom-9" d="M 591.2,100.8 L 612.2,120.8" style="fill:none;fill-rule:evenodd;stroke:#000000;stroke-width:2.0px;stroke-linecap:butt;stroke-linejoin:miter;stroke-opacity:1"/>
<path class="bond-8 atom-8 atom-9" d="M 590.3,108.0 L 605.1,122.0" style="fill:none;fill-rule:evenodd;stroke:#000000;stroke-width:2.0px;stroke-linecap:butt;stroke-linejoin:miter;stroke-opacity:1"/>
<path class="bond-9 atom-9 atom-10" d="M 612.2,120.8 L 638.7,109.0" style="fill:none;fill-rule:evenodd;stroke:#000000;stroke-width:2.0px;stroke-linecap:butt;stroke-linejoin:miter;stroke-opacity:1"/>
<path class="bond-10 atom-10 atom-11" d="M 638.7,109.0 L 662.2,126.1" style="fill:none;fill-rule:evenodd;stroke:#000000;stroke-width:2.0px;stroke-linecap:butt;stroke-linejoin:miter;stroke-opacity:1"/>
<path class="bond-11 atom-11 atom-12" d="M 662.2,126.1 L 688.7,114.3" style="fill:none;fill-rule:evenodd;stroke:#000000;stroke-width:2.0px;stroke-linecap:butt;stroke-linejoin:miter;stroke-opacity:1"/>
<path class="bond-12 atom-12 atom-13" d="M 688.7,114.3 L 708.1,128.4" style="fill:none;fill-rule:evenodd;stroke:#000000;stroke-width:2.0px;stroke-linecap:butt;stroke-linejoin:miter;stroke-opacity:1"/>
<path class="bond-12 atom-12 atom-13" d="M 688.2,121.1 L 701.7,131.0" style="fill:none;fill-rule:evenodd;stroke:#000000;stroke-width:2.0px;stroke-linecap:butt;stroke-linejoin:miter;stroke-opacity:1"/>
<path class="bond-13 atom-13 atom-14" d="M 716.2,129.6 L 738.6,119.6" style="fill:none;fill-rule:evenodd;stroke:#000000;stroke-width:2.0px;stroke-linecap:butt;stroke-linejoin:miter;stroke-opacity:1"/>
<path class="bond-14 atom-9 atom-0" d="M 612.2,120.8 L 612.8,144.7" style="fill:none;fill-rule:evenodd;stroke:#000000;stroke-width:2.0px;stroke-linecap:butt;stroke-linejoin:miter;stroke-opacity:1"/>
<path class="atom-0" d="M 609.8 149.8 Q 609.8 147.8, 610.7 146.7 Q 611.7 145.6, 613.5 145.6 Q 615.2 145.6, 616.1 146.8 L 615.4 147.5 Q 614.7 146.6, 613.5 146.6 Q 612.3 146.6, 611.6 147.4 Q 611.0 148.3, 611.0 149.8 Q 611.0 151.5, 611.6 152.3 Q 612.3 153.1, 613.6 153.1 Q 614.6 153.1, 615.6 152.6 L 615.9 153.5 Q 615.5 153.7, 614.9 153.9 Q 614.2 154.1, 613.5 154.1 Q 611.7 154.1, 610.7 153.0 Q 609.8 151.9, 609.8 149.8 " fill="#000000"/>
<path class="atom-0" d="M 616.6 147.0 L 619.4 147.0 L 619.4 147.6 L 616.6 147.6 L 616.6 147.0 " fill="#000000"/>
<path class="atom-1" d="M 591.2 166.7 L 593.9 171.1 Q 594.1 171.5, 594.5 172.3 Q 595.0 173.1, 595.0 173.1 L 595.0 166.7 L 596.1 166.7 L 596.1 174.9 L 595.0 174.9 L 592.1 170.2 Q 591.7 169.6, 591.4 169.0 Q 591.0 168.3, 590.9 168.1 L 590.9 174.9 L 589.9 174.9 L 589.9 166.7 L 591.2 166.7 " fill="#000000"/>
<path class="atom-1" d="M 597.1 166.7 L 598.2 166.7 L 598.2 170.2 L 602.4 170.2 L 602.4 166.7 L 603.5 166.7 L 603.5 174.9 L 602.4 174.9 L 602.4 171.1 L 598.2 171.1 L 598.2 174.9 L 597.1 174.9 L 597.1 166.7 " fill="#000000"/>
<path class="atom-3" d="M 532.4 147.5 L 533.5 147.5 L 533.5 151.0 L 537.7 151.0 L 537.7 147.5 L 538.8 147.5 L 538.8 155.7 L 537.7 155.7 L 537.7 151.9 L 533.5 151.9 L 533.5 155.7 L 532.4 155.7 L 532.4 147.5 " fill="#000000"/>
<path class="atom-3" d="M 541.1 147.5 L 543.8 151.8 Q 544.1 152.3, 544.5 153.0 Q 545.0 153.8, 545.0 153.9 L 545.0 147.5 L 546.1 147.5 L 546.1 155.7 L 544.9 155.7 L 542.1 150.9 Q 541.7 150.4, 541.4 149.7 Q 541.0 149.1, 540.9 148.9 L 540.9 155.7 L 539.8 155.7 L 539.8 147.5 L 541.1 147.5 " fill="#000000"/>
<path class="atom-5" d="M 511.4 112.2 Q 511.4 110.2, 512.3 109.1 Q 513.3 108.0, 515.1 108.0 Q 517.0 108.0, 517.9 109.1 Q 518.9 110.2, 518.9 112.2 Q 518.9 114.2, 517.9 115.3 Q 516.9 116.5, 515.1 116.5 Q 513.3 116.5, 512.3 115.3 Q 511.4 114.2, 511.4 112.2 M 515.1 115.5 Q 516.4 115.5, 517.1 114.7 Q 517.7 113.9, 517.7 112.2 Q 517.7 110.6, 517.1 109.8 Q 516.4 109.0, 515.1 109.0 Q 513.9 109.0, 513.2 109.8 Q 512.5 110.6, 512.5 112.2 Q 512.5 113.9, 513.2 114.7 Q 513.9 115.5, 515.1 115.5 " fill="#000000"/>
<path class="atom-6" d="M 560.4 97.5 L 563.1 101.8 Q 563.3 102.2, 563.8 103.0 Q 564.2 103.8, 564.2 103.8 L 564.2 97.5 L 565.3 97.5 L 565.3 105.7 L 564.2 105.7 L 561.3 100.9 Q 561.0 100.4, 560.6 99.7 Q 560.2 99.1, 560.1 98.9 L 560.1 105.7 L 559.1 105.7 L 559.1 97.5 L 560.4 97.5 " fill="#000000"/>
<path class="atom-13" d="M 710.3 127.3 L 713.0 131.6 Q 713.3 132.0, 713.7 132.8 Q 714.1 133.6, 714.2 133.6 L 714.2 127.3 L 715.2 127.3 L 715.2 135.5 L 714.1 135.5 L 711.2 130.7 Q 710.9 130.2, 710.5 129.5 Q 710.2 128.9, 710.1 128.7 L 710.1 135.5 L 709.0 135.5 L 709.0 127.3 L 710.3 127.3 " fill="#000000"/>
<path class="atom-2" d="M 561.1,171.6 L 561.1,171.6 L 561.1,171.7 L 561.1,171.7 L 561.0,171.8 L 561.0,171.8 L 561.0,171.9 L 561.0,171.9 L 560.9,171.9 L 560.9,172.0 L 560.9,172.0 L 560.8,172.0 L 560.8,172.1 L 560.8,172.1 L 560.7,172.1 L 560.7,172.1 L 560.6,172.1 L 560.6,172.1 L 560.5,172.2 L 560.5,172.2 L 560.4,172.1 L 560.4,172.1 L 560.3,172.1 L 560.3,172.1 L 560.2,172.1 L 560.2,172.1 L 560.1,172.0 L 560.1,172.0 L 560.1,172.0 L 560.0,171.9 L 560.0,171.9 L 560.0,171.8 L 560.0,171.8 L 559.9,171.7 L 559.9,171.7 L 559.9,171.6 L 559.9,171.6 L 559.9,171.5 L 559.9,171.5 L 559.9,171.4 L 559.9,171.4 L 560.0,171.4 L 560.0,171.3 L 560.0,171.3 L 560.0,171.2 L 560.1,171.2 L 560.1,171.1 L 560.1,171.1 L 560.2,171.1 L 560.2,171.1 L 560.3,171.0 L 560.3,171.0 L 560.4,171.0 L 560.4,171.0 L 560.5,171.0 L 560.5,171.0 L 560.6,171.0 L 560.6,171.0 L 560.7,171.0 L 560.7,171.0 L 560.8,171.0 L 560.8,171.1 L 560.8,171.1 L 560.9,171.1 L 560.9,171.2 L 560.9,171.2 L 561.0,171.2 L 561.0,171.3 L 561.0,171.3 L 561.0,171.4 L 561.1,171.4 L 561.1,171.5 L 561.1,171.5 L 561.1,171.6 L 560.5,171.6 Z" style="fill:#000000;fill-rule:evenodd;fill-opacity:1;stroke:#000000;stroke-width:0.0px;stroke-linecap:butt;stroke-linejoin:miter;stroke-opacity:1;"/>
<path class="bond-0 atom-0 atom-1" d="M 106.0,298.6 L 81.0,304.2" style="fill:none;fill-rule:evenodd;stroke:#000000;stroke-width:2.0px;stroke-linecap:butt;stroke-linejoin:miter;stroke-opacity:1"/>
<path class="bond-1 atom-1 atom-2" d="M 81.0,304.2 L 70.7,281.9" style="fill:none;fill-rule:evenodd;stroke:#000000;stroke-width:2.0px;stroke-linecap:butt;stroke-linejoin:miter;stroke-opacity:1"/>
<path class="bond-2 atom-1 atom-3" d="M 81.0,304.2 L 60.7,319.4" style="fill:none;fill-rule:evenodd;stroke:#000000;stroke-width:2.0px;stroke-linecap:butt;stroke-linejoin:miter;stroke-opacity:1"/>
<path class="bond-2 atom-1 atom-3" d="M 81.6,311.4 L 67.4,322.1" style="fill:none;fill-rule:evenodd;stroke:#000000;stroke-width:2.0px;stroke-linecap:butt;stroke-linejoin:miter;stroke-opacity:1"/>
<path class="bond-3 atom-3 atom-4" d="M 53.4,328.0 L 44.3,344.1" style="fill:none;fill-rule:evenodd;stroke:#000000;stroke-width:2.0px;stroke-linecap:butt;stroke-linejoin:miter;stroke-opacity:1"/>
<path class="bond-4 atom-4 atom-5" d="M 40.9,354.9 L 38.5,380.2" style="fill:none;fill-rule:evenodd;stroke:#000000;stroke-width:2.0px;stroke-linecap:butt;stroke-linejoin:miter;stroke-opacity:1"/>
<path class="bond-5 atom-5 atom-6" d="M 38.5,380.2 L 48.5,409.3" style="fill:none;fill-rule:evenodd;stroke:#000000;stroke-width:2.0px;stroke-linecap:butt;stroke-linejoin:miter;stroke-opacity:1"/>
<path class="bond-5 atom-5 atom-6" d="M 45.9,382.5 L 52.8,402.9" style="fill:none;fill-rule:evenodd;stroke:#000000;stroke-width:2.0px;stroke-linecap:butt;stroke-linejoin:miter;stroke-opacity:1"/>
<path class="bond-6 atom-6 atom-7" d="M 48.5,409.3 L 69.4,431.9" style="fill:none;fill-rule:evenodd;stroke:#000000;stroke-width:2.0px;stroke-linecap:butt;stroke-linejoin:miter;stroke-opacity:1"/>
<path class="bond-7 atom-7 atom-8" d="M 69.4,431.9 L 97.6,444.0" style="fill:none;fill-rule:evenodd;stroke:#000000;stroke-width:2.0px;stroke-linecap:butt;stroke-linejoin:miter;stroke-opacity:1"/>
<path class="bond-7 atom-7 atom-8" d="M 76.0,428.0 L 95.8,436.5" style="fill:none;fill-rule:evenodd;stroke:#000000;stroke-width:2.0px;stroke-linecap:butt;stroke-linejoin:miter;stroke-opacity:1"/>
<path class="bond-8 atom-8 atom-9" d="M 97.6,444.0 L 128.4,443.6" style="fill:none;fill-rule:evenodd;stroke:#000000;stroke-width:2.0px;stroke-linecap:butt;stroke-linejoin:miter;stroke-opacity:1"/>
<path class="bond-9 atom-9 atom-10" d="M 131.4,442.9 L 137.0,467.5" style="fill:none;fill-rule:evenodd;stroke:#000000;stroke-width:2.0px;stroke-linecap:butt;stroke-linejoin:miter;stroke-opacity:1"/>
<path class="bond-9 atom-9 atom-10" d="M 125.4,444.2 L 131.0,468.8" style="fill:none;fill-rule:evenodd;stroke:#000000;stroke-width:2.0px;stroke-linecap:butt;stroke-linejoin:miter;stroke-opacity:1"/>
<path class="bond-10 atom-9 atom-11" d="M 128.4,443.6 L 152.0,432.7" style="fill:none;fill-rule:evenodd;stroke:#000000;stroke-width:2.0px;stroke-linecap:butt;stroke-linejoin:miter;stroke-opacity:1"/>
<path class="bond-11 atom-11 atom-12" d="M 161.0,425.3 L 176.6,407.5" style="fill:none;fill-rule:evenodd;stroke:#000000;stroke-width:2.0px;stroke-linecap:butt;stroke-linejoin:miter;stroke-opacity:1"/>
<path class="bond-12 atom-12 atom-13" d="M 176.6,407.5 L 185.7,378.1" style="fill:none;fill-rule:evenodd;stroke:#000000;stroke-width:2.0px;stroke-linecap:butt;stroke-linejoin:miter;stroke-opacity:1"/>
<path class="bond-13 atom-13 atom-14" d="M 185.7,378.1 L 214.0,390.2" style="fill:none;fill-rule:evenodd;stroke:#000000;stroke-width:2.0px;stroke-linecap:butt;stroke-linejoin:miter;stroke-opacity:1"/>
<path class="bond-13 atom-13 atom-14" d="M 192.4,374.3 L 212.2,382.8" style="fill:none;fill-rule:evenodd;stroke:#000000;stroke-width:2.0px;stroke-linecap:butt;stroke-linejoin:miter;stroke-opacity:1"/>
<path class="bond-14 atom-14 atom-15" d="M 214.0,390.2 L 238.6,371.8" style="fill:none;fill-rule:evenodd;stroke:#000000;stroke-width:2.0px;stroke-linecap:butt;stroke-linejoin:miter;stroke-opacity:1"/>
<path class="bond-15 atom-15 atom-16" d="M 238.6,371.8 L 235.0,341.3" style="fill:none;fill-rule:evenodd;stroke:#000000;stroke-width:2.0px;stroke-linecap:butt;stroke-linejoin:miter;stroke-opacity:1"/>
<path class="bond-15 atom-15 atom-16" d="M 232.0,368.0 L 229.4,346.6" style="fill:none;fill-rule:evenodd;stroke:#000000;stroke-width:2.0px;stroke-linecap:butt;stroke-linejoin:miter;stroke-opacity:1"/>
<path class="bond-16 atom-16 atom-17" d="M 235.0,341.3 L 206.7,329.1" style="fill:none;fill-rule:evenodd;stroke:#000000;stroke-width:2.0px;stroke-linecap:butt;stroke-linejoin:miter;stroke-opacity:1"/>
<path class="bond-17 atom-17 atom-18" d="M 206.7,329.1 L 203.8,304.4" style="fill:none;fill-rule:evenodd;stroke:#000000;stroke-width:2.0px;stroke-linecap:butt;stroke-linejoin:miter;stroke-opacity:1"/>
<path class="bond-18 atom-17 atom-19" d="M 206.7,329.1 L 182.1,347.6" style="fill:none;fill-rule:evenodd;stroke:#000000;stroke-width:2.0px;stroke-linecap:butt;stroke-linejoin:miter;stroke-opacity:1"/>
<path class="bond-18 atom-17 atom-19" d="M 206.7,336.8 L 189.5,349.7" style="fill:none;fill-rule:evenodd;stroke:#000000;stroke-width:2.0px;stroke-linecap:butt;stroke-linejoin:miter;stroke-opacity:1"/>
<path class="bond-19 atom-19 atom-20" d="M 182.1,347.6 L 166.3,321.1" style="fill:none;fill-rule:evenodd;stroke:#000000;stroke-width:2.0px;stroke-linecap:butt;stroke-linejoin:miter;stroke-opacity:1"/>
<path class="bond-20 atom-20 atom-21" d="M 166.3,321.1 L 141.2,303.4" style="fill:none;fill-rule:evenodd;stroke:#000000;stroke-width:2.0px;stroke-linecap:butt;stroke-linejoin:miter;stroke-opacity:1"/>
<path class="bond-20 atom-20 atom-21" d="M 159.0,323.5 L 141.4,311.1" style="fill:none;fill-rule:evenodd;stroke:#000000;stroke-width:2.0px;stroke-linecap:butt;stroke-linejoin:miter;stroke-opacity:1"/>
<path class="bond-21 atom-4 atom-22" d="M 37.0,348.2 L 13.5,340.9" style="fill:none;fill-rule:evenodd;stroke:#000000;stroke-width:2.0px;stroke-linecap:butt;stroke-linejoin:miter;stroke-opacity:1"/>
<path class="bond-22 atom-21 atom-0" d="M 141.2,303.4 L 116.0,298.4" style="fill:none;fill-rule:evenodd;stroke:#000000;stroke-width:2.0px;stroke-linecap:butt;stroke-linejoin:miter;stroke-opacity:1"/>
<path class="bond-23 atom-19 atom-13" d="M 182.1,347.6 L 185.7,378.1" style="fill:none;fill-rule:evenodd;stroke:#000000;stroke-width:2.0px;stroke-linecap:butt;stroke-linejoin:miter;stroke-opacity:1"/>
<path class="atom-0" d="M 107.0 297.4 Q 107.0 295.3, 108.0 294.2 Q 109.1 293.0, 111.0 293.0 Q 112.9 293.0, 114.0 294.2 Q 115.0 295.3, 115.0 297.4 Q 115.0 299.6, 114.0 300.8 Q 112.9 302.0, 111.0 302.0 Q 109.1 302.0, 108.0 300.8 Q 107.0 299.6, 107.0 297.4 M 111.0 301.0 Q 112.3 301.0, 113.0 300.1 Q 113.8 299.2, 113.8 297.4 Q 113.8 295.7, 113.0 294.9 Q 112.3 294.0, 111.0 294.0 Q 109.7 294.0, 108.9 294.9 Q 108.2 295.7, 108.2 297.4 Q 108.2 299.2, 108.9 300.1 Q 109.7 301.0, 111.0 301.0 " fill="#000000"/>
<path class="atom-0" d="M 115.6 294.6 L 117.2 294.6 L 117.2 292.9 L 117.8 292.9 L 117.8 294.6 L 119.4 294.6 L 119.4 295.1 L 117.8 295.1 L 117.8 296.8 L 117.2 296.8 L 117.2 295.1 L 115.6 295.1 L 115.6 294.6 " fill="#000000"/>
<path class="atom-2" d="M 64.1 276.3 Q 64.1 274.2, 65.1 273.1 Q 66.2 271.9, 68.1 271.9 Q 70.0 271.9, 71.1 273.1 Q 72.1 274.2, 72.1 276.3 Q 72.1 278.4, 71.0 279.6 Q 70.0 280.8, 68.1 280.8 Q 66.2 280.8, 65.1 279.6 Q 64.1 278.4, 64.1 276.3 M 68.1 279.9 Q 69.4 279.9, 70.1 279.0 Q 70.9 278.1, 70.9 276.3 Q 70.9 274.6, 70.1 273.7 Q 69.4 272.9, 68.1 272.9 Q 66.8 272.9, 66.0 273.7 Q 65.3 274.6, 65.3 276.3 Q 65.3 278.1, 66.0 279.0 Q 66.8 279.9, 68.1 279.9 " fill="#000000"/>
<path class="atom-2" d="M 72.7 273.3 L 75.7 273.3 L 75.7 274.0 L 72.7 274.0 L 72.7 273.3 " fill="#000000"/>
<path class="atom-3" d="M 54.4 318.3 L 57.3 322.9 Q 57.6 323.4, 58.0 324.2 Q 58.5 325.0, 58.5 325.1 L 58.5 318.3 L 59.7 318.3 L 59.7 327.0 L 58.5 327.0 L 55.4 322.0 Q 55.0 321.4, 54.7 320.7 Q 54.3 320.0, 54.2 319.8 L 54.2 327.0 L 53.1 327.0 L 53.1 318.3 L 54.4 318.3 " fill="#000000"/>
<path class="atom-4" d="M 39.4 345.2 L 42.3 349.8 Q 42.6 350.2, 43.0 351.1 Q 43.5 351.9, 43.5 351.9 L 43.5 345.2 L 44.6 345.2 L 44.6 353.9 L 43.5 353.9 L 40.4 348.8 Q 40.0 348.2, 39.6 347.6 Q 39.3 346.9, 39.2 346.7 L 39.2 353.9 L 38.0 353.9 L 38.0 345.2 L 39.4 345.2 " fill="#000000"/>
<path class="atom-10" d="M 131.2 473.6 Q 131.2 471.5, 132.3 470.3 Q 133.3 469.2, 135.2 469.2 Q 137.2 469.2, 138.2 470.3 Q 139.2 471.5, 139.2 473.6 Q 139.2 475.7, 138.2 476.9 Q 137.1 478.1, 135.2 478.1 Q 133.3 478.1, 132.3 476.9 Q 131.2 475.7, 131.2 473.6 M 135.2 477.1 Q 136.5 477.1, 137.3 476.2 Q 138.0 475.3, 138.0 473.6 Q 138.0 471.9, 137.3 471.0 Q 136.5 470.1, 135.2 470.1 Q 133.9 470.1, 133.2 471.0 Q 132.4 471.9, 132.4 473.6 Q 132.4 475.4, 133.2 476.2 Q 133.9 477.1, 135.2 477.1 " fill="#000000"/>
<path class="atom-11" d="M 154.4 426.3 L 157.3 430.9 Q 157.6 431.4, 158.0 432.2 Q 158.5 433.0, 158.5 433.1 L 158.5 426.3 L 159.6 426.3 L 159.6 435.0 L 158.5 435.0 L 155.4 430.0 Q 155.0 429.4, 154.6 428.7 Q 154.3 428.0, 154.2 427.8 L 154.2 435.0 L 153.0 435.0 L 153.0 426.3 L 154.4 426.3 " fill="#000000"/>
<path class="atom-11" d="M 160.7 426.3 L 161.8 426.3 L 161.8 430.0 L 166.3 430.0 L 166.3 426.3 L 167.5 426.3 L 167.5 435.0 L 166.3 435.0 L 166.3 431.0 L 161.8 431.0 L 161.8 435.0 L 160.7 435.0 L 160.7 426.3 " fill="#000000"/>
<path class="atom-18" d="M 199.7 298.9 Q 199.7 296.7, 200.7 295.6 Q 201.8 294.4, 203.7 294.4 Q 205.5 294.4, 206.4 295.7 L 205.6 296.4 Q 204.9 295.5, 203.7 295.5 Q 202.4 295.5, 201.7 296.3 Q 201.0 297.2, 201.0 298.9 Q 201.0 300.6, 201.7 301.5 Q 202.4 302.4, 203.8 302.4 Q 204.8 302.4, 205.9 301.8 L 206.2 302.7 Q 205.8 303.0, 205.1 303.2 Q 204.4 303.4, 203.6 303.4 Q 201.8 303.4, 200.7 302.2 Q 199.7 301.1, 199.7 298.9 " fill="#000000"/>
<path class="atom-18" d="M 206.9 293.9 L 208.1 293.9 L 208.1 303.3 L 206.9 303.3 L 206.9 293.9 " fill="#000000"/>
<path class="atom-22" d="M 11.4 336.0 L 12.5 336.0 L 12.5 344.8 L 11.4 344.8 L 11.4 336.0 " fill="#000000"/>
<path class="atom-0" d="M 111.6,292.0 L 111.6,292.1 L 111.6,292.1 L 111.6,292.2 L 111.6,292.2 L 111.6,292.3 L 111.5,292.3 L 111.5,292.4 L 111.5,292.4 L 111.4,292.5 L 111.4,292.5 L 111.4,292.5 L 111.3,292.5 L 111.3,292.6 L 111.2,292.6 L 111.2,292.6 L 111.1,292.6 L 111.1,292.6 L 111.0,292.6 L 111.0,292.6 L 110.9,292.6 L 110.9,292.6 L 110.8,292.6 L 110.8,292.6 L 110.7,292.6 L 110.7,292.5 L 110.6,292.5 L 110.6,292.5 L 110.5,292.4 L 110.5,292.4 L 110.5,292.3 L 110.5,292.3 L 110.4,292.3 L 110.4,292.2 L 110.4,292.2 L 110.4,292.1 L 110.4,292.0 L 110.4,292.0 L 110.4,291.9 L 110.4,291.9 L 110.4,291.8 L 110.4,291.8 L 110.5,291.7 L 110.5,291.7 L 110.5,291.7 L 110.5,291.6 L 110.6,291.6 L 110.6,291.5 L 110.7,291.5 L 110.7,291.5 L 110.8,291.5 L 110.8,291.4 L 110.9,291.4 L 110.9,291.4 L 111.0,291.4 L 111.0,291.4 L 111.1,291.4 L 111.1,291.4 L 111.2,291.4 L 111.2,291.4 L 111.3,291.5 L 111.3,291.5 L 111.4,291.5 L 111.4,291.6 L 111.4,291.6 L 111.5,291.6 L 111.5,291.7 L 111.5,291.7 L 111.6,291.8 L 111.6,291.8 L 111.6,291.9 L 111.6,291.9 L 111.6,292.0 L 111.6,292.0 L 111.0,292.0 Z" style="fill:#000000;fill-rule:evenodd;fill-opacity:1;stroke:#000000;stroke-width:0.0px;stroke-linecap:butt;stroke-linejoin:miter;stroke-opacity:1;"/>
<path class="bond-0 atom-0 atom-1" d="M 312.0,395.8 L 336.9,410.2" style="fill:none;fill-rule:evenodd;stroke:#000000;stroke-width:2.0px;stroke-linecap:butt;stroke-linejoin:miter;stroke-opacity:1"/>
<path class="bond-0 atom-0 atom-1" d="M 307.8,403.1 L 332.6,417.6" style="fill:none;fill-rule:evenodd;stroke:#000000;stroke-width:2.0px;stroke-linecap:butt;stroke-linejoin:miter;stroke-opacity:1"/>
<path class="bond-1 atom-1 atom-2" d="M 346.7,413.9 L 377.8,396.1" style="fill:none;fill-rule:evenodd;stroke:#000000;stroke-width:2.0px;stroke-linecap:butt;stroke-linejoin:miter;stroke-opacity:1"/>
<path class="bond-2 atom-2 atom-3" d="M 377.8,396.1 L 377.9,360.9" style="fill:none;fill-rule:evenodd;stroke:#000000;stroke-width:2.0px;stroke-linecap:butt;stroke-linejoin:miter;stroke-opacity:1"/>
<path class="bond-3 atom-3 atom-4" d="M 383.9,350.0 L 414.9,332.2" style="fill:none;fill-rule:evenodd;stroke:#000000;stroke-width:2.0px;stroke-linecap:butt;stroke-linejoin:miter;stroke-opacity:1"/>
<path class="bond-4 atom-4 atom-5" d="M 410.7,332.2 L 410.8,297.2" style="fill:none;fill-rule:evenodd;stroke:#000000;stroke-width:2.0px;stroke-linecap:butt;stroke-linejoin:miter;stroke-opacity:1"/>
<path class="bond-4 atom-4 atom-5" d="M 419.2,332.2 L 419.3,297.2" style="fill:none;fill-rule:evenodd;stroke:#000000;stroke-width:2.0px;stroke-linecap:butt;stroke-linejoin:miter;stroke-opacity:1"/>
<path class="bond-5 atom-4 atom-6" d="M 414.9,332.2 L 451.9,353.7" style="fill:none;fill-rule:evenodd;stroke:#000000;stroke-width:2.0px;stroke-linecap:butt;stroke-linejoin:miter;stroke-opacity:1"/>
<path class="bond-6 atom-6 atom-7" d="M 451.9,353.7 L 451.7,388.9" style="fill:none;fill-rule:evenodd;stroke:#000000;stroke-width:2.0px;stroke-linecap:butt;stroke-linejoin:miter;stroke-opacity:1"/>
<path class="bond-7 atom-7 atom-8" d="M 457.7,399.9 L 488.6,417.8" style="fill:none;fill-rule:evenodd;stroke:#000000;stroke-width:2.0px;stroke-linecap:butt;stroke-linejoin:miter;stroke-opacity:1"/>
<path class="bond-8 atom-7 atom-9" d="M 445.7,399.8 L 414.7,417.6" style="fill:none;fill-rule:evenodd;stroke:#000000;stroke-width:2.0px;stroke-linecap:butt;stroke-linejoin:miter;stroke-opacity:1"/>
<path class="bond-9 atom-9 atom-10" d="M 419.0,417.6 L 418.8,452.8" style="fill:none;fill-rule:evenodd;stroke:#000000;stroke-width:2.0px;stroke-linecap:butt;stroke-linejoin:miter;stroke-opacity:1"/>
<path class="bond-9 atom-9 atom-10" d="M 410.4,417.6 L 410.3,452.8" style="fill:none;fill-rule:evenodd;stroke:#000000;stroke-width:2.0px;stroke-linecap:butt;stroke-linejoin:miter;stroke-opacity:1"/>
<path class="bond-10 atom-0 atom-11" d="M 295.6,396.1 L 271.7,382.2" style="fill:none;fill-rule:evenodd;stroke:#000000;stroke-width:2.0px;stroke-linecap:butt;stroke-linejoin:miter;stroke-opacity:1"/>
<path class="bond-10 atom-0 atom-11" d="M 299.9,388.7 L 276.0,374.8" style="fill:none;fill-rule:evenodd;stroke:#000000;stroke-width:2.0px;stroke-linecap:butt;stroke-linejoin:miter;stroke-opacity:1"/>
<path class="bond-11 atom-9 atom-2" d="M 414.7,417.6 L 377.8,396.1" style="fill:none;fill-rule:evenodd;stroke:#000000;stroke-width:2.0px;stroke-linecap:butt;stroke-linejoin:miter;stroke-opacity:1"/>
<path class="atom-0" d="M 299.2 396.0 Q 299.2 393.0, 300.6 391.4 Q 302.0 389.8, 304.7 389.8 Q 307.2 389.8, 308.5 391.6 L 307.4 392.5 Q 306.4 391.2, 304.7 391.2 Q 302.8 391.2, 301.9 392.4 Q 300.9 393.6, 300.9 396.0 Q 300.9 398.4, 301.9 399.6 Q 302.9 400.8, 304.8 400.8 Q 306.2 400.8, 307.7 400.0 L 308.2 401.3 Q 307.6 401.7, 306.6 401.9 Q 305.7 402.2, 304.6 402.2 Q 302.0 402.2, 300.6 400.6 Q 299.2 399.0, 299.2 396.0 " fill="#000000"/>
<path class="atom-1" d="M 338.1 411.3 L 342.0 417.7 Q 342.4 418.4, 343.0 419.5 Q 343.7 420.7, 343.7 420.7 L 343.7 411.3 L 345.3 411.3 L 345.3 423.4 L 343.7 423.4 L 339.4 416.4 Q 338.9 415.6, 338.4 414.7 Q 337.9 413.7, 337.7 413.4 L 337.7 423.4 L 336.2 423.4 L 336.2 411.3 L 338.1 411.3 " fill="#000000"/>
<path class="atom-3" d="M 362.4 347.4 L 364.0 347.4 L 364.0 352.5 L 370.2 352.5 L 370.2 347.4 L 371.9 347.4 L 371.9 359.5 L 370.2 359.5 L 370.2 353.9 L 364.0 353.9 L 364.0 359.5 L 362.4 359.5 L 362.4 347.4 " fill="#000000"/>
<path class="atom-3" d="M 375.2 347.4 L 379.2 353.8 Q 379.6 354.4, 380.2 355.6 Q 380.9 356.7, 380.9 356.8 L 380.9 347.4 L 382.5 347.4 L 382.5 359.5 L 380.8 359.5 L 376.6 352.5 Q 376.1 351.7, 375.6 350.7 Q 375.0 349.8, 374.9 349.5 L 374.9 359.5 L 373.3 359.5 L 373.3 347.4 L 375.2 347.4 " fill="#000000"/>
<path class="atom-5" d="M 409.5 289.5 Q 409.5 286.6, 411.0 285.0 Q 412.4 283.4, 415.1 283.4 Q 417.8 283.4, 419.2 285.0 Q 420.6 286.6, 420.6 289.5 Q 420.6 292.5, 419.2 294.2 Q 417.7 295.8, 415.1 295.8 Q 412.4 295.8, 411.0 294.2 Q 409.5 292.5, 409.5 289.5 M 415.1 294.5 Q 416.9 294.5, 417.9 293.2 Q 418.9 292.0, 418.9 289.5 Q 418.9 287.2, 417.9 286.0 Q 416.9 284.8, 415.1 284.8 Q 413.2 284.8, 412.2 286.0 Q 411.2 287.2, 411.2 289.5 Q 411.2 292.0, 412.2 293.2 Q 413.2 294.5, 415.1 294.5 " fill="#000000"/>
<path class="atom-7" d="M 449.1 390.3 L 453.0 396.7 Q 453.4 397.4, 454.0 398.5 Q 454.7 399.6, 454.7 399.7 L 454.7 390.3 L 456.3 390.3 L 456.3 402.4 L 454.7 402.4 L 450.4 395.4 Q 449.9 394.6, 449.4 393.6 Q 448.9 392.7, 448.7 392.4 L 448.7 402.4 L 447.1 402.4 L 447.1 390.3 L 449.1 390.3 " fill="#000000"/>
<path class="atom-10" d="M 409.0 460.3 Q 409.0 457.4, 410.4 455.8 Q 411.9 454.2, 414.6 454.2 Q 417.2 454.2, 418.7 455.8 Q 420.1 457.4, 420.1 460.3 Q 420.1 463.3, 418.7 464.9 Q 417.2 466.6, 414.6 466.6 Q 411.9 466.6, 410.4 464.9 Q 409.0 463.3, 409.0 460.3 M 414.6 465.2 Q 416.4 465.2, 417.4 464.0 Q 418.4 462.8, 418.4 460.3 Q 418.4 458.0, 417.4 456.8 Q 416.4 455.5, 414.6 455.5 Q 412.7 455.5, 411.7 456.7 Q 410.7 457.9, 410.7 460.3 Q 410.7 462.8, 411.7 464.0 Q 412.7 465.2, 414.6 465.2 " fill="#000000"/>
<path class="atom-11" d="M 261.4 374.5 Q 261.4 371.6, 262.8 370.0 Q 264.2 368.3, 266.9 368.3 Q 269.6 368.3, 271.0 370.0 Q 272.5 371.6, 272.5 374.5 Q 272.5 377.4, 271.0 379.1 Q 269.6 380.8, 266.9 380.8 Q 264.2 380.8, 262.8 379.1 Q 261.4 377.4, 261.4 374.5 M 266.9 379.4 Q 268.8 379.4, 269.7 378.2 Q 270.8 376.9, 270.8 374.5 Q 270.8 372.1, 269.7 370.9 Q 268.8 369.7, 266.9 369.7 Q 265.1 369.7, 264.1 370.9 Q 263.1 372.1, 263.1 374.5 Q 263.1 376.9, 264.1 378.2 Q 265.1 379.4, 266.9 379.4 " fill="#000000"/>
<path class="bond-0 atom-0 atom-1" d="M 514.1,390.4 L 523.7,378.0" style="fill:none;fill-rule:evenodd;stroke:#000000;stroke-width:2.0px;stroke-linecap:butt;stroke-linejoin:miter;stroke-opacity:1"/>
<path class="bond-1 atom-1 atom-2" d="M 523.1,371.8 L 518.4,360.3" style="fill:none;fill-rule:evenodd;stroke:#000000;stroke-width:2.0px;stroke-linecap:butt;stroke-linejoin:miter;stroke-opacity:1"/>
<path class="bond-1 atom-1 atom-2" d="M 526.8,370.3 L 522.1,358.8" style="fill:none;fill-rule:evenodd;stroke:#000000;stroke-width:2.0px;stroke-linecap:butt;stroke-linejoin:miter;stroke-opacity:1"/>
<path class="bond-2 atom-1 atom-3" d="M 529.2,374.9 L 543.4,376.9" style="fill:none;fill-rule:evenodd;stroke:#000000;stroke-width:2.0px;stroke-linecap:butt;stroke-linejoin:miter;stroke-opacity:1"/>
<path class="bond-3 atom-3 atom-4" d="M 549.0,373.8 L 558.5,361.4" style="fill:none;fill-rule:evenodd;stroke:#000000;stroke-width:2.0px;stroke-linecap:butt;stroke-linejoin:miter;stroke-opacity:1"/>
<path class="bond-4 atom-4 atom-5" d="M 558.5,361.4 L 549.1,343.6 L 552.8,342.1 Z" style="fill:#000000;fill-rule:evenodd;fill-opacity:1;stroke:#000000;stroke-width:1.0px;stroke-linecap:butt;stroke-linejoin:miter;stroke-opacity:1;"/>
<path class="bond-5 atom-4 atom-6" d="M 558.5,361.4 L 578.4,364.2" style="fill:none;fill-rule:evenodd;stroke:#000000;stroke-width:2.0px;stroke-linecap:butt;stroke-linejoin:miter;stroke-opacity:1"/>
<path class="bond-6 atom-6 atom-7" d="M 576.8,363.0 L 586.3,350.7" style="fill:none;fill-rule:evenodd;stroke:#000000;stroke-width:2.0px;stroke-linecap:butt;stroke-linejoin:miter;stroke-opacity:1"/>
<path class="bond-6 atom-6 atom-7" d="M 580.0,365.4 L 589.5,353.2" style="fill:none;fill-rule:evenodd;stroke:#000000;stroke-width:2.0px;stroke-linecap:butt;stroke-linejoin:miter;stroke-opacity:1"/>
<path class="bond-7 atom-6 atom-8" d="M 578.4,364.2 L 584.5,379.3" style="fill:none;fill-rule:evenodd;stroke:#000000;stroke-width:2.0px;stroke-linecap:butt;stroke-linejoin:miter;stroke-opacity:1"/>
<path class="bond-8 atom-8 atom-9" d="M 583.8,386.3 L 575.4,399.8" style="fill:none;fill-rule:evenodd;stroke:#000000;stroke-width:2.0px;stroke-linecap:butt;stroke-linejoin:miter;stroke-opacity:1"/>
<path class="bond-9 atom-9 atom-10" d="M 575.4,399.8 L 588.3,415.1" style="fill:none;fill-rule:evenodd;stroke:#000000;stroke-width:2.0px;stroke-linecap:butt;stroke-linejoin:miter;stroke-opacity:1"/>
<path class="bond-10 atom-10 atom-11" d="M 588.3,415.1 L 606.9,407.6" style="fill:none;fill-rule:evenodd;stroke:#000000;stroke-width:2.0px;stroke-linecap:butt;stroke-linejoin:miter;stroke-opacity:1"/>
<path class="bond-11 atom-11 atom-12" d="M 606.9,407.6 L 605.7,391.1" style="fill:none;fill-rule:evenodd;stroke:#000000;stroke-width:2.0px;stroke-linecap:butt;stroke-linejoin:miter;stroke-opacity:1"/>
<path class="bond-12 atom-12 atom-13" d="M 608.2,385.2 L 620.7,374.6" style="fill:none;fill-rule:evenodd;stroke:#000000;stroke-width:2.0px;stroke-linecap:butt;stroke-linejoin:miter;stroke-opacity:1"/>
<path class="bond-13 atom-13 atom-14" d="M 618.8,375.0 L 615.9,358.9" style="fill:none;fill-rule:evenodd;stroke:#000000;stroke-width:2.0px;stroke-linecap:butt;stroke-linejoin:miter;stroke-opacity:1"/>
<path class="bond-13 atom-13 atom-14" d="M 622.7,374.3 L 619.8,358.2" style="fill:none;fill-rule:evenodd;stroke:#000000;stroke-width:2.0px;stroke-linecap:butt;stroke-linejoin:miter;stroke-opacity:1"/>
<path class="bond-14 atom-13 atom-15" d="M 620.7,374.6 L 639.6,381.4" style="fill:none;fill-rule:evenodd;stroke:#000000;stroke-width:2.0px;stroke-linecap:butt;stroke-linejoin:miter;stroke-opacity:1"/>
<path class="bond-15 atom-15 atom-16" d="M 639.6,381.4 L 654.9,368.5" style="fill:none;fill-rule:evenodd;stroke:#000000;stroke-width:2.0px;stroke-linecap:butt;stroke-linejoin:miter;stroke-opacity:1"/>
<path class="bond-16 atom-16 atom-17" d="M 654.9,368.5 L 673.8,375.3" style="fill:none;fill-rule:evenodd;stroke:#000000;stroke-width:2.0px;stroke-linecap:butt;stroke-linejoin:miter;stroke-opacity:1"/>
<path class="bond-17 atom-17 atom-18" d="M 673.8,375.3 L 675.8,395.3" style="fill:none;fill-rule:evenodd;stroke:#000000;stroke-width:2.0px;stroke-linecap:butt;stroke-linejoin:miter;stroke-opacity:1"/>
<path class="bond-18 atom-18 atom-19" d="M 675.8,395.3 L 692.7,406.1" style="fill:none;fill-rule:evenodd;stroke:#000000;stroke-width:2.0px;stroke-linecap:butt;stroke-linejoin:miter;stroke-opacity:1"/>
<path class="bond-19 atom-19 atom-20" d="M 692.7,406.1 L 678.4,420.1" style="fill:none;fill-rule:evenodd;stroke:#000000;stroke-width:2.0px;stroke-linecap:butt;stroke-linejoin:miter;stroke-opacity:1"/>
<path class="bond-20 atom-19 atom-21" d="M 692.7,406.1 L 703.2,423.2" style="fill:none;fill-rule:evenodd;stroke:#000000;stroke-width:2.0px;stroke-linecap:butt;stroke-linejoin:miter;stroke-opacity:1"/>
<path class="bond-21 atom-19 atom-22" d="M 692.7,406.1 L 711.7,399.7" style="fill:none;fill-rule:evenodd;stroke:#000000;stroke-width:2.0px;stroke-linecap:butt;stroke-linejoin:miter;stroke-opacity:1"/>
<path class="bond-22 atom-22 atom-23" d="M 711.7,399.7 L 718.5,380.8" style="fill:none;fill-rule:evenodd;stroke:#000000;stroke-width:2.0px;stroke-linecap:butt;stroke-linejoin:miter;stroke-opacity:1"/>
<path class="bond-23 atom-23 atom-24" d="M 718.5,380.8 L 738.2,376.8 L 738.6,380.8 Z" style="fill:#000000;fill-rule:evenodd;fill-opacity:1;stroke:#000000;stroke-width:1.0px;stroke-linecap:butt;stroke-linejoin:miter;stroke-opacity:1;"/>
<path class="bond-24 atom-23 atom-25" d="M 718.5,380.8 L 708.0,363.7" style="fill:none;fill-rule:evenodd;stroke:#000000;stroke-width:2.0px;stroke-linecap:butt;stroke-linejoin:miter;stroke-opacity:1"/>
<path class="bond-25 atom-25 atom-26" d="M 708.0,363.7 L 720.1,347.7" style="fill:none;fill-rule:evenodd;stroke:#000000;stroke-width:2.0px;stroke-linecap:butt;stroke-linejoin:miter;stroke-opacity:1"/>
<path class="bond-25 atom-25 atom-26" d="M 706.6,358.9 L 715.0,347.7" style="fill:none;fill-rule:evenodd;stroke:#000000;stroke-width:2.0px;stroke-linecap:butt;stroke-linejoin:miter;stroke-opacity:1"/>
<path class="bond-26 atom-26 atom-27" d="M 720.1,347.7 L 712.2,329.3" style="fill:none;fill-rule:evenodd;stroke:#000000;stroke-width:2.0px;stroke-linecap:butt;stroke-linejoin:miter;stroke-opacity:1"/>
<path class="bond-27 atom-27 atom-28" d="M 712.2,329.3 L 692.3,326.8" style="fill:none;fill-rule:evenodd;stroke:#000000;stroke-width:2.0px;stroke-linecap:butt;stroke-linejoin:miter;stroke-opacity:1"/>
<path class="bond-27 atom-27 atom-28" d="M 708.7,332.9 L 694.8,331.2" style="fill:none;fill-rule:evenodd;stroke:#000000;stroke-width:2.0px;stroke-linecap:butt;stroke-linejoin:miter;stroke-opacity:1"/>
<path class="bond-28 atom-28 atom-29" d="M 692.3,326.8 L 682.9,339.3" style="fill:none;fill-rule:evenodd;stroke:#000000;stroke-width:2.0px;stroke-linecap:butt;stroke-linejoin:miter;stroke-opacity:1"/>
<path class="bond-29 atom-29 atom-30" d="M 681.7,346.3 L 688.1,361.3" style="fill:none;fill-rule:evenodd;stroke:#000000;stroke-width:2.0px;stroke-linecap:butt;stroke-linejoin:miter;stroke-opacity:1"/>
<path class="bond-29 atom-29 atom-30" d="M 686.4,347.0 L 690.8,357.5" style="fill:none;fill-rule:evenodd;stroke:#000000;stroke-width:2.0px;stroke-linecap:butt;stroke-linejoin:miter;stroke-opacity:1"/>
<path class="bond-30 atom-12 atom-8" d="M 602.6,386.9 L 588.8,383.5" style="fill:none;fill-rule:evenodd;stroke:#000000;stroke-width:2.0px;stroke-linecap:butt;stroke-linejoin:miter;stroke-opacity:1"/>
<path class="bond-31 atom-30 atom-17" d="M 688.1,361.3 L 673.8,375.3" style="fill:none;fill-rule:evenodd;stroke:#000000;stroke-width:2.0px;stroke-linecap:butt;stroke-linejoin:miter;stroke-opacity:1"/>
<path class="bond-32 atom-30 atom-25" d="M 688.1,361.3 L 708.0,363.7" style="fill:none;fill-rule:evenodd;stroke:#000000;stroke-width:2.0px;stroke-linecap:butt;stroke-linejoin:miter;stroke-opacity:1"/>
<path class="atom-1" d="M 525.1 371.7 L 527.0 374.7 Q 527.2 375.0, 527.5 375.5 Q 527.8 376.1, 527.8 376.1 L 527.8 371.7 L 528.5 371.7 L 528.5 377.4 L 527.7 377.4 L 525.8 374.1 Q 525.5 373.7, 525.3 373.3 Q 525.0 372.8, 525.0 372.7 L 525.0 377.4 L 524.2 377.4 L 524.2 371.7 L 525.1 371.7 " fill="#000000"/>
<path class="atom-1" d="M 529.2 372.7 L 530.2 372.7 L 530.2 371.7 L 530.6 371.7 L 530.6 372.7 L 531.7 372.7 L 531.7 373.1 L 530.6 373.1 L 530.6 374.2 L 530.2 374.2 L 530.2 373.1 L 529.2 373.1 L 529.2 372.7 " fill="#000000"/>
<path class="atom-2" d="M 516.2 356.0 Q 516.2 354.6, 516.9 353.9 Q 517.6 353.1, 518.8 353.1 Q 520.1 353.1, 520.7 353.9 Q 521.4 354.6, 521.4 356.0 Q 521.4 357.4, 520.7 358.2 Q 520.1 358.9, 518.8 358.9 Q 517.6 358.9, 516.9 358.2 Q 516.2 357.4, 516.2 356.0 M 518.8 358.3 Q 519.7 358.3, 520.1 357.7 Q 520.6 357.1, 520.6 356.0 Q 520.6 354.9, 520.1 354.3 Q 519.7 353.7, 518.8 353.7 Q 517.9 353.7, 517.5 354.3 Q 517.0 354.9, 517.0 356.0 Q 517.0 357.1, 517.5 357.7 Q 517.9 358.3, 518.8 358.3 " fill="#000000"/>
<path class="atom-3" d="M 545.0 374.4 L 546.8 377.4 Q 547.0 377.7, 547.3 378.3 Q 547.6 378.8, 547.6 378.8 L 547.6 374.4 L 548.4 374.4 L 548.4 380.1 L 547.6 380.1 L 545.6 376.8 Q 545.4 376.4, 545.1 376.0 Q 544.9 375.6, 544.8 375.4 L 544.8 380.1 L 544.1 380.1 L 544.1 374.4 L 545.0 374.4 " fill="#000000"/>
<path class="atom-3" d="M 549.1 374.4 L 549.8 374.4 L 549.8 376.9 L 552.7 376.9 L 552.7 374.4 L 553.5 374.4 L 553.5 380.1 L 552.7 380.1 L 552.7 377.5 L 549.8 377.5 L 549.8 380.1 L 549.1 380.1 L 549.1 374.4 " fill="#000000"/>
<path class="atom-7" d="M 588.1 348.4 Q 588.1 347.0, 588.8 346.2 Q 589.4 345.5, 590.7 345.5 Q 592.0 345.5, 592.6 346.2 Q 593.3 347.0, 593.3 348.4 Q 593.3 349.8, 592.6 350.5 Q 591.9 351.3, 590.7 351.3 Q 589.4 351.3, 588.8 350.5 Q 588.1 349.8, 588.1 348.4 M 590.7 350.7 Q 591.6 350.7, 592.0 350.1 Q 592.5 349.5, 592.5 348.4 Q 592.5 347.3, 592.0 346.7 Q 591.6 346.1, 590.7 346.1 Q 589.8 346.1, 589.4 346.7 Q 588.9 347.3, 588.9 348.4 Q 588.9 349.5, 589.4 350.1 Q 589.8 350.7, 590.7 350.7 " fill="#000000"/>
<path class="atom-8" d="M 584.7 379.9 L 586.6 382.9 Q 586.7 383.2, 587.0 383.8 Q 587.3 384.3, 587.4 384.3 L 587.4 379.9 L 588.1 379.9 L 588.1 385.6 L 587.3 385.6 L 585.3 382.3 Q 585.1 381.9, 584.8 381.5 Q 584.6 381.0, 584.5 380.9 L 584.5 385.6 L 583.8 385.6 L 583.8 379.9 L 584.7 379.9 " fill="#000000"/>
<path class="atom-12" d="M 604.2 384.7 L 606.0 387.7 Q 606.2 388.0, 606.5 388.6 Q 606.8 389.1, 606.8 389.1 L 606.8 384.7 L 607.6 384.7 L 607.6 390.4 L 606.8 390.4 L 604.8 387.1 Q 604.6 386.7, 604.3 386.3 Q 604.1 385.8, 604.0 385.7 L 604.0 390.4 L 603.3 390.4 L 603.3 384.7 L 604.2 384.7 " fill="#000000"/>
<path class="atom-14" d="M 614.6 354.9 Q 614.6 353.5, 615.3 352.8 Q 615.9 352.0, 617.2 352.0 Q 618.5 352.0, 619.1 352.8 Q 619.8 353.5, 619.8 354.9 Q 619.8 356.3, 619.1 357.1 Q 618.5 357.9, 617.2 357.9 Q 616.0 357.9, 615.3 357.1 Q 614.6 356.3, 614.6 354.9 M 617.2 357.2 Q 618.1 357.2, 618.5 356.6 Q 619.0 356.1, 619.0 354.9 Q 619.0 353.8, 618.5 353.2 Q 618.1 352.7, 617.2 352.7 Q 616.3 352.7, 615.9 353.2 Q 615.4 353.8, 615.4 354.9 Q 615.4 356.1, 615.9 356.6 Q 616.3 357.2, 617.2 357.2 " fill="#000000"/>
<path class="atom-29" d="M 679.0 340.0 L 680.9 343.0 Q 681.0 343.3, 681.3 343.8 Q 681.6 344.4, 681.7 344.4 L 681.7 340.0 L 682.4 340.0 L 682.4 345.7 L 681.6 345.7 L 679.6 342.4 Q 679.4 342.0, 679.2 341.6 Q 678.9 341.1, 678.8 341.0 L 678.8 345.7 L 678.1 345.7 L 678.1 340.0 L 679.0 340.0 " fill="#000000"/>
<path class="atom-0" d="M 512.1,391.2 L 512.1,391.2 L 512.1,391.2 L 512.1,391.3 L 512.0,391.3 L 512.0,391.3 L 512.0,391.4 L 512.0,391.4 L 512.0,391.4 L 512.0,391.4 L 511.9,391.5 L 511.9,391.5 L 511.9,391.5 L 511.8,391.5 L 511.8,391.5 L 511.8,391.6 L 511.7,391.6 L 511.7,391.6 L 511.7,391.6 L 511.6,391.6 L 511.6,391.6 L 511.6,391.6 L 511.5,391.5 L 511.5,391.5 L 511.5,391.5 L 511.4,391.5 L 511.4,391.5 L 511.4,391.5 L 511.4,391.4 L 511.3,391.4 L 511.3,391.4 L 511.3,391.4 L 511.3,391.3 L 511.3,391.3 L 511.3,391.3 L 511.3,391.2 L 511.3,391.2 L 511.3,391.2 L 511.3,391.1 L 511.3,391.1 L 511.3,391.1 L 511.3,391.0 L 511.3,391.0 L 511.3,391.0 L 511.3,390.9 L 511.4,390.9 L 511.4,390.9 L 511.4,390.9 L 511.4,390.8 L 511.5,390.8 L 511.5,390.8 L 511.5,390.8 L 511.6,390.8 L 511.6,390.8 L 511.6,390.8 L 511.7,390.8 L 511.7,390.8 L 511.7,390.8 L 511.8,390.8 L 511.8,390.8 L 511.8,390.8 L 511.9,390.8 L 511.9,390.8 L 511.9,390.9 L 512.0,390.9 L 512.0,390.9 L 512.0,390.9 L 512.0,391.0 L 512.0,391.0 L 512.0,391.0 L 512.1,391.1 L 512.1,391.1 L 512.1,391.1 L 512.1,391.2 L 511.7,391.2 Z" style="fill:#000000;fill-rule:evenodd;fill-opacity:1;stroke:#000000;stroke-width:0.0px;stroke-linecap:butt;stroke-linejoin:miter;stroke-opacity:1;"/>
<path class="atom-0" d="M 512.1,389.6 L 512.1,389.6 L 512.1,389.6 L 512.1,389.7 L 512.0,389.7 L 512.0,389.7 L 512.0,389.8 L 512.0,389.8 L 512.0,389.8 L 512.0,389.8 L 511.9,389.9 L 511.9,389.9 L 511.9,389.9 L 511.8,389.9 L 511.8,389.9 L 511.8,390.0 L 511.7,390.0 L 511.7,390.0 L 511.7,390.0 L 511.6,390.0 L 511.6,390.0 L 511.6,390.0 L 511.5,389.9 L 511.5,389.9 L 511.5,389.9 L 511.4,389.9 L 511.4,389.9 L 511.4,389.9 L 511.4,389.8 L 511.3,389.8 L 511.3,389.8 L 511.3,389.7 L 511.3,389.7 L 511.3,389.7 L 511.3,389.7 L 511.3,389.6 L 511.3,389.6 L 511.3,389.5 L 511.3,389.5 L 511.3,389.5 L 511.3,389.4 L 511.3,389.4 L 511.3,389.4 L 511.3,389.4 L 511.3,389.3 L 511.4,389.3 L 511.4,389.3 L 511.4,389.3 L 511.4,389.2 L 511.5,389.2 L 511.5,389.2 L 511.5,389.2 L 511.6,389.2 L 511.6,389.2 L 511.6,389.2 L 511.7,389.2 L 511.7,389.2 L 511.7,389.2 L 511.8,389.2 L 511.8,389.2 L 511.8,389.2 L 511.9,389.2 L 511.9,389.2 L 511.9,389.3 L 512.0,389.3 L 512.0,389.3 L 512.0,389.3 L 512.0,389.4 L 512.0,389.4 L 512.0,389.4 L 512.1,389.5 L 512.1,389.5 L 512.1,389.5 L 512.1,389.6 L 511.7,389.6 Z" style="fill:#000000;fill-rule:evenodd;fill-opacity:1;stroke:#000000;stroke-width:0.0px;stroke-linecap:butt;stroke-linejoin:miter;stroke-opacity:1;"/>
<path class="bond-0 atom-0 atom-1" d="M 82.9,605.7 L 76.1,623.0" style="fill:none;fill-rule:evenodd;stroke:#000000;stroke-width:2.0px;stroke-linecap:butt;stroke-linejoin:miter;stroke-opacity:1"/>
<path class="bond-0 atom-0 atom-1" d="M 78.6,604.0 L 71.8,621.3" style="fill:none;fill-rule:evenodd;stroke:#000000;stroke-width:2.0px;stroke-linecap:butt;stroke-linejoin:miter;stroke-opacity:1"/>
<path class="bond-1 atom-1 atom-2" d="M 74.0,622.1 L 55.4,626.9" style="fill:none;fill-rule:evenodd;stroke:#000000;stroke-width:2.0px;stroke-linecap:butt;stroke-linejoin:miter;stroke-opacity:1"/>
<path class="bond-2 atom-2 atom-3" d="M 51.4,632.1 L 50.2,650.9" style="fill:none;fill-rule:evenodd;stroke:#000000;stroke-width:2.0px;stroke-linecap:butt;stroke-linejoin:miter;stroke-opacity:1"/>
<path class="bond-3 atom-3 atom-4" d="M 44.5,653.6 L 45.4,654.9" style="fill:none;fill-rule:evenodd;stroke:#000000;stroke-width:1.0px;stroke-linecap:butt;stroke-linejoin:miter;stroke-opacity:1"/>
<path class="bond-3 atom-3 atom-4" d="M 38.9,656.3 L 40.5,658.9" style="fill:none;fill-rule:evenodd;stroke:#000000;stroke-width:1.0px;stroke-linecap:butt;stroke-linejoin:miter;stroke-opacity:1"/>
<path class="bond-3 atom-3 atom-4" d="M 33.2,659.1 L 35.7,662.9" style="fill:none;fill-rule:evenodd;stroke:#000000;stroke-width:1.0px;stroke-linecap:butt;stroke-linejoin:miter;stroke-opacity:1"/>
<path class="bond-4 atom-4 atom-5" d="M 27.9,665.1 L 11.4,675.7" style="fill:none;fill-rule:evenodd;stroke:#000000;stroke-width:2.0px;stroke-linecap:butt;stroke-linejoin:miter;stroke-opacity:1"/>
<path class="bond-5 atom-4 atom-6" d="M 35.4,666.3 L 42.5,677.4" style="fill:none;fill-rule:evenodd;stroke:#000000;stroke-width:2.0px;stroke-linecap:butt;stroke-linejoin:miter;stroke-opacity:1"/>
<path class="bond-5 atom-4 atom-6" d="M 31.5,668.7 L 38.7,679.9" style="fill:none;fill-rule:evenodd;stroke:#000000;stroke-width:2.0px;stroke-linecap:butt;stroke-linejoin:miter;stroke-opacity:1"/>
<path class="bond-6 atom-4 atom-7" d="M 26.3,660.5 L 19.1,649.3" style="fill:none;fill-rule:evenodd;stroke:#000000;stroke-width:2.0px;stroke-linecap:butt;stroke-linejoin:miter;stroke-opacity:1"/>
<path class="bond-6 atom-4 atom-7" d="M 30.2,658.1 L 23.0,646.8" style="fill:none;fill-rule:evenodd;stroke:#000000;stroke-width:2.0px;stroke-linecap:butt;stroke-linejoin:miter;stroke-opacity:1"/>
<path class="bond-7 atom-3 atom-8" d="M 50.2,650.9 L 71.7,659.4" style="fill:none;fill-rule:evenodd;stroke:#000000;stroke-width:2.0px;stroke-linecap:butt;stroke-linejoin:miter;stroke-opacity:1"/>
<path class="bond-8 atom-8 atom-9" d="M 71.7,659.4 L 86.3,641.6" style="fill:none;fill-rule:evenodd;stroke:#000000;stroke-width:2.0px;stroke-linecap:butt;stroke-linejoin:miter;stroke-opacity:1"/>
<path class="bond-9 atom-9 atom-10" d="M 86.3,641.6 L 109.5,640.7 L 109.2,645.3 Z" style="fill:#000000;fill-rule:evenodd;fill-opacity:1;stroke:#000000;stroke-width:1.0px;stroke-linecap:butt;stroke-linejoin:miter;stroke-opacity:1;"/>
<path class="bond-10 atom-10 atom-11" d="M 107.4,641.7 L 117.4,626.7" style="fill:none;fill-rule:evenodd;stroke:#000000;stroke-width:2.0px;stroke-linecap:butt;stroke-linejoin:miter;stroke-opacity:1"/>
<path class="bond-10 atom-10 atom-11" d="M 111.3,644.3 L 121.2,629.2" style="fill:none;fill-rule:evenodd;stroke:#000000;stroke-width:2.0px;stroke-linecap:butt;stroke-linejoin:miter;stroke-opacity:1"/>
<path class="bond-11 atom-10 atom-12" d="M 109.3,643.0 L 117.6,659.6" style="fill:none;fill-rule:evenodd;stroke:#000000;stroke-width:2.0px;stroke-linecap:butt;stroke-linejoin:miter;stroke-opacity:1"/>
<path class="bond-12 atom-12 atom-13" d="M 122.9,663.8 L 142.6,665.0" style="fill:none;fill-rule:evenodd;stroke:#000000;stroke-width:2.0px;stroke-linecap:butt;stroke-linejoin:miter;stroke-opacity:1"/>
<path class="bond-13 atom-13 atom-14" d="M 142.6,665.0 L 152.7,644.3" style="fill:none;fill-rule:evenodd;stroke:#000000;stroke-width:2.0px;stroke-linecap:butt;stroke-linejoin:miter;stroke-opacity:1"/>
<path class="bond-14 atom-14 atom-15" d="M 152.7,644.3 L 129.6,645.6" style="fill:none;fill-rule:evenodd;stroke:#000000;stroke-width:2.0px;stroke-linecap:butt;stroke-linejoin:miter;stroke-opacity:1"/>
<path class="bond-14 atom-14 atom-15" d="M 149.5,649.1 L 133.3,650.0" style="fill:none;fill-rule:evenodd;stroke:#000000;stroke-width:2.0px;stroke-linecap:butt;stroke-linejoin:miter;stroke-opacity:1"/>
<path class="bond-15 atom-15 atom-16" d="M 129.6,645.6 L 116.9,664.8" style="fill:none;fill-rule:evenodd;stroke:#000000;stroke-width:2.0px;stroke-linecap:butt;stroke-linejoin:miter;stroke-opacity:1"/>
<path class="bond-16 atom-16 atom-17" d="M 116.9,664.8 L 127.1,685.4" style="fill:none;fill-rule:evenodd;stroke:#000000;stroke-width:2.0px;stroke-linecap:butt;stroke-linejoin:miter;stroke-opacity:1"/>
<path class="bond-16 atom-16 atom-17" d="M 122.5,665.8 L 129.7,680.2" style="fill:none;fill-rule:evenodd;stroke:#000000;stroke-width:2.0px;stroke-linecap:butt;stroke-linejoin:miter;stroke-opacity:1"/>
<path class="bond-17 atom-17 atom-18" d="M 127.1,685.4 L 150.1,686.8" style="fill:none;fill-rule:evenodd;stroke:#000000;stroke-width:2.0px;stroke-linecap:butt;stroke-linejoin:miter;stroke-opacity:1"/>
<path class="bond-18 atom-18 atom-19" d="M 150.1,686.8 L 167.6,695.3" style="fill:none;fill-rule:evenodd;stroke:#000000;stroke-width:2.0px;stroke-linecap:butt;stroke-linejoin:miter;stroke-opacity:1"/>
<path class="bond-19 atom-19 atom-20" d="M 174.1,695.8 L 192.7,689.4" style="fill:none;fill-rule:evenodd;stroke:#000000;stroke-width:2.0px;stroke-linecap:butt;stroke-linejoin:miter;stroke-opacity:1"/>
<path class="bond-20 atom-20 atom-21" d="M 192.7,689.4 L 205.5,708.5" style="fill:none;fill-rule:evenodd;stroke:#000000;stroke-width:2.0px;stroke-linecap:butt;stroke-linejoin:miter;stroke-opacity:1"/>
<path class="bond-20 atom-20 atom-21" d="M 198.4,689.7 L 207.4,703.1" style="fill:none;fill-rule:evenodd;stroke:#000000;stroke-width:2.0px;stroke-linecap:butt;stroke-linejoin:miter;stroke-opacity:1"/>
<path class="bond-21 atom-21 atom-22" d="M 205.5,708.5 L 228.5,706.9" style="fill:none;fill-rule:evenodd;stroke:#000000;stroke-width:2.0px;stroke-linecap:butt;stroke-linejoin:miter;stroke-opacity:1"/>
<path class="bond-22 atom-22 atom-23" d="M 228.5,706.9 L 238.6,686.2" style="fill:none;fill-rule:evenodd;stroke:#000000;stroke-width:2.0px;stroke-linecap:butt;stroke-linejoin:miter;stroke-opacity:1"/>
<path class="bond-22 atom-22 atom-23" d="M 225.9,701.8 L 233.0,687.3" style="fill:none;fill-rule:evenodd;stroke:#000000;stroke-width:2.0px;stroke-linecap:butt;stroke-linejoin:miter;stroke-opacity:1"/>
<path class="bond-23 atom-23 atom-24" d="M 238.6,686.2 L 225.7,667.1" style="fill:none;fill-rule:evenodd;stroke:#000000;stroke-width:2.0px;stroke-linecap:butt;stroke-linejoin:miter;stroke-opacity:1"/>
<path class="bond-24 atom-24 atom-25" d="M 225.7,667.1 L 202.8,668.7" style="fill:none;fill-rule:evenodd;stroke:#000000;stroke-width:2.0px;stroke-linecap:butt;stroke-linejoin:miter;stroke-opacity:1"/>
<path class="bond-24 atom-24 atom-25" d="M 222.6,671.9 L 206.5,673.0" style="fill:none;fill-rule:evenodd;stroke:#000000;stroke-width:2.0px;stroke-linecap:butt;stroke-linejoin:miter;stroke-opacity:1"/>
<path class="bond-25 atom-25 atom-26" d="M 202.8,668.7 L 196.6,650.9" style="fill:none;fill-rule:evenodd;stroke:#000000;stroke-width:2.0px;stroke-linecap:butt;stroke-linejoin:miter;stroke-opacity:1"/>
<path class="bond-26 atom-26 atom-27" d="M 192.0,645.3 L 174.5,636.8" style="fill:none;fill-rule:evenodd;stroke:#000000;stroke-width:2.0px;stroke-linecap:butt;stroke-linejoin:miter;stroke-opacity:1"/>
<path class="bond-27 atom-27 atom-28" d="M 175.5,631.1 L 174.3,631.0" style="fill:none;fill-rule:evenodd;stroke:#000000;stroke-width:1.0px;stroke-linecap:butt;stroke-linejoin:miter;stroke-opacity:1"/>
<path class="bond-27 atom-27 atom-28" d="M 176.4,625.4 L 174.1,625.2" style="fill:none;fill-rule:evenodd;stroke:#000000;stroke-width:1.0px;stroke-linecap:butt;stroke-linejoin:miter;stroke-opacity:1"/>
<path class="bond-27 atom-27 atom-28" d="M 177.3,619.6 L 173.9,619.4" style="fill:none;fill-rule:evenodd;stroke:#000000;stroke-width:1.0px;stroke-linecap:butt;stroke-linejoin:miter;stroke-opacity:1"/>
<path class="bond-27 atom-27 atom-28" d="M 178.2,613.9 L 173.6,613.6" style="fill:none;fill-rule:evenodd;stroke:#000000;stroke-width:1.0px;stroke-linecap:butt;stroke-linejoin:miter;stroke-opacity:1"/>
<path class="bond-28 atom-28 atom-29" d="M 175.9,613.8 L 196.6,603.5" style="fill:none;fill-rule:evenodd;stroke:#000000;stroke-width:2.0px;stroke-linecap:butt;stroke-linejoin:miter;stroke-opacity:1"/>
<path class="bond-28 atom-28 atom-29" d="M 177.0,608.1 L 191.4,600.9" style="fill:none;fill-rule:evenodd;stroke:#000000;stroke-width:2.0px;stroke-linecap:butt;stroke-linejoin:miter;stroke-opacity:1"/>
<path class="bond-29 atom-29 atom-30" d="M 196.6,603.5 L 198.0,580.5" style="fill:none;fill-rule:evenodd;stroke:#000000;stroke-width:2.0px;stroke-linecap:butt;stroke-linejoin:miter;stroke-opacity:1"/>
<path class="bond-30 atom-30 atom-31" d="M 198.0,580.5 L 178.7,567.8" style="fill:none;fill-rule:evenodd;stroke:#000000;stroke-width:2.0px;stroke-linecap:butt;stroke-linejoin:miter;stroke-opacity:1"/>
<path class="bond-30 atom-30 atom-31" d="M 192.5,582.4 L 179.1,573.5" style="fill:none;fill-rule:evenodd;stroke:#000000;stroke-width:2.0px;stroke-linecap:butt;stroke-linejoin:miter;stroke-opacity:1"/>
<path class="bond-31 atom-31 atom-32" d="M 178.7,567.8 L 179.9,548.8" style="fill:none;fill-rule:evenodd;stroke:#000000;stroke-width:2.0px;stroke-linecap:butt;stroke-linejoin:miter;stroke-opacity:1"/>
<path class="bond-32 atom-31 atom-33" d="M 178.7,567.8 L 158.1,578.1" style="fill:none;fill-rule:evenodd;stroke:#000000;stroke-width:2.0px;stroke-linecap:butt;stroke-linejoin:miter;stroke-opacity:1"/>
<path class="bond-33 atom-33 atom-34" d="M 158.1,578.1 L 156.7,601.1" style="fill:none;fill-rule:evenodd;stroke:#000000;stroke-width:2.0px;stroke-linecap:butt;stroke-linejoin:miter;stroke-opacity:1"/>
<path class="bond-33 atom-33 atom-34" d="M 162.5,581.8 L 161.5,597.9" style="fill:none;fill-rule:evenodd;stroke:#000000;stroke-width:2.0px;stroke-linecap:butt;stroke-linejoin:miter;stroke-opacity:1"/>
<path class="bond-34 atom-34 atom-35" d="M 156.7,601.1 L 138.9,609.9" style="fill:none;fill-rule:evenodd;stroke:#000000;stroke-width:2.0px;stroke-linecap:butt;stroke-linejoin:miter;stroke-opacity:1"/>
<path class="bond-35 atom-35 atom-36" d="M 132.0,611.4 L 115.6,600.6" style="fill:none;fill-rule:evenodd;stroke:#000000;stroke-width:2.0px;stroke-linecap:butt;stroke-linejoin:miter;stroke-opacity:1"/>
<path class="bond-35 atom-35 atom-36" d="M 134.5,607.5 L 118.1,596.7" style="fill:none;fill-rule:evenodd;stroke:#000000;stroke-width:2.0px;stroke-linecap:butt;stroke-linejoin:miter;stroke-opacity:1"/>
<path class="bond-36 atom-35 atom-37" d="M 135.8,615.5 L 134.9,630.3" style="fill:none;fill-rule:evenodd;stroke:#000000;stroke-width:2.0px;stroke-linecap:butt;stroke-linejoin:miter;stroke-opacity:1"/>
<path class="bond-36 atom-35 atom-37" d="M 140.3,618.0 L 139.7,628.4" style="fill:none;fill-rule:evenodd;stroke:#000000;stroke-width:2.0px;stroke-linecap:butt;stroke-linejoin:miter;stroke-opacity:1"/>
<path class="bond-37 atom-37 atom-38" d="M 132.3,637.2 L 112.7,641.6" style="fill:none;fill-rule:evenodd;stroke:#000000;stroke-width:2.0px;stroke-linecap:butt;stroke-linejoin:miter;stroke-opacity:1"/>
<path class="bond-37 atom-37 atom-38" d="M 131.3,632.7 L 111.7,637.1" style="fill:none;fill-rule:evenodd;stroke:#000000;stroke-width:2.0px;stroke-linecap:butt;stroke-linejoin:miter;stroke-opacity:1"/>
<path class="bond-38 atom-9 atom-1" d="M 86.3,641.6 L 74.0,622.1" style="fill:none;fill-rule:evenodd;stroke:#000000;stroke-width:2.0px;stroke-linecap:butt;stroke-linejoin:miter;stroke-opacity:1"/>
<path class="bond-39 atom-18 atom-13" d="M 150.1,686.8 L 142.6,665.0" style="fill:none;fill-rule:evenodd;stroke:#000000;stroke-width:2.0px;stroke-linecap:butt;stroke-linejoin:miter;stroke-opacity:1"/>
<path class="bond-39 atom-18 atom-13" d="M 144.7,685.0 L 139.4,669.8" style="fill:none;fill-rule:evenodd;stroke:#000000;stroke-width:2.0px;stroke-linecap:butt;stroke-linejoin:miter;stroke-opacity:1"/>
<path class="bond-40 atom-27 atom-14" d="M 174.5,636.8 L 152.7,644.3" style="fill:none;fill-rule:evenodd;stroke:#000000;stroke-width:2.0px;stroke-linecap:butt;stroke-linejoin:miter;stroke-opacity:1"/>
<path class="bond-41 atom-25 atom-20" d="M 202.8,668.7 L 192.7,689.4" style="fill:none;fill-rule:evenodd;stroke:#000000;stroke-width:2.0px;stroke-linecap:butt;stroke-linejoin:miter;stroke-opacity:1"/>
<path class="bond-42 atom-34 atom-28" d="M 156.7,601.1 L 175.9,613.8" style="fill:none;fill-rule:evenodd;stroke:#000000;stroke-width:2.0px;stroke-linecap:butt;stroke-linejoin:miter;stroke-opacity:1"/>
<path class="atom-0" d="M 79.4 600.7 Q 79.4 599.1, 80.2 598.3 Q 80.9 597.4, 82.4 597.4 Q 83.8 597.4, 84.6 598.3 Q 85.4 599.1, 85.4 600.7 Q 85.4 602.3, 84.6 603.2 Q 83.8 604.1, 82.4 604.1 Q 81.0 604.1, 80.2 603.2 Q 79.4 602.3, 79.4 600.7 M 82.4 603.4 Q 83.4 603.4, 83.9 602.7 Q 84.5 602.0, 84.5 600.7 Q 84.5 599.4, 83.9 598.8 Q 83.4 598.1, 82.4 598.1 Q 81.4 598.1, 80.9 598.8 Q 80.3 599.4, 80.3 600.7 Q 80.3 602.0, 80.9 602.7 Q 81.4 603.4, 82.4 603.4 " fill="#000000"/>
<path class="atom-2" d="M 48.6 627.9 Q 48.6 626.4, 49.4 625.5 Q 50.2 624.6, 51.6 624.6 Q 53.1 624.6, 53.9 625.5 Q 54.6 626.4, 54.6 627.9 Q 54.6 629.5, 53.9 630.4 Q 53.1 631.3, 51.6 631.3 Q 50.2 631.3, 49.4 630.4 Q 48.6 629.5, 48.6 627.9 M 51.6 630.6 Q 52.6 630.6, 53.2 629.9 Q 53.7 629.2, 53.7 627.9 Q 53.7 626.7, 53.2 626.0 Q 52.6 625.4, 51.6 625.4 Q 50.6 625.4, 50.1 626.0 Q 49.6 626.6, 49.6 627.9 Q 49.6 629.3, 50.1 629.9 Q 50.6 630.6, 51.6 630.6 " fill="#000000"/>
<path class="atom-4" d="M 29.0 665.5 Q 29.0 665.6, 29.3 665.7 Q 29.6 665.8, 30.0 665.9 Q 30.3 666.0, 30.6 666.0 Q 31.3 666.0, 31.6 665.7 Q 32.0 665.4, 32.0 664.9 Q 32.0 664.5, 31.8 664.3 Q 31.6 664.1, 31.3 663.9 Q 31.1 663.8, 30.6 663.7 Q 30.0 663.5, 29.7 663.3 Q 29.3 663.2, 29.1 662.8 Q 28.8 662.5, 28.8 661.9 Q 28.8 661.1, 29.4 660.6 Q 30.0 660.1, 31.1 660.1 Q 31.8 660.1, 32.7 660.4 L 32.5 661.1 Q 31.7 660.8, 31.1 660.8 Q 30.5 660.8, 30.1 661.1 Q 29.8 661.3, 29.8 661.8 Q 29.8 662.1, 29.9 662.3 Q 30.1 662.6, 30.4 662.7 Q 30.7 662.8, 31.1 662.9 Q 31.7 663.1, 32.0 663.3 Q 32.4 663.5, 32.6 663.9 Q 32.9 664.2, 32.9 664.9 Q 32.9 665.8, 32.3 666.3 Q 31.7 666.7, 30.7 666.7 Q 30.1 666.7, 29.7 666.6 Q 29.2 666.5, 28.7 666.3 L 29.0 665.5 " fill="#000000"/>
<path class="atom-6" d="M 40.2 682.8 Q 40.2 681.2, 41.0 680.3 Q 41.7 679.4, 43.2 679.4 Q 44.6 679.4, 45.4 680.3 Q 46.2 681.2, 46.2 682.8 Q 46.2 684.3, 45.4 685.3 Q 44.6 686.1, 43.2 686.1 Q 41.7 686.1, 41.0 685.3 Q 40.2 684.4, 40.2 682.8 M 43.2 685.4 Q 44.2 685.4, 44.7 684.7 Q 45.3 684.1, 45.3 682.8 Q 45.3 681.5, 44.7 680.8 Q 44.2 680.2, 43.2 680.2 Q 42.2 680.2, 41.6 680.8 Q 41.1 681.5, 41.1 682.8 Q 41.1 684.1, 41.6 684.7 Q 42.2 685.4, 43.2 685.4 " fill="#000000"/>
<path class="atom-7" d="M 15.4 643.9 Q 15.4 642.3, 16.2 641.4 Q 17.0 640.6, 18.4 640.6 Q 19.9 640.6, 20.6 641.4 Q 21.4 642.3, 21.4 643.9 Q 21.4 645.5, 20.6 646.4 Q 19.8 647.3, 18.4 647.3 Q 17.0 647.3, 16.2 646.4 Q 15.4 645.5, 15.4 643.9 M 18.4 646.5 Q 19.4 646.5, 19.9 645.9 Q 20.5 645.2, 20.5 643.9 Q 20.5 642.6, 19.9 642.0 Q 19.4 641.3, 18.4 641.3 Q 17.4 641.3, 16.9 642.0 Q 16.3 642.6, 16.3 643.9 Q 16.3 645.2, 16.9 645.9 Q 17.4 646.5, 18.4 646.5 " fill="#000000"/>
<path class="atom-11" d="M 119.1 623.8 Q 119.1 622.2, 119.8 621.3 Q 120.6 620.5, 122.1 620.5 Q 123.5 620.5, 124.3 621.3 Q 125.1 622.2, 125.1 623.8 Q 125.1 625.4, 124.3 626.3 Q 123.5 627.2, 122.1 627.2 Q 120.6 627.2, 119.8 626.3 Q 119.1 625.4, 119.1 623.8 M 122.1 626.4 Q 123.1 626.4, 123.6 625.8 Q 124.1 625.1, 124.1 623.8 Q 124.1 622.5, 123.6 621.9 Q 123.1 621.2, 122.1 621.2 Q 121.1 621.2, 120.5 621.8 Q 120.0 622.5, 120.0 623.8 Q 120.0 625.1, 120.5 625.8 Q 121.1 626.4, 122.1 626.4 " fill="#000000"/>
<path class="atom-12" d="M 111.3 660.3 L 112.2 660.3 L 112.2 663.1 L 115.5 663.1 L 115.5 660.3 L 116.4 660.3 L 116.4 666.9 L 115.5 666.9 L 115.5 663.9 L 112.2 663.9 L 112.2 666.9 L 111.3 666.9 L 111.3 660.3 " fill="#000000"/>
<path class="atom-12" d="M 118.2 660.3 L 120.3 663.8 Q 120.5 664.1, 120.9 664.8 Q 121.2 665.4, 121.2 665.4 L 121.2 660.3 L 122.1 660.3 L 122.1 666.9 L 121.2 666.9 L 118.9 663.1 Q 118.7 662.6, 118.4 662.1 Q 118.1 661.6, 118.0 661.5 L 118.0 666.9 L 117.2 666.9 L 117.2 660.3 L 118.2 660.3 " fill="#000000"/>
<path class="atom-19" d="M 169.4 693.6 L 171.6 697.1 Q 171.8 697.4, 172.1 698.1 Q 172.5 698.7, 172.5 698.7 L 172.5 693.6 L 173.3 693.6 L 173.3 700.2 L 172.4 700.2 L 170.1 696.4 Q 169.9 695.9, 169.6 695.4 Q 169.3 694.9, 169.2 694.8 L 169.2 700.2 L 168.4 700.2 L 168.4 693.6 L 169.4 693.6 " fill="#000000"/>
<path class="atom-19" d="M 168.3 700.8 L 169.2 700.8 L 169.2 703.6 L 172.5 703.6 L 172.5 700.8 L 173.4 700.8 L 173.4 707.3 L 172.5 707.3 L 172.5 704.3 L 169.2 704.3 L 169.2 707.3 L 168.3 707.3 L 168.3 700.8 " fill="#000000"/>
<path class="atom-26" d="M 193.8 643.6 L 195.9 647.1 Q 196.2 647.4, 196.5 648.0 Q 196.8 648.7, 196.9 648.7 L 196.9 643.6 L 197.7 643.6 L 197.7 650.1 L 196.8 650.1 L 194.5 646.4 Q 194.3 645.9, 194.0 645.4 Q 193.7 644.9, 193.6 644.8 L 193.6 650.1 L 192.8 650.1 L 192.8 643.6 L 193.8 643.6 " fill="#000000"/>
<path class="atom-26" d="M 198.5 643.6 L 199.4 643.6 L 199.4 646.4 L 202.7 646.4 L 202.7 643.6 L 203.6 643.6 L 203.6 650.1 L 202.7 650.1 L 202.7 647.1 L 199.4 647.1 L 199.4 650.1 L 198.5 650.1 L 198.5 643.6 " fill="#000000"/>
<path class="atom-32" d="M 178.2 541.5 L 182.1 541.5 L 182.1 542.2 L 179.1 542.2 L 179.1 544.2 L 181.8 544.2 L 181.8 545.0 L 179.1 545.0 L 179.1 548.0 L 178.2 548.0 L 178.2 541.5 " fill="#000000"/>
<path class="atom-35" d="M 134.2 613.6 Q 134.3 613.6, 134.6 613.7 Q 134.9 613.9, 135.3 614.0 Q 135.6 614.0, 135.9 614.0 Q 136.5 614.0, 136.9 613.7 Q 137.3 613.4, 137.3 612.9 Q 137.3 612.5, 137.1 612.3 Q 136.9 612.1, 136.6 612.0 Q 136.4 611.9, 135.9 611.7 Q 135.3 611.6, 135.0 611.4 Q 134.6 611.2, 134.4 610.9 Q 134.1 610.5, 134.1 609.9 Q 134.1 609.1, 134.7 608.6 Q 135.2 608.1, 136.4 608.1 Q 137.1 608.1, 138.0 608.5 L 137.8 609.2 Q 137.0 608.8, 136.4 608.8 Q 135.7 608.8, 135.4 609.1 Q 135.0 609.4, 135.1 609.8 Q 135.1 610.2, 135.2 610.4 Q 135.4 610.6, 135.7 610.7 Q 135.9 610.8, 136.4 611.0 Q 137.0 611.2, 137.3 611.3 Q 137.7 611.5, 137.9 611.9 Q 138.2 612.3, 138.2 612.9 Q 138.2 613.8, 137.6 614.3 Q 137.0 614.8, 136.0 614.8 Q 135.4 614.8, 134.9 614.6 Q 134.5 614.5, 134.0 614.3 L 134.2 613.6 " fill="#000000"/>
<path class="atom-37" d="M 132.8 636.6 Q 132.9 636.6, 133.2 636.8 Q 133.5 636.9, 133.9 637.0 Q 134.2 637.0, 134.5 637.0 Q 135.1 637.0, 135.5 636.7 Q 135.9 636.4, 135.9 635.9 Q 135.9 635.6, 135.7 635.3 Q 135.5 635.1, 135.2 635.0 Q 135.0 634.9, 134.5 634.7 Q 133.9 634.6, 133.6 634.4 Q 133.2 634.2, 133.0 633.9 Q 132.7 633.5, 132.7 632.9 Q 132.7 632.1, 133.3 631.6 Q 133.8 631.1, 135.0 631.1 Q 135.7 631.1, 136.6 631.5 L 136.4 632.2 Q 135.6 631.8, 135.0 631.8 Q 134.3 631.8, 134.0 632.1 Q 133.6 632.4, 133.7 632.8 Q 133.7 633.2, 133.8 633.4 Q 134.0 633.6, 134.3 633.7 Q 134.5 633.8, 135.0 634.0 Q 135.6 634.2, 135.9 634.3 Q 136.3 634.5, 136.5 634.9 Q 136.8 635.3, 136.8 635.9 Q 136.8 636.8, 136.2 637.3 Q 135.6 637.8, 134.6 637.8 Q 134.0 637.8, 133.5 637.7 Q 133.1 637.5, 132.6 637.3 L 132.8 636.6 " fill="#000000"/>
<path class="atom-35" d="M 140.0,611.3 L 140.0,611.4 L 140.0,611.4 L 140.0,611.5 L 140.0,611.5 L 140.0,611.5 L 140.0,611.6 L 139.9,611.6 L 139.9,611.6 L 139.9,611.7 L 139.9,611.7 L 139.8,611.7 L 139.8,611.7 L 139.8,611.8 L 139.7,611.8 L 139.7,611.8 L 139.7,611.8 L 139.6,611.8 L 139.6,611.8 L 139.5,611.8 L 139.5,611.8 L 139.5,611.8 L 139.4,611.8 L 139.4,611.8 L 139.3,611.8 L 139.3,611.7 L 139.3,611.7 L 139.2,611.7 L 139.2,611.7 L 139.2,611.6 L 139.2,611.6 L 139.2,611.6 L 139.1,611.5 L 139.1,611.5 L 139.1,611.4 L 139.1,611.4 L 139.1,611.4 L 139.1,611.3 L 139.1,611.3 L 139.1,611.3 L 139.1,611.2 L 139.1,611.2 L 139.2,611.1 L 139.2,611.1 L 139.2,611.1 L 139.2,611.0 L 139.2,611.0 L 139.3,611.0 L 139.3,611.0 L 139.3,610.9 L 139.4,610.9 L 139.4,610.9 L 139.5,610.9 L 139.5,610.9 L 139.5,610.9 L 139.6,610.9 L 139.6,610.9 L 139.7,610.9 L 139.7,610.9 L 139.7,610.9 L 139.8,610.9 L 139.8,611.0 L 139.8,611.0 L 139.9,611.0 L 139.9,611.0 L 139.9,611.1 L 139.9,611.1 L 140.0,611.1 L 140.0,611.2 L 140.0,611.2 L 140.0,611.2 L 140.0,611.3 L 140.0,611.3 L 140.0,611.3 L 139.6,611.3 Z" style="fill:#000000;fill-rule:evenodd;fill-opacity:1;stroke:#000000;stroke-width:0.0px;stroke-linecap:butt;stroke-linejoin:miter;stroke-opacity:1;"/>
<path class="bond-0 atom-0 atom-1" d="M 475.8,626.7 L 461.9,618.9" style="fill:none;fill-rule:evenodd;stroke:#000000;stroke-width:2.0px;stroke-linecap:butt;stroke-linejoin:miter;stroke-opacity:1"/>
<path class="bond-1 atom-1 atom-2" d="M 461.9,618.9 L 445.8,628.3" style="fill:none;fill-rule:evenodd;stroke:#000000;stroke-width:2.0px;stroke-linecap:butt;stroke-linejoin:miter;stroke-opacity:1"/>
<path class="bond-2 atom-2 atom-3" d="M 445.8,628.3 L 429.5,619.2" style="fill:none;fill-rule:evenodd;stroke:#000000;stroke-width:2.0px;stroke-linecap:butt;stroke-linejoin:miter;stroke-opacity:1"/>
<path class="bond-3 atom-3 atom-4" d="M 429.5,619.2 L 413.4,628.6" style="fill:none;fill-rule:evenodd;stroke:#000000;stroke-width:2.0px;stroke-linecap:butt;stroke-linejoin:miter;stroke-opacity:1"/>
<path class="bond-4 atom-4 atom-5" d="M 413.4,628.6 L 397.2,619.4" style="fill:none;fill-rule:evenodd;stroke:#000000;stroke-width:2.0px;stroke-linecap:butt;stroke-linejoin:miter;stroke-opacity:1"/>
<path class="bond-4 atom-4 atom-5" d="M 412.8,624.0 L 401.5,617.6" style="fill:none;fill-rule:evenodd;stroke:#000000;stroke-width:2.0px;stroke-linecap:butt;stroke-linejoin:miter;stroke-opacity:1"/>
<path class="bond-5 atom-5 atom-6" d="M 397.2,619.4 L 381.1,628.9" style="fill:none;fill-rule:evenodd;stroke:#000000;stroke-width:2.0px;stroke-linecap:butt;stroke-linejoin:miter;stroke-opacity:1"/>
<path class="bond-6 atom-6 atom-7" d="M 381.1,628.9 L 364.8,619.7" style="fill:none;fill-rule:evenodd;stroke:#000000;stroke-width:2.0px;stroke-linecap:butt;stroke-linejoin:miter;stroke-opacity:1"/>
<path class="bond-6 atom-6 atom-7" d="M 380.5,624.3 L 369.1,617.9" style="fill:none;fill-rule:evenodd;stroke:#000000;stroke-width:2.0px;stroke-linecap:butt;stroke-linejoin:miter;stroke-opacity:1"/>
<path class="bond-7 atom-7 atom-8" d="M 364.8,619.7 L 348.8,629.2" style="fill:none;fill-rule:evenodd;stroke:#000000;stroke-width:2.0px;stroke-linecap:butt;stroke-linejoin:miter;stroke-opacity:1"/>
<path class="bond-8 atom-8 atom-9" d="M 348.8,629.2 L 332.5,620.0" style="fill:none;fill-rule:evenodd;stroke:#000000;stroke-width:2.0px;stroke-linecap:butt;stroke-linejoin:miter;stroke-opacity:1"/>
<path class="bond-8 atom-8 atom-9" d="M 348.2,624.6 L 336.8,618.1" style="fill:none;fill-rule:evenodd;stroke:#000000;stroke-width:2.0px;stroke-linecap:butt;stroke-linejoin:miter;stroke-opacity:1"/>
<path class="bond-9 atom-9 atom-10" d="M 332.5,620.0 L 316.4,629.5" style="fill:none;fill-rule:evenodd;stroke:#000000;stroke-width:2.0px;stroke-linecap:butt;stroke-linejoin:miter;stroke-opacity:1"/>
<path class="bond-10 atom-10 atom-11" d="M 316.4,629.5 L 300.2,620.3" style="fill:none;fill-rule:evenodd;stroke:#000000;stroke-width:2.0px;stroke-linecap:butt;stroke-linejoin:miter;stroke-opacity:1"/>
<path class="bond-10 atom-10 atom-11" d="M 315.8,624.9 L 304.4,618.4" style="fill:none;fill-rule:evenodd;stroke:#000000;stroke-width:2.0px;stroke-linecap:butt;stroke-linejoin:miter;stroke-opacity:1"/>
<path class="bond-11 atom-11 atom-12" d="M 300.2,620.3 L 288.1,627.4" style="fill:none;fill-rule:evenodd;stroke:#000000;stroke-width:2.0px;stroke-linecap:butt;stroke-linejoin:miter;stroke-opacity:1"/>
<path class="bond-12 atom-12 atom-13" d="M 281.5,628.3 L 270.1,621.9" style="fill:none;fill-rule:evenodd;stroke:#000000;stroke-width:2.0px;stroke-linecap:butt;stroke-linejoin:miter;stroke-opacity:1"/>
<path class="atom-0" d="M 476.6 629.9 Q 476.7 629.9, 476.9 630.0 Q 477.2 630.1, 477.4 630.2 Q 477.7 630.2, 478.0 630.2 Q 478.5 630.2, 478.8 630.0 Q 479.1 629.8, 479.1 629.3 Q 479.1 629.0, 478.9 628.9 Q 478.8 628.7, 478.6 628.6 Q 478.3 628.5, 478.0 628.4 Q 477.5 628.2, 477.2 628.1 Q 476.9 628.0, 476.7 627.7 Q 476.5 627.4, 476.5 626.9 Q 476.5 626.2, 477.0 625.8 Q 477.4 625.4, 478.3 625.4 Q 478.9 625.4, 479.6 625.7 L 479.5 626.3 Q 478.8 626.0, 478.4 626.0 Q 477.8 626.0, 477.6 626.2 Q 477.3 626.5, 477.3 626.8 Q 477.3 627.1, 477.4 627.3 Q 477.6 627.4, 477.8 627.5 Q 478.0 627.6, 478.4 627.8 Q 478.8 627.9, 479.1 628.1 Q 479.4 628.2, 479.6 628.5 Q 479.8 628.8, 479.8 629.3 Q 479.8 630.1, 479.3 630.5 Q 478.8 630.8, 478.0 630.8 Q 477.5 630.8, 477.2 630.7 Q 476.8 630.6, 476.4 630.5 L 476.6 629.9 " fill="#000000"/>
<path class="atom-0" d="M 480.2 625.4 L 480.9 625.4 L 480.9 627.7 L 483.6 627.7 L 483.6 625.4 L 484.3 625.4 L 484.3 630.7 L 483.6 630.7 L 483.6 628.3 L 480.9 628.3 L 480.9 630.7 L 480.2 630.7 L 480.2 625.4 " fill="#000000"/>
<path class="atom-0" d="M 484.9 626.4 L 485.9 626.4 L 485.9 625.4 L 486.3 625.4 L 486.3 626.4 L 487.2 626.4 L 487.2 626.7 L 486.3 626.7 L 486.3 627.7 L 485.9 627.7 L 485.9 626.7 L 484.9 626.7 L 484.9 626.4 " fill="#000000"/>
<path class="atom-12" d="M 282.9 627.1 L 284.6 629.9 Q 284.8 630.2, 285.1 630.7 Q 285.4 631.2, 285.4 631.3 L 285.4 627.1 L 286.1 627.1 L 286.1 632.4 L 285.4 632.4 L 283.5 629.4 Q 283.3 629.0, 283.1 628.6 Q 282.8 628.2, 282.8 628.1 L 282.8 632.4 L 282.1 632.4 L 282.1 627.1 L 282.9 627.1 " fill="#000000"/>
<path class="atom-12" d="M 286.7 628.0 L 288.5 628.0 L 288.5 628.4 L 286.7 628.4 L 286.7 628.0 " fill="#000000"/>
<path class="atom-13" d="M 261.4 618.0 L 262.1 618.0 L 262.1 620.2 L 264.8 620.2 L 264.8 618.0 L 265.5 618.0 L 265.5 623.2 L 264.8 623.2 L 264.8 620.8 L 262.1 620.8 L 262.1 623.2 L 261.4 623.2 L 261.4 618.0 " fill="#000000"/>
<path class="atom-13" d="M 266.3 622.4 Q 266.4 622.4, 266.6 622.5 Q 266.9 622.6, 267.2 622.7 Q 267.4 622.8, 267.7 622.8 Q 268.2 622.8, 268.5 622.5 Q 268.8 622.3, 268.8 621.9 Q 268.8 621.6, 268.6 621.4 Q 268.5 621.2, 268.3 621.1 Q 268.0 621.0, 267.7 620.9 Q 267.2 620.8, 266.9 620.6 Q 266.6 620.5, 266.4 620.2 Q 266.2 619.9, 266.2 619.5 Q 266.2 618.8, 266.7 618.4 Q 267.2 618.0, 268.0 618.0 Q 268.7 618.0, 269.4 618.3 L 269.2 618.8 Q 268.5 618.6, 268.1 618.6 Q 267.6 618.6, 267.3 618.8 Q 267.0 619.0, 267.0 619.4 Q 267.0 619.6, 267.1 619.8 Q 267.3 620.0, 267.5 620.1 Q 267.7 620.2, 268.1 620.3 Q 268.5 620.4, 268.8 620.6 Q 269.1 620.7, 269.3 621.1 Q 269.5 621.4, 269.5 621.9 Q 269.5 622.6, 269.0 623.0 Q 268.5 623.4, 267.7 623.4 Q 267.3 623.4, 266.9 623.3 Q 266.6 623.2, 266.1 623.0 L 266.3 622.4 " fill="#000000"/>
<path class="atom-0" d="M 488.7,628.1 L 488.7,628.1 L 488.7,628.1 L 488.7,628.2 L 488.7,628.2 L 488.7,628.2 L 488.7,628.2 L 488.7,628.3 L 488.6,628.3 L 488.6,628.3 L 488.6,628.3 L 488.6,628.4 L 488.5,628.4 L 488.5,628.4 L 488.5,628.4 L 488.5,628.4 L 488.4,628.4 L 488.4,628.4 L 488.4,628.4 L 488.3,628.4 L 488.3,628.4 L 488.3,628.4 L 488.2,628.4 L 488.2,628.4 L 488.2,628.4 L 488.2,628.4 L 488.1,628.3 L 488.1,628.3 L 488.1,628.3 L 488.1,628.3 L 488.0,628.3 L 488.0,628.2 L 488.0,628.2 L 488.0,628.2 L 488.0,628.1 L 488.0,628.1 L 488.0,628.1 L 488.0,628.0 L 488.0,628.0 L 488.0,628.0 L 488.0,627.9 L 488.0,627.9 L 488.0,627.9 L 488.0,627.9 L 488.1,627.8 L 488.1,627.8 L 488.1,627.8 L 488.1,627.8 L 488.2,627.7 L 488.2,627.7 L 488.2,627.7 L 488.2,627.7 L 488.3,627.7 L 488.3,627.7 L 488.3,627.7 L 488.4,627.7 L 488.4,627.7 L 488.4,627.7 L 488.5,627.7 L 488.5,627.7 L 488.5,627.7 L 488.5,627.7 L 488.6,627.8 L 488.6,627.8 L 488.6,627.8 L 488.6,627.8 L 488.7,627.8 L 488.7,627.9 L 488.7,627.9 L 488.7,627.9 L 488.7,628.0 L 488.7,628.0 L 488.7,628.0 L 488.7,628.1 L 488.4,628.1 Z" style="fill:#000000;fill-rule:evenodd;fill-opacity:1;stroke:#000000;stroke-width:0.0px;stroke-linecap:butt;stroke-linejoin:miter;stroke-opacity:1;"/>
<path class="atom-2" d="M 446.2,630.0 L 446.1,630.1 L 446.1,630.1 L 446.1,630.1 L 446.1,630.1 L 446.1,630.2 L 446.1,630.2 L 446.1,630.2 L 446.1,630.3 L 446.0,630.3 L 446.0,630.3 L 446.0,630.3 L 446.0,630.3 L 445.9,630.4 L 445.9,630.4 L 445.9,630.4 L 445.8,630.4 L 445.8,630.4 L 445.8,630.4 L 445.8,630.4 L 445.7,630.4 L 445.7,630.4 L 445.7,630.4 L 445.6,630.4 L 445.6,630.4 L 445.6,630.3 L 445.5,630.3 L 445.5,630.3 L 445.5,630.3 L 445.5,630.2 L 445.5,630.2 L 445.4,630.2 L 445.4,630.2 L 445.4,630.1 L 445.4,630.1 L 445.4,630.1 L 445.4,630.0 L 445.4,630.0 L 445.4,630.0 L 445.4,629.9 L 445.4,629.9 L 445.4,629.9 L 445.4,629.9 L 445.5,629.8 L 445.5,629.8 L 445.5,629.8 L 445.5,629.8 L 445.5,629.7 L 445.6,629.7 L 445.6,629.7 L 445.6,629.7 L 445.7,629.7 L 445.7,629.7 L 445.7,629.7 L 445.8,629.7 L 445.8,629.7 L 445.8,629.7 L 445.8,629.7 L 445.9,629.7 L 445.9,629.7 L 445.9,629.7 L 446.0,629.7 L 446.0,629.7 L 446.0,629.7 L 446.0,629.8 L 446.1,629.8 L 446.1,629.8 L 446.1,629.8 L 446.1,629.9 L 446.1,629.9 L 446.1,629.9 L 446.1,630.0 L 446.1,630.0 L 446.2,630.0 L 445.8,630.0 Z" style="fill:#000000;fill-rule:evenodd;fill-opacity:1;stroke:#000000;stroke-width:0.0px;stroke-linecap:butt;stroke-linejoin:miter;stroke-opacity:1;"/>
<path class="bond-0 atom-0 atom-1" d="M 567.7,625.0 L 701.2,625.0" style="fill:none;fill-rule:evenodd;stroke:#000000;stroke-width:2.0px;stroke-linecap:butt;stroke-linejoin:miter;stroke-opacity:1"/>
<path class="bond-0 atom-0 atom-1" d="M 567.7,588.3 L 701.2,588.3" style="fill:none;fill-rule:evenodd;stroke:#000000;stroke-width:2.0px;stroke-linecap:butt;stroke-linejoin:miter;stroke-opacity:1"/>
<path class="bond-0 atom-0 atom-1" d="M 567.7,661.7 L 701.2,661.7" style="fill:none;fill-rule:evenodd;stroke:#000000;stroke-width:2.0px;stroke-linecap:butt;stroke-linejoin:miter;stroke-opacity:1"/>
<path class="atom-0" d="M 521.3 625.1 Q 521.3 618.3, 524.7 614.5 Q 528.0 610.7, 534.3 610.7 Q 540.6 610.7, 543.9 614.5 Q 547.3 618.3, 547.3 625.1 Q 547.3 632.0, 543.9 635.9 Q 540.5 639.8, 534.3 639.8 Q 528.1 639.8, 524.7 635.9 Q 521.3 632.0, 521.3 625.1 M 534.3 636.6 Q 538.6 636.6, 540.9 633.7 Q 543.3 630.8, 543.3 625.1 Q 543.3 619.5, 540.9 616.7 Q 538.6 613.9, 534.3 613.9 Q 530.0 613.9, 527.6 616.7 Q 525.3 619.5, 525.3 625.1 Q 525.3 630.8, 527.6 633.7 Q 530.0 636.6, 534.3 636.6 " fill="#000000"/>
<path class="atom-0" d="M 549.3 615.7 L 554.3 615.7 L 554.3 610.5 L 556.5 610.5 L 556.5 615.7 L 561.6 615.7 L 561.6 617.6 L 556.5 617.6 L 556.5 622.9 L 554.3 622.9 L 554.3 617.6 L 549.3 617.6 L 549.3 615.7 " fill="#000000"/>
<path class="atom-1" d="M 711.7 610.8 L 721.0 625.8 Q 721.9 627.3, 723.4 630.0 Q 724.9 632.7, 724.9 632.8 L 724.9 610.8 L 728.7 610.8 L 728.7 639.2 L 724.8 639.2 L 714.9 622.8 Q 713.7 620.8, 712.5 618.6 Q 711.3 616.4, 710.9 615.8 L 710.9 639.2 L 707.2 639.2 L 707.2 610.8 L 711.7 610.8 " fill="#000000"/>
</svg>